<?xml version="1.0" encoding="UTF-8"?><svg data-name="Design" xmlns="http://www.w3.org/2000/svg" width="48" height="48" xmlns:xlink="http://www.w3.org/1999/xlink"><defs><linearGradient id="icon-2f2f3269e4d3238f__icon-6364d5f4cd9fe1f1__a" x1="6.261" y1="22.737" x2="26.16" y2="25.533" gradientUnits="userSpaceOnUse"><stop offset=".221" stop-color="#792d9f"/><stop offset=".55" stop-color="#792d9f"/><stop offset=".846" stop-color="#541476"/></linearGradient><linearGradient id="icon-e05beca30b9752e0__icon-391559c346e96dbe__b" x1="33.647" y1="44.519" x2="20.935" y2="9.593" gradientUnits="userSpaceOnUse"><stop offset=".086" stop-color="#d257d6"/><stop offset=".304" stop-color="#dd6ee1"/><stop offset=".578" stop-color="#ef91f3"/></linearGradient></defs><path d="m21.864,7.7L4.321,37.774c-.204.362-.321.78-.321,1.226,0,1.381,1.119,2.5,2.5,2.5.328,0,.641-.063.928-.178l17.571-7.53,2.823-23.201s-1.456-2.513-1.687-2.892c-.439-.719-1.231-1.2-2.136-1.2s-1.697.48-2.136,1.2Z" fill="url(#icon-2f2f3269e4d3238f__icon-6364d5f4cd9fe1f1__a)"/><path d="m17.134,31.278l23.438,10.044c.287.115.6.178.928.178,1.381,0,2.5-1.119,2.5-2.5,0-.445-.117-.864-.321-1.226L26.136,7.7c.231.379.364.824.364,1.3,0,.431-.109.837-.302,1.192l-10.222,17.526c-.219.372-.345.805-.345,1.268,0,1.026.618,1.908,1.503,2.293Z" fill="url(#icon-e05beca30b9752e0__icon-391559c346e96dbe__b)"/></svg>