<?xml version="1.0" encoding="UTF-8"?><svg data-name="Design" xmlns="http://www.w3.org/2000/svg" width="24" height="24" xmlns:xlink="http://www.w3.org/1999/xlink"><defs><linearGradient id="icon-d638c26b0c6eea1c__icon-b1de53ed08bb43f4__a" x1="3.13" y1="11.368" x2="13.08" y2="12.767" gradientUnits="userSpaceOnUse"><stop offset=".221" stop-color="#792d9f"/><stop offset=".55" stop-color="#792d9f"/><stop offset=".846" stop-color="#541476"/></linearGradient><linearGradient id="icon-d6daf30df6b8543d__icon-0a17d1a2b59c5ec1__b" x1="16.824" y1="22.26" x2="10.467" y2="4.796" gradientUnits="userSpaceOnUse"><stop offset=".086" stop-color="#d257d6"/><stop offset=".304" stop-color="#dd6ee1"/><stop offset=".578" stop-color="#ef91f3"/></linearGradient></defs><path d="m10.932,3.85L2.16,18.887c-.102.181-.16.39-.16.613,0,.69.56,1.25,1.25,1.25.164,0,.321-.032.464-.089l8.786-3.765,1.411-11.6s-.728-1.256-.843-1.446c-.219-.36-.616-.6-1.068-.6s-.848.24-1.068.6Z" fill="url(#icon-d638c26b0c6eea1c__icon-b1de53ed08bb43f4__a)"/><path d="m8.567,15.639l11.719,5.022c.144.057.3.089.464.089.69,0,1.25-.56,1.25-1.25,0-.223-.058-.432-.16-.613L13.068,3.85c.116.189.182.412.182.65,0,.216-.055.419-.151.596l-5.111,8.763c-.11.186-.172.402-.172.634,0,.513.309.954.751,1.147Z" fill="url(#icon-d6daf30df6b8543d__icon-0a17d1a2b59c5ec1__b)"/></svg>