<?xml version="1.0" encoding="UTF-8"?><svg data-name="Design" xmlns="http://www.w3.org/2000/svg" width="32" height="32" xmlns:xlink="http://www.w3.org/1999/xlink"><defs><linearGradient id="icon-2bc5b06316ec90b9__icon-76096b5114952b5c__a" x1="3.583" y1="15.116" x2="17.512" y2="17.073" gradientUnits="userSpaceOnUse"><stop offset=".221" stop-color="#792d9f"/><stop offset=".55" stop-color="#792d9f"/><stop offset=".846" stop-color="#541476"/></linearGradient><linearGradient id="icon-f52522dfafa8bbf3__icon-f2954271eda85890__b" x1="22.753" y1="30.364" x2="13.854" y2="5.915" gradientUnits="userSpaceOnUse"><stop offset=".086" stop-color="#d257d6"/><stop offset=".304" stop-color="#dd6ee1"/><stop offset=".578" stop-color="#ef91f3"/></linearGradient></defs><path d="m14.505,4.59L2.225,25.642c-.143.254-.225.546-.225.858,0,.966.784,1.75,1.75,1.75.23,0,.449-.044.65-.125l12.3-5.271,1.976-16.241s-1.019-1.759-1.181-2.024c-.307-.504-.862-.84-1.495-.84s-1.188.336-1.495.84Z" fill="url(#icon-2bc5b06316ec90b9__icon-76096b5114952b5c__a)"/><path d="m11.194,21.095l16.406,7.031c.201.08.42.125.65.125.966,0,1.75-.784,1.75-1.75,0-.312-.082-.605-.225-.858L17.495,4.59c.162.265.255.577.255.91,0,.302-.077.586-.211.834l-7.156,12.268c-.153.26-.241.563-.241.887,0,.718.433,1.336,1.052,1.605Z" fill="url(#icon-f52522dfafa8bbf3__icon-f2954271eda85890__b)"/></svg>