<?xml version="1.0" encoding="UTF-8"?><svg data-name="Design" xmlns="http://www.w3.org/2000/svg" width="20" height="20" xmlns:xlink="http://www.w3.org/1999/xlink"><defs><linearGradient id="icon-555b4f8ffba1a0dd__icon-42f492e31e4c9432__a" x1="2.904" y1="9.495" x2="10.864" y2="10.613" gradientUnits="userSpaceOnUse"><stop offset=".221" stop-color="#792d9f"/><stop offset=".55" stop-color="#792d9f"/><stop offset=".846" stop-color="#541476"/></linearGradient><linearGradient id="icon-801454d827e5d7cf__icon-30721b69226b0e33__b" x1="13.859" y1="18.208" x2="8.774" y2="4.237" gradientUnits="userSpaceOnUse"><stop offset=".086" stop-color="#d257d6"/><stop offset=".304" stop-color="#dd6ee1"/><stop offset=".578" stop-color="#ef91f3"/></linearGradient></defs><path d="m9.146,3.48L2.128,15.51c-.082.145-.128.312-.128.49,0,.552.448,1,1,1,.131,0,.257-.025.371-.071l7.029-3.012,1.129-9.28s-.582-1.005-.675-1.157c-.176-.288-.492-.48-.854-.48s-.679.192-.854.48Z" fill="url(#icon-555b4f8ffba1a0dd__icon-42f492e31e4c9432__a)"/><path d="m7.254,12.911l9.375,4.017c.115.046.24.071.371.071.552,0,1-.448,1-1,0-.178-.047-.345-.128-.49L10.854,3.48c.093.152.146.33.146.52,0,.173-.044.335-.121.477l-4.089,7.01c-.088.149-.138.322-.138.507,0,.411.247.763.601.917Z" fill="url(#icon-801454d827e5d7cf__icon-30721b69226b0e33__b)"/></svg>