<?xml version="1.0" encoding="UTF-8"?><svg data-name="Design" xmlns="http://www.w3.org/2000/svg" width="28" height="28" xmlns:xlink="http://www.w3.org/1999/xlink"><defs><linearGradient id="icon-944a2ea45d24bea0__icon-bf0f228cb68b61fc__a" x1="3.356" y1="13.242" x2="15.296" y2="14.92" gradientUnits="userSpaceOnUse"><stop offset=".221" stop-color="#792d9f"/><stop offset=".55" stop-color="#792d9f"/><stop offset=".846" stop-color="#541476"/></linearGradient><linearGradient id="icon-86665377249043c1__icon-4000a467e605b559__b" x1="19.788" y1="26.312" x2="12.161" y2="5.356" gradientUnits="userSpaceOnUse"><stop offset=".086" stop-color="#d257d6"/><stop offset=".304" stop-color="#dd6ee1"/><stop offset=".578" stop-color="#ef91f3"/></linearGradient></defs><path d="m12.719,4.22L2.192,22.264c-.123.217-.192.468-.192.736,0,.828.672,1.5,1.5,1.5.197,0,.385-.038.557-.107l10.543-4.518,1.694-13.92s-.873-1.508-1.012-1.735c-.263-.432-.739-.72-1.281-.72s-1.018.288-1.281.72Z" fill="url(#icon-944a2ea45d24bea0__icon-bf0f228cb68b61fc__a)"/><path d="m9.88,18.367l14.063,6.026c.172.069.36.107.557.107.828,0,1.5-.672,1.5-1.5,0-.267-.07-.518-.192-.736L15.281,4.22c.139.227.219.494.219.78,0,.259-.066.502-.181.715l-6.133,10.515c-.131.223-.207.483-.207.761,0,.616.371,1.145.902,1.376Z" fill="url(#icon-86665377249043c1__icon-4000a467e605b559__b)"/></svg>