<?xml version="1.0" encoding="UTF-8"?><svg data-name="Design" xmlns="http://www.w3.org/2000/svg" width="16" height="16" xmlns:xlink="http://www.w3.org/1999/xlink"><defs><linearGradient id="icon-d34df4869588157c__icon-2a16e3950fcb4945__a" x1="1.791" y1="7.558" x2="8.756" y2="8.537" gradientUnits="userSpaceOnUse"><stop offset=".221" stop-color="#792d9f"/><stop offset=".55" stop-color="#792d9f"/><stop offset=".846" stop-color="#541476"/></linearGradient><linearGradient id="icon-49e57ce3fab191da__icon-329973418bbfba98__b" x1="11.376" y1="15.182" x2="6.927" y2="2.957" gradientUnits="userSpaceOnUse"><stop offset=".086" stop-color="#d257d6"/><stop offset=".304" stop-color="#dd6ee1"/><stop offset=".578" stop-color="#ef91f3"/></linearGradient></defs><path d="m7.253,2.295L1.112,12.821c-.071.127-.112.273-.112.429,0,.483.392.875.875.875.115,0,.224-.022.325-.062l6.15-2.635.988-8.12s-.509-.879-.59-1.012c-.154-.252-.431-.42-.747-.42s-.594.168-.747.42Z" fill="url(#icon-d34df4869588157c__icon-2a16e3950fcb4945__a)"/><path d="m5.597,10.547l8.203,3.515c.1.04.21.062.325.062.483,0,.875-.392.875-.875,0-.156-.041-.302-.112-.429L8.747,2.295c.081.133.128.288.128.455,0,.151-.038.293-.106.417l-3.578,6.134c-.077.13-.121.282-.121.444,0,.359.216.668.526.803Z" fill="url(#icon-49e57ce3fab191da__icon-329973418bbfba98__b)"/></svg>