<svg xmlns="http://www.w3.org/2000/svg" width="32" height="32" fill="currentColor"><path fill="url(#icon-1eead206b0fe189e__icon-bbf50f13c6549fdd__a)" d="M25.5 3.5h-19a3 3 0 0 0-3 3v19a3 3 0 0 0 3 3h19a3 3 0 0 0 3-3v-19a3 3 0 0 0-3-3Z"/><path fill="url(#icon-23ccee7303e7dfd1__icon-fe5551564337a3f9__b)" fill-opacity=".2" d="M25.5 3.5h-19a3 3 0 0 0-3 3v19a3 3 0 0 0 3 3h19a3 3 0 0 0 3-3v-19a3 3 0 0 0-3-3Z"/><path stroke="currentColor" d="M25.5 3.5h-19a3 3 0 0 0-3 3v19a3 3 0 0 0 3 3h19a3 3 0 0 0 3-3v-19a3 3 0 0 0-3-3Z"/><path fill="url(#icon-6d1274366fdce674__icon-58ec7fac2e8e1106__c)" d="M15.906 24a8 8 0 1 0 0-16 8 8 0 0 0 0 16Z"/><path fill="#F4D58A" d="M20.085 11.82a.5.5 0 0 0-.635-.012l-.177.14a251.6 251.6 0 0 0-3.423 2.772c-.218.183-.41.347-.56.48a3.97 3.97 0 0 0-.344.327 1.5 1.5 0 1 0 2.282 1.948c.072-.084.17-.232.27-.39.107-.17.239-.385.385-.628.292-.488.646-1.096.989-1.69a295.375 295.375 0 0 0 1.213-2.126l.111-.196a.5.5 0 0 0-.11-.626Z"/><path fill="#F4D58A" d="M12.464 12.464a5.001 5.001 0 0 1 5.354-1.123.5.5 0 0 0 .363-.932 6 6 0 0 0-6.424 9.834.5.5 0 1 0 .707-.708 5 5 0 0 1 0-7.07Z"/><defs><linearGradient id="icon-1eead206b0fe189e__icon-bbf50f13c6549fdd__a" x1="10.222" x2="13.511" y1="3" y2="29.311" gradientUnits="userSpaceOnUse"><stop stop-color="#fff"/><stop offset="1" stop-color="#EBEBEB"/></linearGradient><linearGradient id="icon-6d1274366fdce674__icon-58ec7fac2e8e1106__c" x1="7.906" x2="23.906" y1="8" y2="24" gradientUnits="userSpaceOnUse"><stop stop-color="#C28400"/><stop offset="1" stop-color="#A86500"/></linearGradient><radialGradient id="icon-23ccee7303e7dfd1__icon-fe5551564337a3f9__b" cx="0" cy="0" r="1" gradientTransform="rotate(56.31 -3.476 15.448) scale(24.7381 21.408)" gradientUnits="userSpaceOnUse"><stop offset=".177" stop-color="#fff"/><stop offset="1" stop-color="#B8B8B8"/></radialGradient></defs></svg>