<svg xmlns="http://www.w3.org/2000/svg" width="24" height="24" fill="currentColor"><path fill="url(#icon-172a35607b32df6e__icon-634a76bd716c3f0e__a)" d="M19 2.5H5A2.5 2.5 0 0 0 2.5 5v14A2.5 2.5 0 0 0 5 21.5h14a2.5 2.5 0 0 0 2.5-2.5V5A2.5 2.5 0 0 0 19 2.5Z"/><path fill="url(#icon-b7359ccbf8cca021__icon-ae407f4c8b4780f7__b)" fill-opacity=".2" d="M19 2.5H5A2.5 2.5 0 0 0 2.5 5v14A2.5 2.5 0 0 0 5 21.5h14a2.5 2.5 0 0 0 2.5-2.5V5A2.5 2.5 0 0 0 19 2.5Z"/><path stroke="currentColor" d="M19 2.5H5A2.5 2.5 0 0 0 2.5 5v14A2.5 2.5 0 0 0 5 21.5h14a2.5 2.5 0 0 0 2.5-2.5V5A2.5 2.5 0 0 0 19 2.5Z"/><path fill="url(#icon-73aa97962f6d2359__icon-a62f7dba44a2d86a__c)" d="M12 18a6 6 0 1 0 0-12 6 6 0 0 0 0 12Z"/><path fill="#F4D58A" d="M12 8c-2.206 0-4 1.794-4 4 0 1.108.447 2.105 1.18 2.826a.5.5 0 1 0 .7-.712A2.943 2.943 0 0 1 9 12a3.004 3.004 0 0 1 3.404-2.974.5.5 0 0 0 .132-.992A4.093 4.093 0 0 0 12 8Z"/><path fill="#F4D58A" d="M15.064 8.864a.375.375 0 0 0-.476-.008l-.133.105a221.374 221.374 0 0 0-1.432 1.149c-.4.323-.809.657-1.136.93a22 22 0 0 0-.42.36 2.965 2.965 0 0 0-.257.245 1.125 1.125 0 0 0 1.711 1.462c.054-.064.128-.175.203-.293.08-.127.179-.289.288-.471.22-.366.485-.822.742-1.268a227.305 227.305 0 0 0 .91-1.594l.083-.147a.375.375 0 0 0-.083-.47Z"/><defs><linearGradient id="icon-172a35607b32df6e__icon-634a76bd716c3f0e__a" x1="7.556" x2="10.085" y1="2" y2="22.239" gradientUnits="userSpaceOnUse"><stop stop-color="#fff"/><stop offset="1" stop-color="#EBEBEB"/></linearGradient><linearGradient id="icon-73aa97962f6d2359__icon-a62f7dba44a2d86a__c" x1="6" x2="18" y1="6" y2="18" gradientUnits="userSpaceOnUse"><stop stop-color="#C28400"/><stop offset="1" stop-color="#A86500"/></linearGradient><radialGradient id="icon-b7359ccbf8cca021__icon-ae407f4c8b4780f7__b" cx="0" cy="0" r="1" gradientTransform="rotate(56.31 -2.54 11.442) scale(19.0293 16.4677)" gradientUnits="userSpaceOnUse"><stop offset=".177" stop-color="#fff"/><stop offset="1" stop-color="#B8B8B8"/></radialGradient></defs></svg>