<svg xmlns="http://www.w3.org/2000/svg" width="24" height="24" fill="currentColor"><path fill="url(#icon-478f0a1e55f274c9__icon-56a9afcefd9654bf__a)" d="M4 6a3 3 0 0 1 3-3h12a3 3 0 0 1 3 3v11.5a5.5 5.5 0 0 1-5.5 5.5H7a3 3 0 0 1-3-3V6Z"/><path fill="url(#icon-005b0130cd258396__icon-eb8444619c41e2f4__b)" fill-opacity=".2" d="M4 6a3 3 0 0 1 3-3h12a3 3 0 0 1 3 3v11.5a5.5 5.5 0 0 1-5.5 5.5H7a3 3 0 0 1-3-3V6Z"/><path fill="url(#icon-a6894b0bd3ab396b__icon-5ae33afb8af45a49__c)" fill-rule="evenodd" d="M19 4H7a2 2 0 0 0-2 2v14a2 2 0 0 0 2 2h9.5a4.5 4.5 0 0 0 4.5-4.5V6a2 2 0 0 0-2-2ZM7 3a3 3 0 0 0-3 3v14a3 3 0 0 0 3 3h9.5a5.5 5.5 0 0 0 5.5-5.5V6a3 3 0 0 0-3-3H7Z" clip-rule="evenodd"/><path fill="url(#icon-1742e5b06d193bc7__icon-79c05252c7695e2a__d)" d="M1.953 4a3 3 0 0 1 3-3h12a3 3 0 0 1 3 3v14a3 3 0 0 1-3 3h-12a3 3 0 0 1-3-3V4Z"/><path fill="url(#icon-50f69e8280784989__icon-ed23997e2b75417e__e)" fill-opacity=".2" d="M1.953 4a3 3 0 0 1 3-3h12a3 3 0 0 1 3 3v14a3 3 0 0 1-3 3h-12a3 3 0 0 1-3-3V4Z"/><path fill="url(#icon-fb7d2195c25fdd47__icon-d5ca7ad0e49e37ce__f)" fill-rule="evenodd" d="M17 2H5a2 2 0 0 0-2 2v14a2 2 0 0 0 2 2h12a2 2 0 0 0 2-2V4a2 2 0 0 0-2-2ZM5 1a3 3 0 0 0-3 3v14a3 3 0 0 0 3 3h12a3 3 0 0 0 3-3V4a3 3 0 0 0-3-3H5Z" clip-rule="evenodd"/><path fill="url(#icon-f07a2f61b26e8cba__icon-a912b7cc4e6a0cb2__g)" d="M8 5.5H7a1 1 0 0 0-1 1v1a1 1 0 0 0 1 1h1v-3Z"/><path fill="url(#icon-88d3a0884fc9f304__icon-a2b9596ffec2991c__h)" d="M9 8.5h6a1 1 0 0 0 1-1v-1a1 1 0 0 0-1-1H9v3Z"/><path fill="url(#icon-092e9818c6c71513__icon-e0b9d4b24dd4e6d7__i)" d="M10 16.5v-3H8.007c-.556 0-1.007.448-1.007 1v1c0 .552.45 1 1.007 1H10Z"/><path fill="url(#icon-eb73376a7250c58b__icon-b0cdaa75f3c5ad66__j)" d="M14.993 16.5H11v-3h3.993c.556 0 1.007.448 1.007 1v1c0 .552-.45 1-1.007 1Z"/><path fill="url(#icon-2a8ca47953adee3a__icon-c9a130b62b76d6c9__k)" d="M10 9.5v3H8.007A1.004 1.004 0 0 1 7 11.5v-1c0-.552.45-1 1.007-1H10Z"/><path fill="url(#icon-95b97b035963fdd6__icon-1b8675a60e7e749c__l)" d="M11 12.5h3.993c.556 0 1.007-.448 1.007-1v-1c0-.552-.45-1-1.007-1H11v3Z"/><defs><linearGradient id="icon-478f0a1e55f274c9__icon-56a9afcefd9654bf__a" x1="9" x2="11.801" y1="3" y2="23.166" gradientUnits="userSpaceOnUse"><stop stop-color="#fff"/><stop offset="1" stop-color="#EBEBEB"/></linearGradient><linearGradient id="icon-a6894b0bd3ab396b__icon-5ae33afb8af45a49__c" x1="9.813" x2="12.792" y1="3" y2="23.114" gradientUnits="userSpaceOnUse"><stop stop-color="#BBB"/><stop offset="1" stop-color="#888"/></linearGradient><linearGradient id="icon-1742e5b06d193bc7__icon-79c05252c7695e2a__d" x1="6.953" x2="9.754" y1="1" y2="21.166" gradientUnits="userSpaceOnUse"><stop stop-color="#fff"/><stop offset="1" stop-color="#EBEBEB"/></linearGradient><linearGradient id="icon-fb7d2195c25fdd47__icon-d5ca7ad0e49e37ce__f" x1="7.813" x2="10.792" y1="1" y2="21.114" gradientUnits="userSpaceOnUse"><stop stop-color="#BBB"/><stop offset="1" stop-color="#888"/></linearGradient><linearGradient id="icon-f07a2f61b26e8cba__icon-a912b7cc4e6a0cb2__g" x1="6" x2="16.95" y1="5.5" y2="15.455" gradientUnits="userSpaceOnUse"><stop stop-color="#4BA446"/><stop offset="1" stop-color="#3F7D35"/></linearGradient><linearGradient id="icon-88d3a0884fc9f304__icon-a2b9596ffec2991c__h" x1="6" x2="16.95" y1="5.5" y2="15.455" gradientUnits="userSpaceOnUse"><stop stop-color="#4BA446"/><stop offset="1" stop-color="#3F7D35"/></linearGradient><linearGradient id="icon-092e9818c6c71513__icon-e0b9d4b24dd4e6d7__i" x1="6" x2="16.95" y1="5.5" y2="15.455" gradientUnits="userSpaceOnUse"><stop stop-color="#4BA446"/><stop offset="1" stop-color="#3F7D35"/></linearGradient><linearGradient id="icon-eb73376a7250c58b__icon-b0cdaa75f3c5ad66__j" x1="6" x2="16.95" y1="5.5" y2="15.455" gradientUnits="userSpaceOnUse"><stop stop-color="#4BA446"/><stop offset="1" stop-color="#3F7D35"/></linearGradient><linearGradient id="icon-2a8ca47953adee3a__icon-c9a130b62b76d6c9__k" x1="6" x2="16.95" y1="5.5" y2="15.455" gradientUnits="userSpaceOnUse"><stop stop-color="#4BA446"/><stop offset="1" stop-color="#3F7D35"/></linearGradient><linearGradient id="icon-95b97b035963fdd6__icon-1b8675a60e7e749c__l" x1="6" x2="16.95" y1="5.5" y2="15.455" gradientUnits="userSpaceOnUse"><stop stop-color="#4BA446"/><stop offset="1" stop-color="#3F7D35"/></linearGradient><radialGradient id="icon-005b0130cd258396__icon-eb8444619c41e2f4__b" cx="0" cy="0" r="1" gradientTransform="matrix(9.50002 15.83334 -13.09743 7.85847 9.75 8.208)" gradientUnits="userSpaceOnUse"><stop offset=".177" stop-color="#fff"/><stop offset="1" stop-color="#B8B8B8"/></radialGradient><radialGradient id="icon-50f69e8280784989__icon-ed23997e2b75417e__e" cx="0" cy="0" r="1" gradientTransform="matrix(9.50002 15.83334 -13.09743 7.85847 7.703 6.208)" gradientUnits="userSpaceOnUse"><stop offset=".177" stop-color="#fff"/><stop offset="1" stop-color="#B8B8B8"/></radialGradient></defs></svg>