<svg xmlns="http://www.w3.org/2000/svg" width="64" height="64" fill="currentColor"><path fill="url(#icon-89f0cd3851857959__icon-644e78aa463805df__a)" d="M12 13a7 7 0 0 1 7-7h30a7 7 0 0 1 7 7v38c0 6.075-4.925 11-11 11H19a7 7 0 0 1-7-7V13Z"/><path fill="url(#icon-88fb3502ca34a543__icon-57cc87dc098b4513__b)" fill-opacity=".2" d="M12 13a7 7 0 0 1 7-7h30a7 7 0 0 1 7 7v38c0 6.075-4.925 11-11 11H19a7 7 0 0 1-7-7V13Z"/><path fill="url(#icon-81e6fc6f5155ad2f__icon-1b79ad3e3054ccd0__c)" fill-rule="evenodd" d="M49 7H19a6 6 0 0 0-6 6v42a6 6 0 0 0 6 6h26c5.523 0 10-4.477 10-10V13a6 6 0 0 0-6-6ZM19 6a7 7 0 0 0-7 7v42a7 7 0 0 0 7 7h26c6.075 0 11-4.925 11-11V13a7 7 0 0 0-7-7H19Z" clip-rule="evenodd"/><path fill="url(#icon-8e99993b58275c85__icon-6182389dc96810bd__d)" d="M8 9a7 7 0 0 1 7-7h30a7 7 0 0 1 7 7v42a7 7 0 0 1-7 7H15a7 7 0 0 1-7-7V9Z"/><path fill="url(#icon-4ca116f4bc80f8c1__icon-4e97b077b30c9f8e__e)" fill-opacity=".2" d="M8 9a7 7 0 0 1 7-7h30a7 7 0 0 1 7 7v42a7 7 0 0 1-7 7H15a7 7 0 0 1-7-7V9Z"/><path fill="url(#icon-8d9214fbc3b6a99c__icon-3e2169dbb906a59a__f)" fill-rule="evenodd" d="M45 3H15a6 6 0 0 0-6 6v42a6 6 0 0 0 6 6h30a6 6 0 0 0 6-6V9a6 6 0 0 0-6-6ZM15 2a7 7 0 0 0-7 7v42a7 7 0 0 0 7 7h30a7 7 0 0 0 7-7V9a7 7 0 0 0-7-7H15Z" clip-rule="evenodd"/><path fill="url(#icon-b0478c7d89ada740__icon-7bd5ab9a96a3a1e0__g)" d="M21 19h4v6h-4a2 2 0 0 1-2-2v-2a2 2 0 0 1 2-2Z"/><path fill="url(#icon-ed00d3af30627050__icon-e0af53e48d4ec766__h)" d="M39 25H27v-6h12a2 2 0 0 1 2 2v2a2 2 0 0 1-2 2Z"/><path fill="url(#icon-48e13f9d7d75e983__icon-21486073c09fdaae__i)" d="M24 27h4v6h-4a2 2 0 0 1-2-2v-2a2 2 0 0 1 2-2Z"/><path fill="url(#icon-d22a7c31984fe2d6__icon-7c5a1750c29ec69b__j)" d="M24 35h4v6h-4a2 2 0 0 1-2-2v-2a2 2 0 0 1 2-2Z"/><path fill="url(#icon-6c6a82b5c58aadf4__icon-b4385a33e88e22b0__k)" d="M30 41v-6h9a2 2 0 0 1 2 2v2a2 2 0 0 1-2 2h-9Z"/><path fill="url(#icon-f15089893d39ac95__icon-5af48bd5f2d09dac__l)" d="M30 27v6h9a2 2 0 0 0 2-2v-2a2 2 0 0 0-2-2h-9Z"/><defs><linearGradient id="icon-89f0cd3851857959__icon-644e78aa463805df__a" x1="24.222" x2="33.153" y1="6" y2="62.135" gradientUnits="userSpaceOnUse"><stop stop-color="#fff"/><stop offset="1" stop-color="#EBEBEB"/></linearGradient><linearGradient id="icon-81e6fc6f5155ad2f__icon-1b79ad3e3054ccd0__c" x1="26.208" x2="35.702" y1="6" y2="61.944" gradientUnits="userSpaceOnUse"><stop stop-color="#BBB"/><stop offset="1" stop-color="#888"/></linearGradient><linearGradient id="icon-8e99993b58275c85__icon-6182389dc96810bd__d" x1="20.222" x2="29.153" y1="2" y2="58.135" gradientUnits="userSpaceOnUse"><stop stop-color="#fff"/><stop offset="1" stop-color="#EBEBEB"/></linearGradient><linearGradient id="icon-8d9214fbc3b6a99c__icon-3e2169dbb906a59a__f" x1="22.208" x2="31.702" y1="2" y2="57.944" gradientUnits="userSpaceOnUse"><stop stop-color="#BBB"/><stop offset="1" stop-color="#888"/></linearGradient><linearGradient id="icon-b0478c7d89ada740__icon-7bd5ab9a96a3a1e0__g" x1="19" x2="41" y1="19" y2="41" gradientUnits="userSpaceOnUse"><stop stop-color="#4BA446"/><stop offset="1" stop-color="#3F7D35"/></linearGradient><linearGradient id="icon-ed00d3af30627050__icon-e0af53e48d4ec766__h" x1="19" x2="41" y1="19" y2="41" gradientUnits="userSpaceOnUse"><stop stop-color="#4BA446"/><stop offset="1" stop-color="#3F7D35"/></linearGradient><linearGradient id="icon-48e13f9d7d75e983__icon-21486073c09fdaae__i" x1="19" x2="41" y1="19" y2="41" gradientUnits="userSpaceOnUse"><stop stop-color="#4BA446"/><stop offset="1" stop-color="#3F7D35"/></linearGradient><linearGradient id="icon-d22a7c31984fe2d6__icon-7c5a1750c29ec69b__j" x1="19" x2="41" y1="19" y2="41" gradientUnits="userSpaceOnUse"><stop stop-color="#4BA446"/><stop offset="1" stop-color="#3F7D35"/></linearGradient><linearGradient id="icon-6c6a82b5c58aadf4__icon-b4385a33e88e22b0__k" x1="19" x2="41" y1="19" y2="41" gradientUnits="userSpaceOnUse"><stop stop-color="#4BA446"/><stop offset="1" stop-color="#3F7D35"/></linearGradient><linearGradient id="icon-f15089893d39ac95__icon-5af48bd5f2d09dac__l" x1="19" x2="41" y1="19" y2="41" gradientUnits="userSpaceOnUse"><stop stop-color="#4BA446"/><stop offset="1" stop-color="#3F7D35"/></linearGradient><radialGradient id="icon-88fb3502ca34a543__icon-57cc87dc098b4513__b" cx="0" cy="0" r="1" gradientTransform="matrix(23.22222 44.33329 -34.16705 17.89704 26.056 20.583)" gradientUnits="userSpaceOnUse"><stop offset=".177" stop-color="#fff"/><stop offset="1" stop-color="#B8B8B8"/></radialGradient><radialGradient id="icon-4ca116f4bc80f8c1__icon-4e97b077b30c9f8e__e" cx="0" cy="0" r="1" gradientTransform="matrix(23.22222 44.33329 -34.16705 17.89704 22.056 16.583)" gradientUnits="userSpaceOnUse"><stop offset=".177" stop-color="#fff"/><stop offset="1" stop-color="#B8B8B8"/></radialGradient></defs></svg>