<svg xmlns="http://www.w3.org/2000/svg" width="32" height="32" fill="currentColor"><path fill="url(#icon-3eb9eb4262b6714f__icon-0aab8fd07bcf42d5__a)" d="M23.5 2.5h-15a3 3 0 0 0-3 3v21a3 3 0 0 0 3 3h15a3 3 0 0 0 3-3v-21a3 3 0 0 0-3-3Z"/><path fill="url(#icon-354427f2f8096ce4__icon-13bcd6b11814359a__b)" fill-opacity=".2" d="M23.5 2.5h-15a3 3 0 0 0-3 3v21a3 3 0 0 0 3 3h15a3 3 0 0 0 3-3v-21a3 3 0 0 0-3-3Z"/><path stroke="currentColor" d="M23.5 2.5h-15a3 3 0 0 0-3 3v21a3 3 0 0 0 3 3h15a3 3 0 0 0 3-3v-21a3 3 0 0 0-3-3Z"/><path fill="url(#icon-8e1bb9cf33ba7508__icon-7050d16e0f412206__c)" d="M13 15a6 6 0 0 1 6-6h.5a.5.5 0 0 0 0-1H19a7 7 0 0 0-7 7v1a1 1 0 0 1-1 1H9.5a.5.5 0 0 0 0 1H11a2 2 0 0 0 2-2v-1Z"/><path fill="url(#icon-c16d90c1f9819e37__icon-9ac85062b3f03dcd__d)" d="M19.5 12a3.5 3.5 0 0 0-3.5 3.5v1a4.49 4.49 0 0 1-.273 1.546 4.486 4.486 0 0 0-.454.908A4.496 4.496 0 0 1 11.5 21h-2a.5.5 0 0 1 0-1h2a3.5 3.5 0 0 0 3.5-3.5v-1a4.5 4.5 0 0 1 4.5-4.5h3a.5.5 0 0 1 0 1h-3Z"/><path fill="url(#icon-c2470faf51bb85df__icon-7b0bf3cb26d2c0ce__e)" d="M15.268 22.033A5.972 5.972 0 0 1 12 23h-.5a.5.5 0 0 0 0 1h.5c1.365 0 2.638-.39 3.715-1.066a4.486 4.486 0 0 1-.447-.901Z"/><path fill="url(#icon-d4b17059fb7e4b06__icon-8abb8c53f07d88ea__f)" d="M18 16.256a4.47 4.47 0 0 1 1-.229V16a1 1 0 0 1 1-1h2.5a.5.5 0 0 0 0-1H20a2 2 0 0 0-2 2v.256Z"/><path fill="url(#icon-465f09e353047b33__icon-06c8b0fde632978e__g)" fill-rule="evenodd" d="M16.051 20.155a2 2 0 0 0 1.407-2.437l-.009-.032c.246-.179.517-.326.806-.436a2 2 0 0 0 2.558.026c.304.124.587.288.841.487a2.002 2.002 0 0 0 1.302 2.201 3.54 3.54 0 0 1 .026.916l-.033.009a2 2 0 0 0-1.407 2.437l.009.033a3.499 3.499 0 0 1-.806.435 1.999 1.999 0 0 0-2.557-.026 3.474 3.474 0 0 1-.842-.488 2.002 2.002 0 0 0-1.302-2.2 3.54 3.54 0 0 1-.026-.916l.033-.009Zm2.699.367a.75.75 0 1 0 1.5 0 .75.75 0 0 0-1.5 0Z" clip-rule="evenodd"/><defs><linearGradient id="icon-3eb9eb4262b6714f__icon-0aab8fd07bcf42d5__a" x1="11.111" x2="15.576" y1="2" y2="30.067" gradientUnits="userSpaceOnUse"><stop stop-color="#fff"/><stop offset="1" stop-color="#EBEBEB"/></linearGradient><linearGradient id="icon-8e1bb9cf33ba7508__icon-7050d16e0f412206__c" x1="9" x2="24.858" y1="8" y2="21.876" gradientUnits="userSpaceOnUse"><stop stop-color="#E03F8F"/><stop offset="1" stop-color="#BD1E7B"/></linearGradient><linearGradient id="icon-c16d90c1f9819e37__icon-9ac85062b3f03dcd__d" x1="9" x2="24.858" y1="8" y2="21.876" gradientUnits="userSpaceOnUse"><stop stop-color="#E03F8F"/><stop offset="1" stop-color="#BD1E7B"/></linearGradient><linearGradient id="icon-c2470faf51bb85df__icon-7b0bf3cb26d2c0ce__e" x1="9" x2="24.858" y1="8" y2="21.876" gradientUnits="userSpaceOnUse"><stop stop-color="#E03F8F"/><stop offset="1" stop-color="#BD1E7B"/></linearGradient><linearGradient id="icon-d4b17059fb7e4b06__icon-8abb8c53f07d88ea__f" x1="9" x2="24.858" y1="8" y2="21.876" gradientUnits="userSpaceOnUse"><stop stop-color="#E03F8F"/><stop offset="1" stop-color="#BD1E7B"/></linearGradient><linearGradient id="icon-465f09e353047b33__icon-06c8b0fde632978e__g" x1="9" x2="24.858" y1="8" y2="21.876" gradientUnits="userSpaceOnUse"><stop stop-color="#E03F8F"/><stop offset="1" stop-color="#BD1E7B"/></linearGradient><radialGradient id="icon-354427f2f8096ce4__icon-13bcd6b11814359a__b" cx="0" cy="0" r="1" gradientTransform="matrix(11.61113 22.16669 -17.08352 8.94852 12.028 9.292)" gradientUnits="userSpaceOnUse"><stop offset=".177" stop-color="#fff"/><stop offset="1" stop-color="#B8B8B8"/></radialGradient></defs></svg>