<svg xmlns="http://www.w3.org/2000/svg" width="32" height="32" fill="currentColor"><path fill="url(#icon-46a51fdeaca0ec33__icon-009af75e6b3cb27e__a)" d="M27 7.5A3.5 3.5 0 0 0 23.5 4h-13A3.5 3.5 0 0 0 7 7.5v19a3.5 3.5 0 0 0 3.5 3.5H22a5 5 0 0 0 5-5V7.5Z"/><path fill="url(#icon-c5545de665cd9c72__icon-978fb8bb3355edda__b)" d="M26 7.5A2.5 2.5 0 0 0 23.5 5h-13A2.5 2.5 0 0 0 8 7.5v19a2.5 2.5 0 0 0 2.5 2.5h11.25A4.25 4.25 0 0 0 26 24.75V7.5Z"/><path fill="url(#icon-36e13fd9e36291fd__icon-060ef42a17e1e247__c)" fill-opacity=".2" d="M26 7.5A2.5 2.5 0 0 0 23.5 5h-13A2.5 2.5 0 0 0 8 7.5v19a2.5 2.5 0 0 0 2.5 2.5h11.25A4.25 4.25 0 0 0 26 24.75V7.5Z"/><path fill="url(#icon-9597c1a21c005bbd__icon-14d5596bc6771bc8__d)" d="M8.5 2h13A3.5 3.5 0 0 1 25 5.5v19a3.5 3.5 0 0 1-3.5 3.5h-13A3.5 3.5 0 0 1 5 24.5v-19A3.5 3.5 0 0 1 8.5 2Z"/><path fill="url(#icon-565280ff6e322762__icon-641e17dc2ed01c2f__e)" d="M8.5 3h13A2.5 2.5 0 0 1 24 5.5v19a2.5 2.5 0 0 1-2.5 2.5h-13A2.5 2.5 0 0 1 6 24.5v-19A2.5 2.5 0 0 1 8.5 3Z"/><path fill="url(#icon-f6eac95002b7df65__icon-caf25b50919de046__f)" fill-opacity=".2" d="M8.5 3h13A2.5 2.5 0 0 1 24 5.5v19a2.5 2.5 0 0 1-2.5 2.5h-13A2.5 2.5 0 0 1 6 24.5v-19A2.5 2.5 0 0 1 8.5 3Z"/><path fill="url(#icon-17fe7a53da10bd1f__icon-febf7b3d0c582fc3__g)" d="M13 12h6.75c.69 0 1.25-.56 1.25-1.25v-.5C21 9.56 20.44 9 19.75 9H13v3Zm-1-3h-1.75C9.56 9 9 9.56 9 10.25v.5c0 .69.56 1.25 1.25 1.25H12V9Zm3 8h4.75c.69 0 1.25-.56 1.25-1.25v-1.5c0-.69-.56-1.25-1.25-1.25H15v4Zm-1-4h-1.75c-.69 0-1.25.56-1.25 1.25v1.5c0 .69.56 1.25 1.25 1.25H14v-4Zm5.75 8H15v-3h4.75c.69 0 1.25.56 1.25 1.25v.5c0 .69-.56 1.25-1.25 1.25Zm-7.5-3H14v3h-1.75c-.69 0-1.25-.56-1.25-1.25v-.5c0-.69.56-1.25 1.25-1.25Z"/><defs><linearGradient id="icon-46a51fdeaca0ec33__icon-009af75e6b3cb27e__a" x1="20.542" x2="16.045" y1="4" y2="29.943" gradientUnits="userSpaceOnUse"><stop stop-color="#BBB"/><stop offset="1" stop-color="#888"/></linearGradient><linearGradient id="icon-c5545de665cd9c72__icon-978fb8bb3355edda__b" x1="21" x2="17" y1="5" y2="29" gradientUnits="userSpaceOnUse"><stop stop-color="#fff"/><stop offset="1" stop-color="#EBEBEB"/></linearGradient><linearGradient id="icon-9597c1a21c005bbd__icon-14d5596bc6771bc8__d" x1="18.542" x2="14.045" y1="2" y2="27.943" gradientUnits="userSpaceOnUse"><stop stop-color="#BBB"/><stop offset="1" stop-color="#888"/></linearGradient><linearGradient id="icon-565280ff6e322762__icon-641e17dc2ed01c2f__e" x1="19" x2="15" y1="3" y2="27" gradientUnits="userSpaceOnUse"><stop stop-color="#fff"/><stop offset="1" stop-color="#EBEBEB"/></linearGradient><linearGradient id="icon-17fe7a53da10bd1f__icon-febf7b3d0c582fc3__g" x1="9" x2="21" y1="9" y2="21" gradientUnits="userSpaceOnUse"><stop stop-color="#4BA446"/><stop offset="1" stop-color="#3F7D35"/></linearGradient><radialGradient id="icon-36e13fd9e36291fd__icon-060ef42a17e1e247__c" cx="0" cy="0" r="1" gradientTransform="rotate(116.565 6.649 11.883) scale(21.2426 15.932)" gradientUnits="userSpaceOnUse"><stop offset=".177" stop-color="#fff"/><stop offset="1" stop-color="#B8B8B8"/></radialGradient><radialGradient id="icon-f6eac95002b7df65__icon-caf25b50919de046__f" cx="0" cy="0" r="1" gradientTransform="rotate(116.565 6.267 10.265) scale(21.2426 15.932)" gradientUnits="userSpaceOnUse"><stop offset=".177" stop-color="#fff"/><stop offset="1" stop-color="#B8B8B8"/></radialGradient></defs></svg>