<svg xmlns="http://www.w3.org/2000/svg" width="40" height="40" fill="currentColor"><path fill="url(#icon-858e32bc49840d82__icon-beba2335a4812f38__a)" d="M8 9a4 4 0 0 1 4-4h19a4 4 0 0 1 4 4v22a7 7 0 0 1-7 7H12a4 4 0 0 1-4-4V9Z"/><path fill="url(#icon-44cdd937db9da426__icon-b66e865592a41059__b)" fill-opacity=".2" d="M8 9a4 4 0 0 1 4-4h19a4 4 0 0 1 4 4v22a7 7 0 0 1-7 7H12a4 4 0 0 1-4-4V9Z"/><path fill="url(#icon-3bc95ac8f0f12c25__icon-c943ca8d8df19370__c)" fill-rule="evenodd" d="M31 6H12a3 3 0 0 0-3 3v25a3 3 0 0 0 3 3h16a6 6 0 0 0 6-6V9a3 3 0 0 0-3-3ZM12 5a4 4 0 0 0-4 4v25a4 4 0 0 0 4 4h16a7 7 0 0 0 7-7V9a4 4 0 0 0-4-4H12Z" clip-rule="evenodd"/><path fill="url(#icon-61995ddb5e12030a__icon-bcf89cfcc770af95__d)" d="M5 6a4 4 0 0 1 4-4h19a4 4 0 0 1 4 4v25a4 4 0 0 1-4 4H9a4 4 0 0 1-4-4V6Z"/><path fill="url(#icon-f683b284533aa39d__icon-8a75d40c35368f46__e)" fill-opacity=".2" d="M5 6a4 4 0 0 1 4-4h19a4 4 0 0 1 4 4v25a4 4 0 0 1-4 4H9a4 4 0 0 1-4-4V6Z"/><path fill="url(#icon-6b6f338ea0442d94__icon-298875d2ab7bfe8b__f)" fill-rule="evenodd" d="M28 3H9a3 3 0 0 0-3 3v25a3 3 0 0 0 3 3h19a3 3 0 0 0 3-3V6a3 3 0 0 0-3-3ZM9 2a4 4 0 0 0-4 4v25a4 4 0 0 0 4 4h19a4 4 0 0 0 4-4V6a4 4 0 0 0-4-4H9Z" clip-rule="evenodd"/><path fill="url(#icon-c307824c57f848a3__icon-2420af80961f2496__g)" d="M16 16h8.5a1.5 1.5 0 0 0 1.5-1.5v-1a1.5 1.5 0 0 0-1.5-1.5H16v4Zm-1-4h-2.5a1.5 1.5 0 0 0-1.5 1.5v1a1.5 1.5 0 0 0 1.5 1.5H15v-4Zm3 9h6.5a1.5 1.5 0 0 0 1.5-1.5v-1a1.5 1.5 0 0 0-1.5-1.5H18v4Zm-1-4h-2.5a1.5 1.5 0 0 0-1.5 1.5v1a1.5 1.5 0 0 0 1.5 1.5H17v-4Zm7.5 9H18v-4h6.5a1.5 1.5 0 0 1 1.5 1.5v1a1.5 1.5 0 0 1-1.5 1.5Zm-10-4H17v4h-2.5a1.5 1.5 0 0 1-1.5-1.5v-1a1.5 1.5 0 0 1 1.5-1.5Z"/><defs><linearGradient id="icon-858e32bc49840d82__icon-beba2335a4812f38__a" x1="15.5" x2="20.564" y1="5" y2="38.143" gradientUnits="userSpaceOnUse"><stop stop-color="#fff"/><stop offset="1" stop-color="#EBEBEB"/></linearGradient><linearGradient id="icon-3bc95ac8f0f12c25__icon-c943ca8d8df19370__c" x1="16.719" x2="22.103" y1="5" y2="38.039" gradientUnits="userSpaceOnUse"><stop stop-color="#BBB"/><stop offset="1" stop-color="#888"/></linearGradient><linearGradient id="icon-61995ddb5e12030a__icon-bcf89cfcc770af95__d" x1="12.5" x2="17.564" y1="2" y2="35.143" gradientUnits="userSpaceOnUse"><stop stop-color="#fff"/><stop offset="1" stop-color="#EBEBEB"/></linearGradient><linearGradient id="icon-6b6f338ea0442d94__icon-298875d2ab7bfe8b__f" x1="13.719" x2="19.103" y1="2" y2="35.039" gradientUnits="userSpaceOnUse"><stop stop-color="#BBB"/><stop offset="1" stop-color="#888"/></linearGradient><linearGradient id="icon-c307824c57f848a3__icon-2420af80961f2496__g" x1="11" x2="24.967" y1="12" y2="26.964" gradientUnits="userSpaceOnUse"><stop stop-color="#4BA446"/><stop offset="1" stop-color="#3F7D35"/></linearGradient><radialGradient id="icon-44cdd937db9da426__icon-b66e865592a41059__b" cx="0" cy="0" r="1" gradientTransform="rotate(61.389 -3.137 20.8) scale(29.7587 23.4563)" gradientUnits="userSpaceOnUse"><stop offset=".177" stop-color="#fff"/><stop offset="1" stop-color="#B8B8B8"/></radialGradient><radialGradient id="icon-f683b284533aa39d__icon-8a75d40c35368f46__e" cx="0" cy="0" r="1" gradientTransform="rotate(61.389 -2.11 16.773) scale(29.7587 23.4563)" gradientUnits="userSpaceOnUse"><stop offset=".177" stop-color="#fff"/><stop offset="1" stop-color="#B8B8B8"/></radialGradient></defs></svg>