<svg xmlns="http://www.w3.org/2000/svg" width="48" height="48" fill="currentColor"><path fill="url(#icon-f22c83948555032a__icon-276b7f501abd0abb__a)" d="M10 11a5 5 0 0 1 5-5h21a5 5 0 0 1 5 5v26a8 8 0 0 1-8 8H15a5 5 0 0 1-5-5V11Z"/><path fill="url(#icon-531efe008ec26bcc__icon-e15e8c697ee28c11__b)" fill-opacity=".2" d="M10 11a5 5 0 0 1 5-5h21a5 5 0 0 1 5 5v26a8 8 0 0 1-8 8H15a5 5 0 0 1-5-5V11Z"/><path fill="url(#icon-08709df080b410e3__icon-5db33c7ed991e020__c)" fill-rule="evenodd" d="M36 7H15a4 4 0 0 0-4 4v29a4 4 0 0 0 4 4h18a7 7 0 0 0 7-7V11a4 4 0 0 0-4-4ZM15 6a5 5 0 0 0-5 5v29a5 5 0 0 0 5 5h18a8 8 0 0 0 8-8V11a5 5 0 0 0-5-5H15Z" clip-rule="evenodd"/><path fill="url(#icon-ca170e879f0539e9__icon-45273b30b27de992__d)" d="M7.25 8a5 5 0 0 1 5-5h21a5 5 0 0 1 5 5v29a5 5 0 0 1-5 5h-21a5 5 0 0 1-5-5V8Z"/><path fill="url(#icon-a438b203e4285457__icon-9ff3ddedc7e3ef21__e)" fill-opacity=".2" d="M7.25 8a5 5 0 0 1 5-5h21a5 5 0 0 1 5 5v29a5 5 0 0 1-5 5h-21a5 5 0 0 1-5-5V8Z"/><path fill="url(#icon-6909d0fb5ec068be__icon-22bf37e0b3f3e57e__f)" fill-rule="evenodd" d="M33 4H12a4 4 0 0 0-4 4v29a4 4 0 0 0 4 4h21a4 4 0 0 0 4-4V8a4 4 0 0 0-4-4ZM12 3a5 5 0 0 0-5 5v29a5 5 0 0 0 5 5h21a5 5 0 0 0 5-5V8a5 5 0 0 0-5-5H12Z" clip-rule="evenodd"/><path fill="url(#icon-b47f6a72e01408a3__icon-19c621587eb8f748__g)" d="M14.75 13.5H18v5h-3.25A1.75 1.75 0 0 1 13 16.75v-1.5c0-.966.784-1.75 1.75-1.75Z"/><path fill="url(#icon-e2b3933ad9c306e9__icon-f8b8e2746fdf5bb5__h)" d="M29.25 18.5H19.5v-5h9.75c.966 0 1.75.784 1.75 1.75v1.5a1.75 1.75 0 0 1-1.75 1.75Z"/><path fill="url(#icon-38f7e6f872c59308__icon-a4a5a462e459027e__i)" d="M17.75 20h2.75v5h-2.75A1.75 1.75 0 0 1 16 23.25v-1.5c0-.966.784-1.75 1.75-1.75Z"/><path fill="url(#icon-8e013f288a7fd2ad__icon-290d73ba144e1308__j)" d="M17.75 26.5h2.75v5h-2.75A1.75 1.75 0 0 1 16 29.75v-1.5c0-.966.784-1.75 1.75-1.75Z"/><path fill="url(#icon-9aea897e2e75f6ff__icon-f38e5dd6bd64420a__k)" d="M22 31.5v-5h7.25c.966 0 1.75.784 1.75 1.75v1.5a1.75 1.75 0 0 1-1.75 1.75H22Z"/><path fill="url(#icon-4a5b9d8a96fdc596__icon-cb2f7f0756466e9f__l)" d="M22 20v5h7.25A1.75 1.75 0 0 0 31 23.25v-1.5A1.75 1.75 0 0 0 29.25 20H22Z"/><defs><linearGradient id="icon-f22c83948555032a__icon-276b7f501abd0abb__a" x1="18.611" x2="24.762" y1="6" y2="45.116" gradientUnits="userSpaceOnUse"><stop stop-color="#fff"/><stop offset="1" stop-color="#EBEBEB"/></linearGradient><linearGradient id="icon-08709df080b410e3__icon-5db33c7ed991e020__c" x1="20.01" x2="26.55" y1="6" y2="44.986" gradientUnits="userSpaceOnUse"><stop stop-color="#BBB"/><stop offset="1" stop-color="#888"/></linearGradient><linearGradient id="icon-ca170e879f0539e9__icon-45273b30b27de992__d" x1="15.861" x2="22.012" y1="3" y2="42.116" gradientUnits="userSpaceOnUse"><stop stop-color="#fff"/><stop offset="1" stop-color="#EBEBEB"/></linearGradient><linearGradient id="icon-6909d0fb5ec068be__icon-22bf37e0b3f3e57e__f" x1="17.01" x2="23.55" y1="3" y2="41.986" gradientUnits="userSpaceOnUse"><stop stop-color="#BBB"/><stop offset="1" stop-color="#888"/></linearGradient><linearGradient id="icon-b47f6a72e01408a3__icon-19c621587eb8f748__g" x1="13" x2="31" y1="13.5" y2="31.5" gradientUnits="userSpaceOnUse"><stop stop-color="#4BA446"/><stop offset="1" stop-color="#3F7D35"/></linearGradient><linearGradient id="icon-e2b3933ad9c306e9__icon-f8b8e2746fdf5bb5__h" x1="13" x2="31" y1="13.5" y2="31.5" gradientUnits="userSpaceOnUse"><stop stop-color="#4BA446"/><stop offset="1" stop-color="#3F7D35"/></linearGradient><linearGradient id="icon-38f7e6f872c59308__icon-a4a5a462e459027e__i" x1="13" x2="31" y1="13.5" y2="31.5" gradientUnits="userSpaceOnUse"><stop stop-color="#4BA446"/><stop offset="1" stop-color="#3F7D35"/></linearGradient><linearGradient id="icon-8e013f288a7fd2ad__icon-290d73ba144e1308__j" x1="13" x2="31" y1="13.5" y2="31.5" gradientUnits="userSpaceOnUse"><stop stop-color="#4BA446"/><stop offset="1" stop-color="#3F7D35"/></linearGradient><linearGradient id="icon-9aea897e2e75f6ff__icon-f38e5dd6bd64420a__k" x1="13" x2="31" y1="13.5" y2="31.5" gradientUnits="userSpaceOnUse"><stop stop-color="#4BA446"/><stop offset="1" stop-color="#3F7D35"/></linearGradient><linearGradient id="icon-4a5b9d8a96fdc596__icon-cb2f7f0756466e9f__l" x1="13" x2="31" y1="13.5" y2="31.5" gradientUnits="userSpaceOnUse"><stop stop-color="#4BA446"/><stop offset="1" stop-color="#3F7D35"/></linearGradient><radialGradient id="icon-531efe008ec26bcc__icon-e15e8c697ee28c11__b" cx="0" cy="0" r="1" gradientTransform="rotate(62.08 -3.472 24.614) scale(34.9421 27.1064)" gradientUnits="userSpaceOnUse"><stop offset=".177" stop-color="#fff"/><stop offset="1" stop-color="#B8B8B8"/></radialGradient><radialGradient id="icon-a438b203e4285457__icon-9ff3ddedc7e3ef21__e" cx="0" cy="0" r="1" gradientTransform="rotate(62.08 -2.354 20.829) scale(34.9421 27.1064)" gradientUnits="userSpaceOnUse"><stop offset=".177" stop-color="#fff"/><stop offset="1" stop-color="#B8B8B8"/></radialGradient></defs></svg>