<svg xmlns="http://www.w3.org/2000/svg" width="20" height="20" fill="currentColor"><path fill="url(#icon-924b5804ce53506e__icon-ce7cc2e8c166b1c0__a)" d="M5 5.5A2.5 2.5 0 0 1 7.5 3h8A2.5 2.5 0 0 1 18 5.5V14a5 5 0 0 1-5 5H7.5A2.5 2.5 0 0 1 5 16.5v-11Z"/><path fill="url(#icon-c0871cbabd489657__icon-3adc2442e9db93a3__b)" fill-opacity=".2" d="M5 5.5A2.5 2.5 0 0 1 7.5 3h8A2.5 2.5 0 0 1 18 5.5V14a5 5 0 0 1-5 5H7.5A2.5 2.5 0 0 1 5 16.5v-11Z"/><path fill="url(#icon-6685fda9e1cbb1f3__icon-7e2d69fae2c5a2a4__c)" fill-rule="evenodd" d="M15.5 4h-8A1.5 1.5 0 0 0 6 5.5v11A1.5 1.5 0 0 0 7.5 18H13a4 4 0 0 0 4-4V5.5A1.5 1.5 0 0 0 15.5 4Zm-8-1A2.5 2.5 0 0 0 5 5.5v11A2.5 2.5 0 0 0 7.5 19H13a5 5 0 0 0 5-5V5.5A2.5 2.5 0 0 0 15.5 3h-8Z" clip-rule="evenodd"/><path fill="url(#icon-624de8223b069227__icon-2400e4acc9ba21f5__d)" d="M2 3.5A2.5 2.5 0 0 1 4.5 1h9A2.5 2.5 0 0 1 16 3.5v11a2.5 2.5 0 0 1-2.5 2.5h-9A2.5 2.5 0 0 1 2 14.5v-11Z"/><path fill="url(#icon-053b5f0c6e6de5ff__icon-189f6b9b2a61e45c__e)" fill-opacity=".2" d="M2 3.5A2.5 2.5 0 0 1 4.5 1h9A2.5 2.5 0 0 1 16 3.5v11a2.5 2.5 0 0 1-2.5 2.5h-9A2.5 2.5 0 0 1 2 14.5v-11Z"/><path fill="url(#icon-7b7ce050932afcbf__icon-bde94b50780beb72__f)" fill-rule="evenodd" d="M13.5 2h-9A1.5 1.5 0 0 0 3 3.5v11A1.5 1.5 0 0 0 4.5 16h9a1.5 1.5 0 0 0 1.5-1.5v-11A1.5 1.5 0 0 0 13.5 2Zm-9-1A2.5 2.5 0 0 0 2 3.5v11A2.5 2.5 0 0 0 4.5 17h9a2.5 2.5 0 0 0 2.5-2.5v-11A2.5 2.5 0 0 0 13.5 1h-9Z" clip-rule="evenodd"/><path fill="url(#icon-0b3d88258a547466__icon-61db2eee413593a4__g)" d="M4.5 5.5a1 1 0 0 1 1-1h1V7h-1a1 1 0 0 1-1-1v-.5Z"/><path fill="url(#icon-f15e0e6324faae72__icon-f8c793a9db01a0b1__h)" d="M7.5 7V4.5h5a1 1 0 0 1 1 1V6a1 1 0 0 1-1 1h-5Z"/><path fill="url(#icon-e2b2760fd7edb639__icon-7f4e8d2145ce7706__i)" d="M8 14v-2.5H7a1 1 0 0 0-1 1v.5a1 1 0 0 0 1 1h1Z"/><path fill="url(#icon-60528e549aa20ff2__icon-5c0117dba4fa77a3__j)" d="M12.5 14H9v-2.5h3.5a1 1 0 0 1 1 1v.5a1 1 0 0 1-1 1Z"/><path fill="url(#icon-c5ab42c4fd5f5c87__icon-05d1925f7662e55c__k)" d="M8 8v2.5H7a1 1 0 0 1-1-1V9a1 1 0 0 1 1-1h1Z"/><path fill="url(#icon-7415ceca501cbddb__icon-60f4ffc085eea284__l)" d="M9 10.5h3.5a1 1 0 0 0 1-1V9a1 1 0 0 0-1-1H9v2.5Z"/><defs><linearGradient id="icon-924b5804ce53506e__icon-ce7cc2e8c166b1c0__a" x1="8.611" x2="11.082" y1="3" y2="19.064" gradientUnits="userSpaceOnUse"><stop stop-color="#fff"/><stop offset="1" stop-color="#EBEBEB"/></linearGradient><linearGradient id="icon-6685fda9e1cbb1f3__icon-7e2d69fae2c5a2a4__c" x1="9.198" x2="11.826" y1="3" y2="19.013" gradientUnits="userSpaceOnUse"><stop stop-color="#BBB"/><stop offset="1" stop-color="#888"/></linearGradient><linearGradient id="icon-624de8223b069227__icon-2400e4acc9ba21f5__d" x1="5.889" x2="8.191" y1="1" y2="17.116" gradientUnits="userSpaceOnUse"><stop stop-color="#fff"/><stop offset="1" stop-color="#EBEBEB"/></linearGradient><linearGradient id="icon-7b7ce050932afcbf__icon-bde94b50780beb72__f" x1="6.521" x2="8.97" y1="1" y2="17.071" gradientUnits="userSpaceOnUse"><stop stop-color="#BBB"/><stop offset="1" stop-color="#888"/></linearGradient><linearGradient id="icon-0b3d88258a547466__icon-61db2eee413593a4__g" x1="4.5" x2="13.986" y1="4.5" y2="13.487" gradientUnits="userSpaceOnUse"><stop stop-color="#4BA446"/><stop offset="1" stop-color="#3F7D35"/></linearGradient><linearGradient id="icon-f15e0e6324faae72__icon-f8c793a9db01a0b1__h" x1="4.5" x2="13.986" y1="4.5" y2="13.487" gradientUnits="userSpaceOnUse"><stop stop-color="#4BA446"/><stop offset="1" stop-color="#3F7D35"/></linearGradient><linearGradient id="icon-e2b2760fd7edb639__icon-7f4e8d2145ce7706__i" x1="4.5" x2="13.986" y1="4.5" y2="13.487" gradientUnits="userSpaceOnUse"><stop stop-color="#4BA446"/><stop offset="1" stop-color="#3F7D35"/></linearGradient><linearGradient id="icon-60528e549aa20ff2__icon-5c0117dba4fa77a3__j" x1="4.5" x2="13.986" y1="4.5" y2="13.487" gradientUnits="userSpaceOnUse"><stop stop-color="#4BA446"/><stop offset="1" stop-color="#3F7D35"/></linearGradient><linearGradient id="icon-c5ab42c4fd5f5c87__icon-05d1925f7662e55c__k" x1="4.5" x2="13.986" y1="4.5" y2="13.487" gradientUnits="userSpaceOnUse"><stop stop-color="#4BA446"/><stop offset="1" stop-color="#3F7D35"/></linearGradient><linearGradient id="icon-7415ceca501cbddb__icon-60f4ffc085eea284__l" x1="4.5" x2="13.986" y1="4.5" y2="13.487" gradientUnits="userSpaceOnUse"><stop stop-color="#4BA446"/><stop offset="1" stop-color="#3F7D35"/></linearGradient><radialGradient id="icon-c0871cbabd489657__icon-3adc2442e9db93a3__b" cx="0" cy="0" r="1" gradientTransform="matrix(6.8611 12.66664 -9.94629 5.38757 9.153 7.167)" gradientUnits="userSpaceOnUse"><stop offset=".177" stop-color="#fff"/><stop offset="1" stop-color="#B8B8B8"/></radialGradient><radialGradient id="icon-053b5f0c6e6de5ff__icon-189f6b9b2a61e45c__e" cx="0" cy="0" r="1" gradientTransform="rotate(59.744 -1.262 8.218) scale(14.6642 11.9669)" gradientUnits="userSpaceOnUse"><stop offset=".177" stop-color="#fff"/><stop offset="1" stop-color="#B8B8B8"/></radialGradient></defs></svg>