<svg xmlns="http://www.w3.org/2000/svg" width="20" height="20" fill="currentColor"><path d="m12.16 7.71 1.38 1.76c.26.33.57.61.9.85-.23-.45-.45-.98-.65-1.65l-.69-2.46C12.68 4.56 11.04 2 7.34 2c-.37 0-.42.25-.42.34v2.47c2.18.43 4.18 1.51 5.24 2.9ZM18 13.02c0-.41-.36-.67-.67-.67H16.02c-.12 0-.23 0-.35-.02-.08 0-.17-.01-.26-.02-.12-.01-.24-.02-.37-.04-.09-.01-.18-.02-.28-.04-.13-.02-.26-.04-.4-.07l-.3-.06c-.14-.03-.3-.07-.45-.11-.1-.03-.2-.05-.31-.08-.18-.05-.36-.11-.55-.17-.09-.03-.18-.05-.28-.09-.29-.1-.6-.21-.92-.34-.33-.13-.66-.24-.98-.33-.11-.03-.22-.05-.33-.08-.21-.05-.42-.11-.63-.14l-.39-.06c-.18-.03-.37-.06-.55-.07-.13-.01-.26-.02-.4-.02-.17 0-.34-.02-.51-.02h-.09c-.13 0-.25 0-.38.01-.11 0-.23 0-.34.01-.16.01-.32.03-.47.04l-.29.03c-.17.02-.33.05-.49.08-.07.01-.15.02-.22.04a13.952 13.952 0 0 0-2.72.83c-.26.11-.45.18-.6.26-.17.09-.2.36-.11.51 1.04 1.82 2.02 3.54 2.42 4.24.1.18.33.25.52.16.28-.12.69-.27 1.19-.39 1.01-.25 2.18-.3 3.29.14 3.83 1.54 6.4 1.45 7.88 1.45.35 0 .65-.29.65-.65v-4.33Z"/><path d="M7.67 9.59c1.48 0 2.91.27 4.24.81.66.26 1.23.45 1.76.59-.34-.26-.65-.56-.92-.9l-1.38-1.76C10.21 6.79 7.56 5.6 4.87 5.6a.34.34 0 0 0-.33.33v4.05s.03-.01.05-.01c1.03-.25 2.07-.38 3.08-.38Z"/></svg>