<svg xmlns="http://www.w3.org/2000/svg" width="32" height="32" fill="currentColor"><path fill-rule="evenodd" d="m19.528 9.858 1.236 4.378c.344 1.157.73 2.17 1.163 3.05a8.96 8.96 0 0 1-1.06-1.128l-2.42-3.08c-1.2-1.59-3.299-2.964-5.786-3.826v-5.18c4.398.517 6.33 3.69 6.867 5.786Zm9.335 10.258-.193-.01c-2.29-.222-4.454-1.275-5.989-6.44L21.466 9.36C20.724 6.468 17.866 2 11.393 2c-.646 0-.732.43-.732.59V8.69a17.02 17.02 0 0 0-3.596-.39.596.596 0 0 0-.583.582v8.896a23.06 23.06 0 0 0-3.147 1.087c-.175.075-.91.39-1.054.448-.3.15-.35.625-.196.896 1.82 3.181 3.537 6.19 4.24 7.424.18.315.574.43.907.288.49-.211 1.21-.48 2.076-.69 1.773-.43 3.82-.534 5.753.241 6.352 2.549 10.72 2.535 13.362 2.526l.428-.001c.608 0 1.149-.502 1.149-1.146V21.29a1.16 1.16 0 0 0-1.137-1.174Zm-7.848-.977a11.203 11.203 0 0 1-1.72-1.745l-2.445-3.11c-1.388-1.839-4.659-3.554-8.368-3.915v6.973c2.833-.484 6.48-.531 10.254.983.816.328 1.572.595 2.28.814Zm6.973 2.978L27.99 28c-2.574.002-6.515-.108-12.184-2.383-2.448-.982-4.952-.819-6.97-.33-.485.118-.93.252-1.326.387a9656.01 9656.01 0 0 0-2.944-5.154 21.18 21.18 0 0 1 2.887-.924c2.73-.663 6.574-1.005 10.539.585 4.556 1.829 7.475 1.934 9.996 1.936Z"/></svg>