<svg xmlns="http://www.w3.org/2000/svg" width="16" height="16" fill="currentColor"><path d="m10.001 5.92 1.21 1.54c.16.21.35.39.56.55-.15-.34-.3-.72-.44-1.18l-.61-2.15C10.351 3.23 8.921 1 5.681 1c-.32 0-.37.21-.37.29v2.04c1.95.38 3.74 1.34 4.68 2.59h.01ZM15.002 10.63c0-.32-.299-.57-.57-.57h-1.16c-.1 0-.21 0-.31-.02-.07 0-.15-.01-.23-.02-.11 0-.21-.02-.32-.03-.08 0-.16-.02-.24-.03-.11-.02-.23-.04-.35-.06-.09-.02-.17-.03-.26-.05l-.39-.09a2.68 2.68 0 0 1-.27-.07c-.15-.04-.32-.09-.48-.14-.08-.03-.16-.05-.25-.08-.25-.09-.52-.18-.8-.3a7.25 7.25 0 0 0-.86-.29c-.1-.03-.2-.05-.29-.07-.18-.05-.37-.09-.55-.13-.11-.02-.23-.03-.34-.05-.16-.02-.32-.05-.48-.06-.12-.01-.23-.01-.35-.02-.15 0-.3-.02-.44-.02h-.18c-.42 0-.83.03-1.21.08-.03 0-.06 0-.09.01-.39.05-.76.12-1.09.2-.75.18-1.38.42-1.82.61-.22.1-.39.16-.53.22-.15.08-.18.31-.1.45.91 1.59 1.77 3.09 2.12 3.71.09.16.29.22.45.14.25-.11.61-.24 1.04-.35.89-.21 1.91-.27 2.88.12 3.35 1.35 5.61 1.274 6.9 1.274.3 0 .57-.25.57-.57V10.63ZM5.371 7.56c.2-.01.4-.04.6-.04 1.31 0 2.58.24 3.76.71.46.19.88.33 1.27.44-.21-.18-.4-.37-.57-.59l-1.21-1.54c-.11-.15-.25-.3-.39-.44-.04-.04-.09-.08-.14-.13-.11-.1-.23-.2-.36-.29-.05-.04-.11-.08-.16-.12a7.39 7.39 0 0 0-.55-.35c-.05-.03-.1-.05-.15-.08-.15-.08-.31-.16-.48-.23-.09-.04-.18-.08-.28-.12-.13-.05-.27-.1-.41-.15-.1-.03-.2-.07-.3-.1a8.275 8.275 0 0 0-2.47-.38c-.16 0-.29.14-.29.29v3.42h.01c.71-.17 1.42-.26 2.12-.3Z"/></svg>