<svg xmlns="http://www.w3.org/2000/svg" width="20" height="20" fill="currentColor"><path fill-rule="evenodd" d="m12.862 8.951-.705-2.496c-.323-1.263-1.506-3.186-4.205-3.43v3.07c1.484.489 2.74 1.297 3.449 2.235l1.384 1.76c.262.334.564.629.892.887-.308-.56-.578-1.23-.815-2.026Zm4.496 3.401c.311 0 .642.258.642.671l.002 4.321a.657.657 0 0 1-.651.655h-.246c-1.51.005-4.009.014-7.639-1.443-1.104-.443-2.274-.384-3.287-.138-.494.12-.906.274-1.187.394a.408.408 0 0 1-.517-.164l-2.423-4.242c-.089-.155-.06-.426.111-.513.093-.046.603-.255.603-.255.082-.034-.1.043 0 0 .45-.194 1.064-.426 1.798-.622V5.933a.34.34 0 0 1 .334-.333c.696 0 1.39.08 2.054.224V2.337c0-.092.049-.337.418-.337 3.7 0 5.332 2.553 5.756 4.206l.695 2.46c.877 2.952 2.117 3.553 3.426 3.68.009.002.11.006.11.006Zm-5.36-1.644c.364.463.79.861 1.25 1.198a16.31 16.31 0 0 1-1.681-.577c-2.221-.891-4.365-.836-6.003-.537V6.627c2.214.174 4.196 1.19 5.039 2.306l1.396 1.775ZM17.002 17 17 13.353c-1.467.001-3.14-.027-5.806-1.096-2.302-.924-4.531-.724-6.109-.341-.739.179-1.361.404-1.82.596l1.821 3.19c.249-.088.538-.178.857-.256 1.136-.275 2.534-.365 3.896.182 3.371 1.353 5.688 1.376 7.163 1.372Z"/></svg>