<svg width="20" height="20" fill="none" xmlns="http://www.w3.org/2000/svg"><g clip-path="url(#icon-e6ebbb2999e4f517__icon-9e07fa9b99abcc52__a)"><path fill-rule="evenodd" clip-rule="evenodd" d="M6.95215 9.16619C6.95215 9.16619 6.95215 3.9796 6.95215 2.33092C6.95215 2.23942 7.00084 1.99422 7.37027 1.99422C11.0693 1.99422 12.7021 4.54723 13.126 6.20044L13.8206 8.66039C14.6978 11.612 15.9203 12.2137 17.2286 12.341C17.501 12.3675 17.7187 12.5884 17.7174 12.8621L17.6998 16.5883C17.6995 16.6527 17.7104 16.7165 17.7192 16.7802C17.7749 17.1854 17.4595 17.5584 17.0366 17.5266C11.8146 17.1337 7.84091 14.6329 7.01582 9.53027L6.95215 9.16619Z" fill="url(#icon-deac3c92e6255b37__icon-36c60318032d4913__b)"/><path fill-rule="evenodd" clip-rule="evenodd" d="M6.95215 9.16619C6.95215 9.16619 6.95215 3.9796 6.95215 2.33092C6.95215 2.23942 7.00084 1.99422 7.37027 1.99422C11.0693 1.99422 12.7021 4.54723 13.126 6.20044L13.8206 8.66039C14.6978 11.612 15.9203 12.2137 17.2286 12.341C17.501 12.3675 17.7187 12.5884 17.7174 12.8621L17.6998 16.5883C17.6995 16.6527 17.7104 16.7165 17.7192 16.7802C17.7749 17.1854 17.4595 17.5584 17.0366 17.5266C11.8146 17.1337 7.84091 14.6329 7.01582 9.53027L6.95215 9.16619Z" fill="url(#icon-4bf9827950a10088__icon-c769cd0bb315b6b0__c)"/><path d="M4.56421 13.7652C4.56421 14.0642 4.80675 14.3065 5.10594 14.3065H7.19228C8.21733 14.3065 9.21733 14.6231 10.0554 15.213L12.1555 16.6911C13.8083 17.8544 16.0032 17.8951 17.698 16.7939C17.7331 16.7711 17.7553 16.733 17.7578 16.6913L17.9795 13.0453C18.0003 12.6964 17.6332 12.3566 17.3884 12.3498C15.962 12.3104 13.9624 11.583 12.7844 10.0845L11.4008 8.32462C10.2369 6.78311 7.59506 5.59427 4.89731 5.59427C4.7172 5.59427 4.56421 5.75063 4.56421 5.92716L4.56421 13.7652Z" fill="url(#icon-bd27a988d8d56ddb__icon-d24d0e913b95eea2__d)"/><path d="M4.56421 13.7652C4.56421 14.0642 4.80675 14.3065 5.10594 14.3065H7.19228C8.21733 14.3065 9.21733 14.6231 10.0554 15.213L12.1555 16.6911C13.8083 17.8544 16.0032 17.8951 17.698 16.7939C17.7331 16.7711 17.7553 16.733 17.7578 16.6913L17.9795 13.0453C18.0003 12.6964 17.6332 12.3566 17.3884 12.3498C15.962 12.3104 13.9624 11.583 12.7844 10.0845L11.4008 8.32462C10.2369 6.78311 7.59506 5.59427 4.89731 5.59427C4.7172 5.59427 4.56421 5.75063 4.56421 5.92716L4.56421 13.7652Z" fill="url(#icon-fd6f2abd0fd7e237__icon-6e15646313bb1aa4__e)"/><path d="M4.56421 13.7652C4.56421 14.0642 4.80675 14.3065 5.10594 14.3065H7.19228C8.21733 14.3065 9.21733 14.6231 10.0554 15.213L12.1555 16.6911C13.8083 17.8544 16.0032 17.8951 17.698 16.7939C17.7331 16.7711 17.7553 16.733 17.7578 16.6913L17.9795 13.0453C18.0003 12.6964 17.6332 12.3566 17.3884 12.3498C15.962 12.3104 13.9624 11.583 12.7844 10.0845L11.4008 8.32462C10.2369 6.78311 7.59506 5.59427 4.89731 5.59427C4.7172 5.59427 4.56421 5.75063 4.56421 5.92716L4.56421 13.7652Z" fill="url(#icon-f628d9695c9bd4d0__icon-c1fd3f99abca1ea1__f)"/><path fill-rule="evenodd" clip-rule="evenodd" d="M4.99247 16.8066C4.80219 16.8883 4.57715 16.822 4.4746 16.6421C4.07262 15.9372 3.09099 14.2179 2.05156 12.4C1.96312 12.2453 1.99241 11.9739 2.16322 11.8877C2.31528 11.8109 2.51034 11.7416 2.76565 11.6319C3.27308 11.4138 3.98795 11.1471 4.84943 10.9381C6.54793 10.5262 9.00589 10.2955 11.5666 11.323C14.2681 12.407 15.8128 12.3463 17.3395 12.3463C17.6512 12.3463 17.982 12.6038 17.982 13.0173L17.9837 17.3384C17.9837 17.706 17.68 17.9929 17.3324 17.9929C15.8525 17.9929 13.3007 18.0888 9.46642 16.5503C8.36181 16.1071 7.19191 16.1664 6.17888 16.4121C5.6846 16.532 5.27278 16.6861 4.99247 16.8066Z" fill="url(#icon-314afab8cea8da72__icon-a0aaa0897709a1e8__g)"/></g><defs><linearGradient id="icon-deac3c92e6255b37__icon-36c60318032d4913__b" x1="8.74524" y1="6.87422" x2="11.9701" y2="-3.22058" gradientUnits="userSpaceOnUse"><stop stop-color="#114A85"/><stop offset="0.382234" stop-color="#028EDB"/></linearGradient><radialGradient id="icon-4bf9827950a10088__icon-c769cd0bb315b6b0__c" cx="0" cy="0" r="1" gradientUnits="userSpaceOnUse" gradientTransform="translate(17.4874 7.39019) rotate(-143.579) scale(7.6076 4.34272)"><stop stop-color="#028EDB"/><stop offset="1" stop-color="#028EDB" stop-opacity="0"/></radialGradient><linearGradient id="icon-bd27a988d8d56ddb__icon-d24d0e913b95eea2__d" x1="9.66402" y1="13.6873" x2="6.72261" y2="3.68197" gradientUnits="userSpaceOnUse"><stop offset="0.31" stop-color="#0094E5"/><stop offset="1" stop-color="#40D8F9"/></linearGradient><radialGradient id="icon-fd6f2abd0fd7e237__icon-6e15646313bb1aa4__e" cx="0" cy="0" r="1" gradientUnits="userSpaceOnUse" gradientTransform="translate(6.85269 4.80693) rotate(85.9657) scale(13.3947 28.924)"><stop offset="0.226887" stop-color="#0669B6" stop-opacity="0"/><stop offset="0.662942" stop-color="#0669B6"/></radialGradient><linearGradient id="icon-f628d9695c9bd4d0__icon-c1fd3f99abca1ea1__f" x1="8.57103" y1="11.8888" x2="-10.2605" y2="-1.51785" gradientUnits="userSpaceOnUse"><stop stop-color="#60E9D0" stop-opacity="0"/><stop offset="1" stop-color="#60E9D0"/></linearGradient><radialGradient id="icon-314afab8cea8da72__icon-a0aaa0897709a1e8__g" cx="0" cy="0" r="1" gradientUnits="userSpaceOnUse" gradientTransform="translate(8.31191 6.56493) rotate(73.9528) scale(21.149 53.2237)"><stop offset="0.178148" stop-color="#BDF5FF"/><stop offset="0.472239" stop-color="#40D9FA"/></radialGradient><clipPath id="icon-e6ebbb2999e4f517__icon-9e07fa9b99abcc52__a"><rect width="16" height="16" fill="white" transform="translate(2 2)"/></clipPath></defs></svg>