<svg width="24" height="24" fill="none" xmlns="http://www.w3.org/2000/svg"><g clip-path="url(#icon-a7fe3df2f324ba8b__icon-5a6bfcb77991f037__a)"><path fill-rule="evenodd" clip-rule="evenodd" d="M8.19019 10.9577C8.19019 10.9577 8.19019 4.47451 8.19019 2.41365C8.19019 2.29928 8.25105 1.99278 8.71284 1.99278C13.3366 1.99278 15.3776 5.18404 15.9075 7.25055L16.7757 10.3255C17.8722 14.0151 19.4004 14.7672 21.0358 14.9262C21.3762 14.9593 21.6484 15.2355 21.6468 15.5776L21.6248 20.2354C21.6244 20.3158 21.6381 20.3956 21.649 20.4753C21.7187 20.9817 21.3243 21.448 20.7957 21.4083C14.2682 20.9172 9.30114 17.7911 8.26977 11.4128L8.19019 10.9577Z" fill="url(#icon-b986be5b154c6ea0__icon-39e040c1f76f78e8__b)"/><path fill-rule="evenodd" clip-rule="evenodd" d="M8.19019 10.9577C8.19019 10.9577 8.19019 4.47451 8.19019 2.41365C8.19019 2.29928 8.25105 1.99278 8.71284 1.99278C13.3366 1.99278 15.3776 5.18404 15.9075 7.25055L16.7757 10.3255C17.8722 14.0151 19.4004 14.7672 21.0358 14.9262C21.3762 14.9593 21.6484 15.2355 21.6468 15.5776L21.6248 20.2354C21.6244 20.3158 21.6381 20.3956 21.649 20.4753C21.7187 20.9817 21.3243 21.448 20.7957 21.4083C14.2682 20.9172 9.30114 17.7911 8.26977 11.4128L8.19019 10.9577Z" fill="url(#icon-01de7d424e9cfc71__icon-6a7fec3f162ead5b__c)"/><path d="M5.20533 16.7065C5.20533 17.0802 5.5085 17.3832 5.88249 17.3832H8.49041C9.77172 17.3832 11.0217 17.7789 12.0693 18.5163L14.6945 20.3639C16.7605 21.818 19.5041 21.8689 21.6226 20.4924C21.6665 20.4639 21.6942 20.4163 21.6973 20.3641L21.9744 15.8066C22.0005 15.3705 21.5416 14.9457 21.2356 14.9373C19.4525 14.888 16.9531 13.9787 15.4805 12.1057L13.751 9.90578C12.2962 7.97889 8.99389 6.49284 5.6217 6.49284C5.39656 6.49284 5.20532 6.68829 5.20532 6.90895L5.20533 16.7065Z" fill="url(#icon-131425a13cd0cdb6__icon-0a14cb0a4a102357__d)"/><path d="M5.20533 16.7065C5.20533 17.0802 5.5085 17.3832 5.88249 17.3832H8.49041C9.77172 17.3832 11.0217 17.7789 12.0693 18.5163L14.6945 20.3639C16.7605 21.818 19.5041 21.8689 21.6226 20.4924C21.6665 20.4639 21.6942 20.4163 21.6973 20.3641L21.9744 15.8066C22.0005 15.3705 21.5416 14.9457 21.2356 14.9373C19.4525 14.888 16.9531 13.9787 15.4805 12.1057L13.751 9.90578C12.2962 7.97889 8.99389 6.49284 5.6217 6.49284C5.39656 6.49284 5.20532 6.68829 5.20532 6.90895L5.20533 16.7065Z" fill="url(#icon-9bb9731c82cffddd__icon-d183eac4ef735b6f__e)"/><path d="M5.20533 16.7065C5.20533 17.0802 5.5085 17.3832 5.88249 17.3832H8.49041C9.77172 17.3832 11.0217 17.7789 12.0693 18.5163L14.6945 20.3639C16.7605 21.818 19.5041 21.8689 21.6226 20.4924C21.6665 20.4639 21.6942 20.4163 21.6973 20.3641L21.9744 15.8066C22.0005 15.3705 21.5416 14.9457 21.2356 14.9373C19.4525 14.888 16.9531 13.9787 15.4805 12.1057L13.751 9.90578C12.2962 7.97889 8.99389 6.49284 5.6217 6.49284C5.39656 6.49284 5.20532 6.68829 5.20532 6.90895L5.20533 16.7065Z" fill="url(#icon-3ad9c341a2b900d3__icon-4318d955807821ed__f)"/><path fill-rule="evenodd" clip-rule="evenodd" d="M5.74058 20.5082C5.50273 20.6104 5.22144 20.5275 5.09325 20.3027C4.59078 19.4215 3.36373 17.2724 2.06445 15C1.9539 14.8066 1.99051 14.4674 2.20402 14.3596C2.3941 14.2636 2.63793 14.177 2.95706 14.0399C3.59135 13.7673 4.48494 13.4339 5.56179 13.1727C7.68492 12.6577 10.7574 12.3694 13.9582 13.6537C17.3351 15.0087 19.266 14.9328 21.1743 14.9328C21.5641 14.9328 21.9774 15.2548 21.9774 15.7716L21.9796 21.1731C21.9796 21.6325 21.6 21.9912 21.1655 21.9912C19.3156 21.9912 16.1259 22.111 11.333 20.1879C9.95226 19.6338 8.48989 19.708 7.2236 20.0152C6.60574 20.165 6.09098 20.3576 5.74058 20.5082Z" fill="url(#icon-68a538a68ce5b28e__icon-ff91b0fc16372018__g)"/></g><defs><linearGradient id="icon-b986be5b154c6ea0__icon-39e040c1f76f78e8__b" x1="10.4315" y1="8.09277" x2="14.4626" y2="-4.52572" gradientUnits="userSpaceOnUse"><stop stop-color="#114A85"/><stop offset="0.382234" stop-color="#028EDB"/></linearGradient><radialGradient id="icon-01de7d424e9cfc71__icon-6a7fec3f162ead5b__c" cx="0" cy="0" r="1" gradientUnits="userSpaceOnUse" gradientTransform="translate(21.3593 8.73774) rotate(-143.579) scale(9.5095 5.4284)"><stop stop-color="#028EDB"/><stop offset="1" stop-color="#028EDB" stop-opacity="0"/></radialGradient><linearGradient id="icon-131425a13cd0cdb6__icon-0a14cb0a4a102357__d" x1="11.5801" y1="16.6091" x2="7.90332" y2="4.10247" gradientUnits="userSpaceOnUse"><stop offset="0.31" stop-color="#0094E5"/><stop offset="1" stop-color="#40D8F9"/></linearGradient><radialGradient id="icon-9bb9731c82cffddd__icon-d183eac4ef735b6f__e" cx="0" cy="0" r="1" gradientUnits="userSpaceOnUse" gradientTransform="translate(8.06593 5.50866) rotate(85.9657) scale(16.7434 36.1551)"><stop offset="0.226887" stop-color="#0669B6" stop-opacity="0"/><stop offset="0.662942" stop-color="#0669B6"/></radialGradient><linearGradient id="icon-3ad9c341a2b900d3__icon-4318d955807821ed__f" x1="10.2138" y1="14.361" x2="-13.3256" y2="-2.39731" gradientUnits="userSpaceOnUse"><stop stop-color="#60E9D0" stop-opacity="0"/><stop offset="1" stop-color="#60E9D0"/></linearGradient><radialGradient id="icon-68a538a68ce5b28e__icon-ff91b0fc16372018__g" cx="0" cy="0" r="1" gradientUnits="userSpaceOnUse" gradientTransform="translate(9.88988 7.70617) rotate(73.9528) scale(26.4362 66.5296)"><stop offset="0.178148" stop-color="#BDF5FF"/><stop offset="0.472239" stop-color="#40D9FA"/></radialGradient><clipPath id="icon-a7fe3df2f324ba8b__icon-5a6bfcb77991f037__a"><rect width="20" height="20" fill="white" transform="translate(2 2)"/></clipPath></defs></svg>