<svg xmlns="http://www.w3.org/2000/svg" width="16" height="16" fill="currentColor"><path fill-rule="evenodd" d="m10.384 7.118-.618-2.19c-.268-1.047-1.234-2.633-3.433-2.892v2.59c1.243.43 2.292 1.118 2.893 1.913l1.21 1.54c.161.205.34.393.53.565a9.696 9.696 0 0 1-.582-1.526Zm3.953 2.935.097.005c.273 0 .562.225.562.587l.002 3.781a.575.575 0 0 1-.57.573h-.216c-1.32.005-3.503.012-6.679-1.262-.967-.388-1.99-.336-2.877-.121-.432.105-.792.24-1.038.345a.357.357 0 0 1-.453-.144c-.352-.617-1.21-2.121-2.12-3.712-.077-.135-.052-.373.098-.448.08-.041.176-.08.288-.125.072-.03.151-.061.239-.1.412-.176.892-.367 1.574-.543V4.441c0-.154.133-.291.291-.291.61 0 1.216.07 1.798.196V1.295c0-.08.042-.295.366-.295 3.236 0 4.665 2.234 5.036 3.68l.608 2.153c.767 2.583 1.849 3.11 2.994 3.22ZM9.65 8.697c.257.327.548.617.86.873-.352-.11-.73-.243-1.14-.407-1.887-.758-3.71-.734-5.126-.492V5.185c1.854.18 3.49 1.038 4.183 1.957L9.65 8.697ZM13.997 14v-2.941c-1.261-.001-2.72-.054-4.999-.968-1.982-.796-3.904-.624-5.27-.293a10.58 10.58 0 0 0-1.443.462l1.472 2.577c.198-.067.421-.134.664-.193 1.009-.245 2.26-.327 3.484.165 2.835 1.137 4.805 1.192 6.092 1.19Z"/></svg>