<svg xmlns="http://www.w3.org/2000/svg" width="48" height="48" fill="currentColor"><path d="m32.912 22.68-3.46-4.4c-2.63-3.49-7.64-6.18-13.09-7.26V4.84c0-.23.13-.84 1.05-.84 9.25 0 13.33 6.38 14.39 10.52l1.74 6.15c.49 1.66 1.03 3 1.6 4.12-.83-.6-1.59-1.3-2.23-2.11Z"/><path d="M18.232 22.99c3.7 0 7.27.68 10.6 2.01 1.65.66 3.08 1.12 4.41 1.47-.84-.65-1.63-1.39-2.29-2.24l-3.46-4.4c-2.91-3.85-9.51-6.83-16.26-6.83-.45 0-.83.39-.83.83v10.13l.12-.03c2.58-.63 5.17-.94 7.71-.94ZM43.994 31.56c0-1.03-.83-1.68-1.61-1.68h-2.582c-.38 0-.777-.02-1.177-.04h-.213c-.41-.02-.82-.05-1.25-.1-.07 0-.14-.01-.21-.02l-.142-.016c-.387-.045-.789-.092-1.198-.154l-.024-.003a1.486 1.486 0 0 1-.196-.037c-.47-.08-.95-.17-1.45-.27a1.418 1.418 0 0 0-.11-.025c-.038-.008-.075-.015-.11-.025a47.1 47.1 0 0 1-1.61-.4l-.095-.03-.095-.03c-.58-.17-1.18-.35-1.81-.57a.694.694 0 0 1-.13-.05c-.66-.23-1.35-.48-2.08-.77-.41-.17-.82-.32-1.23-.46-.07-.025-.138-.045-.205-.065-.068-.02-.135-.04-.205-.065-.27-.09-.55-.18-.82-.25-.08-.025-.16-.045-.24-.065-.08-.02-.16-.04-.24-.065-.12-.03-.243-.063-.365-.095-.123-.032-.245-.065-.365-.095a9.282 9.282 0 0 0-.255-.055 9.282 9.282 0 0 1-.255-.055c-.23-.05-.46-.1-.69-.14l-.259-.045h-.003l-.258-.045c-.22-.04-.44-.07-.66-.1l-.26-.03-.26-.03c-.117-.01-.23-.024-.342-.037a13.208 13.208 0 0 0-.818-.073c-.11-.005-.218-.013-.326-.02-.1-.008-.198-.015-.294-.02-.17 0-.34-.01-.51-.02-.1 0-.2-.003-.3-.005-.1-.002-.2-.005-.3-.005h-.37c-.58 0-1.16.02-1.71.06-.56.04-1.35.12-1.88.18l-.19.03a34.43 34.43 0 0 0-1.625.26c-.018.005-.035.01-.055.01-.52.1-1.02.21-1.5.32-2.15.52-3.94 1.19-5.21 1.73-.215.095-.416.174-.595.246l-.085.034c-.32.13-.59.24-.82.36-.43.22-.5.89-.28 1.28 2.127 3.715 4.154 7.27 5.374 9.408l.686 1.202c.26.45.82.62 1.29.41.7-.3 1.73-.69 2.97-.99 2.53-.61 5.46-.76 8.22.35 9.06 3.636 15.32 3.62 19.091 3.61h.62c.87 0 1.63-.72 1.63-1.64v-10.8h-.01Z"/></svg>