<svg xmlns="http://www.w3.org/2000/svg" width="28" height="28" fill="currentColor"><path fill-rule="evenodd" d="m18.293 12.427-1.057-3.745c-.486-1.894-2.26-4.778-6.308-5.144v4.604c2.224.731 4.105 1.941 5.158 3.348l2.08 2.64c.456.579.768.908 1.35 1.336-.463-.84-.868-1.845-1.223-3.04ZM6.346 7.4c1.046 0 2.085.119 3.082.334V2.505c0-.137.073-.505.627-.505 5.549 0 7.998 3.83 8.634 6.31L19.731 12c1.313 4.416 3.164 5.325 5.121 5.519.085.012.255.012.255.012a.988.988 0 0 1 .89 1.004L26 25.023a.98.98 0 0 1-.977.976h-.367c-2.265.007-6.012.02-11.456-2.165-1.657-.665-3.412-.576-4.932-.207-.741.18-1.359.41-1.78.591a.613.613 0 0 1-.776-.246c-.603-1.058-2.076-3.637-3.635-6.363-.132-.232-.088-.64.168-.769.139-.07.302-.136.494-.214.124-.05.26-.105.41-.17.675-.29 1.595-.637 2.697-.931V7.9c0-.27.23-.5.5-.5Zm10.64 7.66c.55.7 1.2 1.29 1.89 1.8a23.408 23.408 0 0 1-2.526-.867c-3.332-1.337-6.547-1.254-9.004-.805V8.94c3.32.26 6.29 1.79 7.56 3.46l2.08 2.66Zm-13.09 2.708C4.994 19.686 6 21.45 6.63 22.553c.374-.133.807-.268 1.286-.384 1.703-.413 3.8-.547 5.843.273 5.057 2.03 8.53 2.07 10.742 2.064l-.004-5.477c-2.2.003-4.707-.04-8.705-1.644C12.338 16 8.994 16.3 6.628 16.874a18.34 18.34 0 0 0-2.731.895Z"/></svg>