<svg xmlns="http://www.w3.org/2000/svg" width="32" height="32" fill="currentColor"><path fill-rule="evenodd" d="m20.02 11.84 2.42 3.08c.33.41.71.78 1.11 1.11-.31-.67-.6-1.45-.87-2.36l-1.22-4.3c-.74-2.89-3.6-7.36-10.07-7.36-.65 0-.73.43-.73.59v4.07c3.9.76 7.47 2.69 9.36 5.18v-.01Zm9.984 9.47c0-.755-.474-1.036-.824-1.146-.1-.03-.216-.044-.316-.044H26.97c-.14 0-.28 0-.42-.01-.132 0-.268-.009-.406-.017-.07-.005-.142-.01-.214-.013-.097 0-.194-.008-.294-.017-.054-.005-.11-.01-.166-.013-.21-.02-.42-.04-.64-.07l-.49-.06a9.33 9.33 0 0 1-.7-.12c-.17-.03-.34-.06-.52-.1-.15-.03-.31-.068-.47-.106a24.5 24.5 0 0 0-.32-.074c-.18-.04-.35-.08-.54-.13-.208-.054-.42-.12-.637-.19a28.753 28.753 0 0 0-.323-.1c-.17-.05-.32-.1-.5-.16-.51-.17-1.04-.37-1.61-.59a17.845 17.845 0 0 0-1.7-.58 18.051 18.051 0 0 0-1.66-.39c-.48-.09-.96-.15-1.42-.2-.06 0-.13-.01-.19-.02-.46-.04-.91-.07-1.35-.08H11.97c-.116 0-.23.005-.342.01-.11.005-.219.01-.328.01-.2 0-.39 0-.58.02-.255.018-.502.045-.756.072l-.074.008a8.29 8.29 0 0 1-.249.024c-.09.008-.178.016-.26.026-.29.04-.57.08-.85.13l-.2.03H8.33l-.2.03c-.326.057-.64.128-.94.195l-.2.045c-1.51.37-2.76.83-3.65 1.21-.148.063-.284.117-.41.168-.255.103-.465.188-.64.282-.3.15-.35.63-.2.9 1.82 3.18 3.54 6.19 4.24 7.42.18.31.57.43.91.29.49-.21 1.21-.48 2.08-.69 1.77-.43 3.82-.53 5.75.24 6.348 2.545 10.735 2.513 13.379 2.504h.434c.61 0 1.12-.484 1.12-1.134v-7.56ZM19.49 16.47a20.075 20.075 0 0 0-7.515-1.43c-1.798 0-3.636.23-5.455.67h-.03V8.88c0-.31.26-.58.58-.58a17.186 17.186 0 0 1 4.89.72c.75.23 1.47.5 2.15.81l.08.035.08.035a12.83 12.83 0 0 1 1.84 1.03l.18.12c.27.19.54.39.78.59l.02.02c.23.2.45.4.65.6.04.034.077.072.111.109l.05.051c.2.21.39.43.56.65l2.42 3.08c.17.22.36.42.55.62.07.07.13.13.2.19.13.13.26.26.4.38-.78-.22-1.61-.5-2.54-.87Z"/></svg>