<svg width="28" height="28" fill="none" xmlns="http://www.w3.org/2000/svg"><g clip-path="url(#icon-19b43e49c82a5fc7__icon-f176f968bb7996bb__a)"><path fill-rule="evenodd" clip-rule="evenodd" d="M9.42822 12.7493C9.42822 12.7493 9.42822 4.96941 9.42822 2.49638C9.42822 2.35913 9.50126 1.99134 10.0554 1.99134C15.6039 1.99134 18.0531 5.82085 18.689 8.30066L19.7308 11.9906C21.0467 16.4181 22.8804 17.3206 24.8429 17.5115C25.2515 17.5512 25.5781 17.8826 25.5761 18.2931L25.5497 23.8825C25.5493 23.979 25.5657 24.0747 25.5788 24.1703C25.6624 24.7781 25.1892 25.3377 24.5548 25.2899C16.7219 24.7006 10.7614 20.9494 9.52373 13.2954L9.42822 12.7493Z" fill="url(#icon-e738c7320dac78b3__icon-2d959a91f85adcf3__b)"/><path fill-rule="evenodd" clip-rule="evenodd" d="M9.42822 12.7493C9.42822 12.7493 9.42822 4.96941 9.42822 2.49638C9.42822 2.35913 9.50126 1.99134 10.0554 1.99134C15.6039 1.99134 18.0531 5.82085 18.689 8.30066L19.7308 11.9906C21.0467 16.4181 22.8804 17.3206 24.8429 17.5115C25.2515 17.5512 25.5781 17.8826 25.5761 18.2931L25.5497 23.8825C25.5493 23.979 25.5657 24.0747 25.5788 24.1703C25.6624 24.7781 25.1892 25.3377 24.5548 25.2899C16.7219 24.7006 10.7614 20.9494 9.52373 13.2954L9.42822 12.7493Z" fill="url(#icon-568ed9c24204707a__icon-eaae8c9e063f7c00__c)"/><path d="M5.84644 19.6477C5.84644 20.0962 6.21025 20.4598 6.65903 20.4598H9.78853C11.3261 20.4598 12.8261 20.9347 14.0832 21.8195L17.2334 24.0367C19.7126 25.7817 23.005 25.8427 25.5472 24.1909C25.5998 24.1567 25.6331 24.0995 25.6368 24.0369L25.9694 18.5679C26.0006 18.0446 25.45 17.5349 25.0827 17.5247C22.9431 17.4656 19.9437 16.3744 18.1767 14.1268L16.1013 11.4869C14.3554 9.17466 10.3927 7.3914 6.34609 7.3914C6.07592 7.3914 5.84644 7.62595 5.84644 7.89074L5.84644 19.6477Z" fill="url(#icon-deff63b20eaa7f06__icon-d76bd86dd6923a1e__d)"/><path d="M5.84644 19.6477C5.84644 20.0962 6.21025 20.4598 6.65903 20.4598H9.78853C11.3261 20.4598 12.8261 20.9347 14.0832 21.8195L17.2334 24.0367C19.7126 25.7817 23.005 25.8427 25.5472 24.1909C25.5998 24.1567 25.6331 24.0995 25.6368 24.0369L25.9694 18.5679C26.0006 18.0446 25.45 17.5349 25.0827 17.5247C22.9431 17.4656 19.9437 16.3744 18.1767 14.1268L16.1013 11.4869C14.3554 9.17466 10.3927 7.3914 6.34609 7.3914C6.07592 7.3914 5.84644 7.62595 5.84644 7.89074L5.84644 19.6477Z" fill="url(#icon-25c6854017b35eca__icon-37096a5a61aa1923__e)"/><path d="M5.84644 19.6477C5.84644 20.0962 6.21025 20.4598 6.65903 20.4598H9.78853C11.3261 20.4598 12.8261 20.9347 14.0832 21.8195L17.2334 24.0367C19.7126 25.7817 23.005 25.8427 25.5472 24.1909C25.5998 24.1567 25.6331 24.0995 25.6368 24.0369L25.9694 18.5679C26.0006 18.0446 25.45 17.5349 25.0827 17.5247C22.9431 17.4656 19.9437 16.3744 18.1767 14.1268L16.1013 11.4869C14.3554 9.17466 10.3927 7.3914 6.34609 7.3914C6.07592 7.3914 5.84644 7.62595 5.84644 7.89074L5.84644 19.6477Z" fill="url(#icon-c5a9871b80906479__icon-7d007924ba70ae50__f)"/><path fill-rule="evenodd" clip-rule="evenodd" d="M6.4887 24.2098C6.20328 24.3325 5.86573 24.233 5.7119 23.9632C5.10894 22.9057 3.63648 20.3269 2.07734 17.6C1.94468 17.368 1.98861 16.9609 2.24483 16.8315C2.47292 16.7163 2.76552 16.6124 3.14848 16.4478C3.90961 16.1207 4.98192 15.7206 6.27415 15.4072C8.8219 14.7892 12.5088 14.4432 16.3499 15.9845C20.4021 17.6105 22.7192 17.5194 25.0092 17.5194C25.4769 17.5194 25.9729 17.9057 25.9729 18.5259L25.9755 25.0077C25.9755 25.559 25.52 25.9894 24.9986 25.9894C22.7787 25.9894 18.9511 26.1332 13.1996 23.8254C11.5427 23.1606 9.78786 23.2496 8.26831 23.6182C7.52689 23.798 6.90917 24.0291 6.4887 24.2098Z" fill="url(#icon-9c57dc7f3ee5c710__icon-b124f844b93bbb5b__g)"/></g><defs><linearGradient id="icon-e738c7320dac78b3__icon-2d959a91f85adcf3__b" x1="12.1179" y1="9.31133" x2="16.9552" y2="-5.83086" gradientUnits="userSpaceOnUse"><stop stop-color="#114A85"/><stop offset="0.382234" stop-color="#028EDB"/></linearGradient><radialGradient id="icon-568ed9c24204707a__icon-eaae8c9e063f7c00__c" cx="0" cy="0" r="1" gradientUnits="userSpaceOnUse" gradientTransform="translate(25.2311 10.0853) rotate(-143.579) scale(11.4114 6.51409)"><stop stop-color="#028EDB"/><stop offset="1" stop-color="#028EDB" stop-opacity="0"/></radialGradient><linearGradient id="icon-deff63b20eaa7f06__icon-d76bd86dd6923a1e__d" x1="13.4962" y1="19.5309" x2="9.08404" y2="4.52296" gradientUnits="userSpaceOnUse"><stop offset="0.31" stop-color="#0094E5"/><stop offset="1" stop-color="#40D8F9"/></linearGradient><radialGradient id="icon-25c6854017b35eca__icon-37096a5a61aa1923__e" cx="0" cy="0" r="1" gradientUnits="userSpaceOnUse" gradientTransform="translate(9.27916 6.21039) rotate(85.9657) scale(20.092 43.3861)"><stop offset="0.226887" stop-color="#0669B6" stop-opacity="0"/><stop offset="0.662942" stop-color="#0669B6"/></radialGradient><linearGradient id="icon-c5a9871b80906479__icon-7d007924ba70ae50__f" x1="11.8567" y1="16.8331" x2="-16.3906" y2="-3.27677" gradientUnits="userSpaceOnUse"><stop stop-color="#60E9D0" stop-opacity="0"/><stop offset="1" stop-color="#60E9D0"/></linearGradient><radialGradient id="icon-9c57dc7f3ee5c710__icon-b124f844b93bbb5b__g" cx="0" cy="0" r="1" gradientUnits="userSpaceOnUse" gradientTransform="translate(11.4679 8.84739) rotate(73.9528) scale(31.7234 79.8356)"><stop offset="0.178148" stop-color="#BDF5FF"/><stop offset="0.472239" stop-color="#40D9FA"/></radialGradient><clipPath id="icon-19b43e49c82a5fc7__icon-f176f968bb7996bb__a"><rect width="24" height="24" fill="white" transform="translate(2 2)"/></clipPath></defs></svg>