<svg width="32" height="32" fill="none" xmlns="http://www.w3.org/2000/svg"><g clip-path="url(#icon-84a68d538aa61cdc__icon-0c1e214939795d22__a)"><path fill-rule="evenodd" clip-rule="evenodd" d="M10.6663 14.5408C10.6663 14.5408 10.6663 5.46431 10.6663 2.57911C10.6663 2.41899 10.7515 1.9899 11.398 1.9899C17.8712 1.9899 20.7287 6.45765 21.4705 9.35077L22.686 13.6557C24.2211 18.8211 26.3605 19.874 28.6501 20.0967C29.1267 20.1431 29.5078 20.5298 29.5055 21.0086L29.4747 27.5296C29.4741 27.6422 29.4933 27.7538 29.5086 27.8654C29.6061 28.5744 29.054 29.2273 28.314 29.1716C19.1755 28.484 12.2216 24.1076 10.7777 15.178L10.6663 14.5408Z" fill="url(#icon-b19edb1dcf1542e8__icon-aa2f1d051881ccb3__b)"/><path fill-rule="evenodd" clip-rule="evenodd" d="M10.6663 14.5408C10.6663 14.5408 10.6663 5.46431 10.6663 2.57911C10.6663 2.41899 10.7515 1.9899 11.398 1.9899C17.8712 1.9899 20.7287 6.45765 21.4705 9.35077L22.686 13.6557C24.2211 18.8211 26.3605 19.874 28.6501 20.0967C29.1267 20.1431 29.5078 20.5298 29.5055 21.0086L29.4747 27.5296C29.4741 27.6422 29.4933 27.7538 29.5086 27.8654C29.6061 28.5744 29.054 29.2273 28.314 29.1716C19.1755 28.484 12.2216 24.1076 10.7777 15.178L10.6663 14.5408Z" fill="url(#icon-53bb9542baedda15__icon-86767ebeff1a972f__c)"/><path d="M6.48756 22.589C6.48756 23.1123 6.912 23.5365 7.43558 23.5365H11.0867C12.8805 23.5365 14.6305 24.0905 16.0971 25.1228L19.7724 27.7095C22.6647 29.7453 26.5058 29.8165 29.4718 27.8893C29.5332 27.8494 29.572 27.7828 29.5763 27.7097L29.9643 21.3293C30.0008 20.7187 29.3583 20.124 28.9299 20.1122C26.4336 20.0432 22.9344 18.7702 20.8728 16.1479L18.4515 13.0681C16.4147 10.3704 11.7915 8.28997 7.07048 8.28997C6.75528 8.28997 6.48755 8.56361 6.48755 8.87253L6.48756 22.589Z" fill="url(#icon-517a5975e8122aee__icon-23a6097f0383286b__d)"/><path d="M6.48756 22.589C6.48756 23.1123 6.912 23.5365 7.43558 23.5365H11.0867C12.8805 23.5365 14.6305 24.0905 16.0971 25.1228L19.7724 27.7095C22.6647 29.7453 26.5058 29.8165 29.4718 27.8893C29.5332 27.8494 29.572 27.7828 29.5763 27.7097L29.9643 21.3293C30.0008 20.7187 29.3583 20.124 28.9299 20.1122C26.4336 20.0432 22.9344 18.7702 20.8728 16.1479L18.4515 13.0681C16.4147 10.3704 11.7915 8.28997 7.07048 8.28997C6.75528 8.28997 6.48755 8.56361 6.48755 8.87253L6.48756 22.589Z" fill="url(#icon-1de9dbfb9d19d4b8__icon-967848fd70cd508a__e)"/><path d="M6.48756 22.589C6.48756 23.1123 6.912 23.5365 7.43558 23.5365H11.0867C12.8805 23.5365 14.6305 24.0905 16.0971 25.1228L19.7724 27.7095C22.6647 29.7453 26.5058 29.8165 29.4718 27.8893C29.5332 27.8494 29.572 27.7828 29.5763 27.7097L29.9643 21.3293C30.0008 20.7187 29.3583 20.124 28.9299 20.1122C26.4336 20.0432 22.9344 18.7702 20.8728 16.1479L18.4515 13.0681C16.4147 10.3704 11.7915 8.28997 7.07048 8.28997C6.75528 8.28997 6.48755 8.56361 6.48755 8.87253L6.48756 22.589Z" fill="url(#icon-8fbdccd8c76bc37b__icon-6e1afe8621b071c9__f)"/><path fill-rule="evenodd" clip-rule="evenodd" d="M7.23681 27.9115C6.90383 28.0546 6.51002 27.9385 6.33055 27.6237C5.62709 26.39 3.90922 23.3814 2.09023 20.2C1.93546 19.9293 1.98671 19.4544 2.28563 19.3035C2.55173 19.1691 2.8931 19.0478 3.33989 18.8558C4.22788 18.4741 5.47891 18.0074 6.98651 17.6417C9.95888 16.9208 14.2603 16.5171 18.7415 18.3152C23.4691 20.2122 26.1724 20.106 28.8441 20.106C29.3897 20.106 29.9684 20.5567 29.9684 21.2802L29.9714 28.8423C29.9714 29.4854 29.44 29.9876 28.8317 29.9876C26.2419 29.9876 21.7763 30.1555 15.0662 27.463C13.1332 26.6874 11.0858 26.7912 9.31303 27.2212C8.44804 27.431 7.72737 27.7007 7.23681 27.9115Z" fill="url(#icon-5576f8ee2d434f16__icon-70d6b53c7fa55529__g)"/></g><defs><linearGradient id="icon-b19edb1dcf1542e8__icon-aa2f1d051881ccb3__b" x1="13.8042" y1="10.5299" x2="19.4477" y2="-7.136" gradientUnits="userSpaceOnUse"><stop stop-color="#114A85"/><stop offset="0.382234" stop-color="#028EDB"/></linearGradient><radialGradient id="icon-53bb9542baedda15__icon-86767ebeff1a972f__c" cx="0" cy="0" r="1" gradientUnits="userSpaceOnUse" gradientTransform="translate(29.103 11.4328) rotate(-143.579) scale(13.3133 7.59977)"><stop stop-color="#028EDB"/><stop offset="1" stop-color="#028EDB" stop-opacity="0"/></radialGradient><linearGradient id="icon-517a5975e8122aee__icon-23a6097f0383286b__d" x1="15.4122" y1="22.4528" x2="10.2648" y2="4.94346" gradientUnits="userSpaceOnUse"><stop offset="0.31" stop-color="#0094E5"/><stop offset="1" stop-color="#40D8F9"/></linearGradient><radialGradient id="icon-1de9dbfb9d19d4b8__icon-967848fd70cd508a__e" cx="0" cy="0" r="1" gradientUnits="userSpaceOnUse" gradientTransform="translate(10.4924 6.91213) rotate(85.9657) scale(23.4407 50.6171)"><stop offset="0.226887" stop-color="#0669B6" stop-opacity="0"/><stop offset="0.662942" stop-color="#0669B6"/></radialGradient><linearGradient id="icon-8fbdccd8c76bc37b__icon-6e1afe8621b071c9__f" x1="13.4995" y1="19.3053" x2="-19.4557" y2="-4.15623" gradientUnits="userSpaceOnUse"><stop stop-color="#60E9D0" stop-opacity="0"/><stop offset="1" stop-color="#60E9D0"/></linearGradient><radialGradient id="icon-5576f8ee2d434f16__icon-70d6b53c7fa55529__g" cx="0" cy="0" r="1" gradientUnits="userSpaceOnUse" gradientTransform="translate(13.0458 9.98863) rotate(73.9528) scale(37.0107 93.1415)"><stop offset="0.178148" stop-color="#BDF5FF"/><stop offset="0.472239" stop-color="#40D9FA"/></radialGradient><clipPath id="icon-84a68d538aa61cdc__icon-0c1e214939795d22__a"><rect width="28" height="28" fill="white" transform="translate(2 2)"/></clipPath></defs></svg>