<svg xmlns="http://www.w3.org/2000/svg" width="24" height="24" fill="currentColor"><path d="m14.94 8.99 1.73 2.2c.2.25.43.47.67.68-.2-.45-.38-.95-.56-1.54l-.87-3.07C15.38 5.19 13.34 2 8.72 2c-.46 0-.52.31-.52.42v2.84c2.8.55 5.38 1.93 6.74 3.72v.01ZM22.002 15.78c0-.52-.41-.84-.8-.84H19.84c-.1 0-.2 0-.3-.01-.14 0-.29-.01-.44-.02-.11 0-.22-.02-.33-.03-.15-.01-.3-.03-.46-.05a4.91 4.91 0 0 1-.35-.05c-.16-.02-.33-.05-.5-.08-.12-.02-.24-.04-.37-.07-.18-.04-.37-.08-.56-.13-.13-.03-.25-.06-.38-.1-.22-.06-.45-.13-.69-.21-.12-.04-.23-.07-.35-.11-.36-.12-.74-.26-1.15-.42-.41-.17-.82-.3-1.23-.42-.14-.04-.27-.06-.41-.1-.27-.07-.53-.13-.79-.18-.16-.03-.32-.05-.48-.07-.23-.03-.46-.07-.69-.09-.17-.02-.33-.02-.49-.03-.21-.01-.43-.03-.64-.03h-.11c-.16 0-.32.01-.48.02-.14 0-.28 0-.42.01-.2.01-.4.03-.59.05-.12.01-.25.02-.37.04l-.61.09c-.09.02-.19.03-.28.05-.28.05-.56.11-.81.17-.12.03-.24.06-.36.1-.91.24-1.69.53-2.25.77-.32.14-.56.22-.75.32-.21.11-.25.45-.14.64 1.3 2.27 2.53 4.42 3.03 5.3.13.22.41.31.65.21.35-.15.87-.34 1.48-.49 1.27-.31 2.73-.38 4.11.17 4.79 1.92 8.003 1.806 9.853 1.806.43 0 .81-.36.81-.82V15.77l.01.01ZM8.25 11.27c.29-.02.59-.03.88-.03 1.88 0 3.7.34 5.39 1.03.6.24 1.14.42 1.64.57-.24-.23-.47-.47-.68-.73l-1.73-2.2c-.16-.22-.36-.42-.56-.63a11.443 11.443 0 0 0-.71-.6c-.08-.06-.15-.12-.24-.18-.25-.17-.51-.34-.79-.5-.07-.04-.15-.07-.22-.11a7.13 7.13 0 0 0-.68-.33c-.13-.06-.26-.11-.4-.17-.19-.08-.39-.15-.59-.22-.14-.05-.28-.1-.43-.14A12.19 12.19 0 0 0 5.6 6.5c-.23 0-.42.2-.42.42v4.81c1.01-.25 2.03-.4 3.04-.45l.03-.01Z"/></svg>