<svg width="16" height="16" fill="none" xmlns="http://www.w3.org/2000/svg"><g clip-path="url(#icon-b458e5373a427b09__icon-e30f3c5651c9cad2__a)"><path fill-rule="evenodd" clip-rule="evenodd" d="M5.33325 7.27042C5.33325 7.27042 5.33325 2.73216 5.33325 1.28956C5.33325 1.2095 5.37585 0.994949 5.69911 0.994949C8.93573 0.994949 10.3645 3.22883 10.7354 4.67538L11.3431 6.82784C12.1107 9.41054 13.1804 9.93703 14.3252 10.0484C14.5635 10.0715 14.754 10.2649 14.7529 10.5043L14.7375 13.7648C14.7372 13.8211 14.7468 13.8769 14.7544 13.9327C14.8032 14.2872 14.5271 14.6136 14.1571 14.5858C9.58787 14.242 6.11092 12.0538 5.38896 7.58899L5.33325 7.27042Z" fill="url(#icon-da82586a3f6469b4__icon-db2cb349ac2261ed__b)"/><path fill-rule="evenodd" clip-rule="evenodd" d="M5.33325 7.27042C5.33325 7.27042 5.33325 2.73216 5.33325 1.28956C5.33325 1.2095 5.37585 0.994949 5.69911 0.994949C8.93573 0.994949 10.3645 3.22883 10.7354 4.67538L11.3431 6.82784C12.1107 9.41054 13.1804 9.93703 14.3252 10.0484C14.5635 10.0715 14.754 10.2649 14.7529 10.5043L14.7375 13.7648C14.7372 13.8211 14.7468 13.8769 14.7544 13.9327C14.8032 14.2872 14.5271 14.6136 14.1571 14.5858C9.58787 14.242 6.11092 12.0538 5.38896 7.58899L5.33325 7.27042Z" fill="url(#icon-5de5815ccd0e2ef4__icon-ba0f8f72d50e1469__c)"/><path d="M3.24366 11.2945C3.24366 11.5561 3.45588 11.7682 3.71767 11.7682H5.54321C6.44013 11.7682 7.31514 12.0453 8.04844 12.5614L9.88605 13.8548C11.3322 14.8726 13.2528 14.9082 14.7358 13.9447C14.7665 13.9247 14.7859 13.8914 14.788 13.8549L14.982 10.6646C15.0003 10.3594 14.679 10.062 14.4648 10.0561C13.2167 10.0216 11.4671 9.3851 10.4363 8.07397L9.22564 6.53405C8.20724 5.18522 5.89565 4.14499 3.53512 4.14499C3.37752 4.14499 3.24365 4.28181 3.24365 4.43627L3.24366 11.2945Z" fill="url(#icon-b4a6dab4ee5a16bd__icon-842787bc5f12425b__d)"/><path d="M3.24366 11.2945C3.24366 11.5561 3.45588 11.7682 3.71767 11.7682H5.54321C6.44013 11.7682 7.31514 12.0453 8.04844 12.5614L9.88605 13.8548C11.3322 14.8726 13.2528 14.9082 14.7358 13.9447C14.7665 13.9247 14.7859 13.8914 14.788 13.8549L14.982 10.6646C15.0003 10.3594 14.679 10.062 14.4648 10.0561C13.2167 10.0216 11.4671 9.3851 10.4363 8.07397L9.22564 6.53405C8.20724 5.18522 5.89565 4.14499 3.53512 4.14499C3.37752 4.14499 3.24365 4.28181 3.24365 4.43627L3.24366 11.2945Z" fill="url(#icon-598e265b78a2fa49__icon-2106ca0578cae942__e)"/><path d="M3.24366 11.2945C3.24366 11.5561 3.45588 11.7682 3.71767 11.7682H5.54321C6.44013 11.7682 7.31514 12.0453 8.04844 12.5614L9.88605 13.8548C11.3322 14.8726 13.2528 14.9082 14.7358 13.9447C14.7665 13.9247 14.7859 13.8914 14.788 13.8549L14.982 10.6646C15.0003 10.3594 14.679 10.062 14.4648 10.0561C13.2167 10.0216 11.4671 9.3851 10.4363 8.07397L9.22564 6.53405C8.20724 5.18522 5.89565 4.14499 3.53512 4.14499C3.37752 4.14499 3.24365 4.28181 3.24365 4.43627L3.24366 11.2945Z" fill="url(#icon-dd56a5009825b302__icon-beee40e08e379069__f)"/><path fill-rule="evenodd" clip-rule="evenodd" d="M3.61853 13.9557C3.45203 14.0273 3.25513 13.9692 3.1654 13.8119C2.81367 13.195 1.95473 11.6907 1.04524 10.1C0.967853 9.96465 0.993479 9.72721 1.14294 9.65173C1.27599 9.58453 1.44667 9.52391 1.67007 9.4279C2.11406 9.23708 2.73958 9.00372 3.49338 8.82088C4.97956 8.46039 7.13028 8.25857 9.37088 9.15762C11.7347 10.1061 13.0863 10.053 14.4222 10.053C14.695 10.053 14.9843 10.2783 14.9843 10.6401L14.9858 14.4211C14.9858 14.7427 14.7201 14.9938 14.416 14.9938C13.1211 14.9938 10.8883 15.0777 7.53324 13.7315C6.5667 13.3437 5.54304 13.3956 4.65664 13.6106C4.22414 13.7155 3.86381 13.8503 3.61853 13.9557Z" fill="url(#icon-00f68b508db692d8__icon-f0dc8495d705e592__g)"/></g><defs><linearGradient id="icon-da82586a3f6469b4__icon-db2cb349ac2261ed__b" x1="6.9022" y1="5.26494" x2="9.72397" y2="-3.568" gradientUnits="userSpaceOnUse"><stop stop-color="#114A85"/><stop offset="0.382234" stop-color="#028EDB"/></linearGradient><radialGradient id="icon-5de5815ccd0e2ef4__icon-ba0f8f72d50e1469__c" cx="0" cy="0" r="1" gradientUnits="userSpaceOnUse" gradientTransform="translate(14.5516 5.71642) rotate(-143.579) scale(6.65665 3.79988)"><stop stop-color="#028EDB"/><stop offset="1" stop-color="#028EDB" stop-opacity="0"/></radialGradient><linearGradient id="icon-b4a6dab4ee5a16bd__icon-842787bc5f12425b__d" x1="7.70599" y1="11.2264" x2="5.13225" y2="2.47173" gradientUnits="userSpaceOnUse"><stop offset="0.31" stop-color="#0094E5"/><stop offset="1" stop-color="#40D8F9"/></linearGradient><radialGradient id="icon-598e265b78a2fa49__icon-2106ca0578cae942__e" cx="0" cy="0" r="1" gradientUnits="userSpaceOnUse" gradientTransform="translate(5.24608 3.45607) rotate(85.9657) scale(11.7204 25.3085)"><stop offset="0.226887" stop-color="#0669B6" stop-opacity="0"/><stop offset="0.662942" stop-color="#0669B6"/></radialGradient><linearGradient id="icon-dd56a5009825b302__icon-beee40e08e379069__f" x1="6.74962" y1="9.65267" x2="-9.72798" y2="-2.07811" gradientUnits="userSpaceOnUse"><stop stop-color="#60E9D0" stop-opacity="0"/><stop offset="1" stop-color="#60E9D0"/></linearGradient><radialGradient id="icon-00f68b508db692d8__icon-f0dc8495d705e592__g" cx="0" cy="0" r="1" gradientUnits="userSpaceOnUse" gradientTransform="translate(6.52304 4.99432) rotate(73.9528) scale(18.5053 46.5707)"><stop offset="0.178148" stop-color="#BDF5FF"/><stop offset="0.472239" stop-color="#40D9FA"/></radialGradient><clipPath id="icon-b458e5373a427b09__icon-e30f3c5651c9cad2__a"><rect width="14" height="14" fill="white" transform="translate(1 1)"/></clipPath></defs></svg>