<svg width="48" height="48" fill="none" xmlns="http://www.w3.org/2000/svg"><path fill-rule="evenodd" clip-rule="evenodd" d="M16.373 21.9299C16.373 21.9299 16.373 8.96345 16.373 4.84174C16.373 4.61299 16.4948 4 17.4184 4C26.6658 4 30.7479 10.3825 31.8077 14.5155L33.5441 20.6654C35.7371 28.0445 38.7934 29.5488 42.0642 29.8669C42.7451 29.9331 43.2895 30.4855 43.2862 31.1696L43.2422 40.4853C43.2414 40.6461 43.2688 40.8056 43.2907 40.965C43.43 41.9779 42.6413 42.9105 41.5841 42.831C28.5291 41.8488 18.595 35.5967 16.5322 22.8401L16.373 21.9299Z" fill="url(#icon-e3194cc3a8d38aa1__icon-c501f54055e83f85__a)"/><path fill-rule="evenodd" clip-rule="evenodd" d="M16.373 21.9299C16.373 21.9299 16.373 8.96345 16.373 4.84174C16.373 4.61299 16.4948 4 17.4184 4C26.6658 4 30.7479 10.3825 31.8077 14.5155L33.5441 20.6654C35.7371 28.0445 38.7934 29.5488 42.0642 29.8669C42.7451 29.9331 43.2895 30.4855 43.2862 31.1696L43.2422 40.4853C43.2414 40.6461 43.2688 40.8056 43.2907 40.965C43.43 41.9779 42.6413 42.9105 41.5841 42.831C28.5291 41.8488 18.595 35.5967 16.5322 22.8401L16.373 21.9299Z" fill="url(#icon-da27bf4206508401__icon-cb36c867675bfff9__b)"/><path d="M10.4033 33.4273C10.4033 34.1748 11.0097 34.7808 11.7576 34.7808H16.9735C19.5361 34.7808 22.0361 35.5723 24.1313 37.0469L29.3816 40.7423C33.5136 43.6505 39.0008 43.7523 43.2379 40.9992C43.3256 40.9422 43.3811 40.847 43.3873 40.7426L43.9415 31.6277C43.9936 30.7555 43.0758 29.9059 42.4638 29.889C38.8977 29.7904 33.8988 27.9718 30.9537 24.2258L27.4947 19.826C24.585 15.9722 17.9805 13.0001 11.2361 13.0001C10.7858 13.0001 10.4033 13.391 10.4033 13.8323L10.4033 33.4273Z" fill="url(#icon-cfa84883aa8a6707__icon-3bc46351cf937ccb__c)"/><path d="M10.4033 33.4273C10.4033 34.1748 11.0097 34.7808 11.7576 34.7808H16.9735C19.5361 34.7808 22.0361 35.5723 24.1313 37.0469L29.3816 40.7423C33.5136 43.6505 39.0008 43.7523 43.2379 40.9992C43.3256 40.9422 43.3811 40.847 43.3873 40.7426L43.9415 31.6277C43.9936 30.7555 43.0758 29.9059 42.4638 29.889C38.8977 29.7904 33.8988 27.9718 30.9537 24.2258L27.4947 19.826C24.585 15.9722 17.9805 13.0001 11.2361 13.0001C10.7858 13.0001 10.4033 13.391 10.4033 13.8323L10.4033 33.4273Z" fill="url(#icon-0469de9bf4d339eb__icon-f549caa366554bf1__d)"/><path d="M10.4033 33.4273C10.4033 34.1748 11.0097 34.7808 11.7576 34.7808H16.9735C19.5361 34.7808 22.0361 35.5723 24.1313 37.0469L29.3816 40.7423C33.5136 43.6505 39.0008 43.7523 43.2379 40.9992C43.3256 40.9422 43.3811 40.847 43.3873 40.7426L43.9415 31.6277C43.9936 30.7555 43.0758 29.9059 42.4638 29.889C38.8977 29.7904 33.8988 27.9718 30.9537 24.2258L27.4947 19.826C24.585 15.9722 17.9805 13.0001 11.2361 13.0001C10.7858 13.0001 10.4033 13.391 10.4033 13.8323L10.4033 33.4273Z" fill="url(#icon-be54ae797c510846__icon-b8be8fc7c8cbeaea__e)"/><path fill-rule="evenodd" clip-rule="evenodd" d="M11.4738 41.0308C10.9981 41.2353 10.4356 41.0694 10.1792 40.6198C9.17424 38.8573 6.72015 34.5593 4.12159 30.0144C3.90049 29.6277 3.9737 28.9493 4.40073 28.7337C4.78088 28.5417 5.26855 28.3685 5.90681 28.0941C7.17538 27.5489 8.96255 26.8822 11.1163 26.3598C15.3625 25.3298 21.5074 24.7532 27.9091 27.3219C34.6628 30.0319 38.5732 29.8801 42.3899 29.8801C43.1693 29.8801 43.9961 30.524 43.9961 31.5576L44.0004 42.3606C44.0004 43.2794 43.2412 43.9968 42.3722 43.9968C38.6725 43.9968 32.2445 44.2365 22.6587 40.3902C19.8972 39.2821 16.9725 39.4305 14.4399 40.0448C13.2042 40.3445 12.1746 40.7297 11.4738 41.0308Z" fill="url(#icon-90e365ddc3bafb85__icon-96373ea4a771ca16__f)"/><defs><linearGradient id="icon-e3194cc3a8d38aa1__icon-c501f54055e83f85__a" x1="20.8558" y1="16.2" x2="28.918" y2="-9.037" gradientUnits="userSpaceOnUse"><stop stop-color="#114A85"/><stop offset="0.382234" stop-color="#028EDB"/></linearGradient><radialGradient id="icon-da27bf4206508401__icon-cb36c867675bfff9__b" cx="0" cy="0" r="1" gradientUnits="userSpaceOnUse" gradientTransform="translate(42.7112 17.4899) rotate(-143.579) scale(19.019 10.8568)"><stop stop-color="#028EDB"/><stop offset="1" stop-color="#028EDB" stop-opacity="0"/></radialGradient><linearGradient id="icon-cfa84883aa8a6707__icon-3bc46351cf937ccb__c" x1="23.1528" y1="33.2327" x2="15.7993" y2="8.21937" gradientUnits="userSpaceOnUse"><stop offset="0.31" stop-color="#0094E5"/><stop offset="1" stop-color="#40D8F9"/></linearGradient><radialGradient id="icon-0469de9bf4d339eb__icon-f549caa366554bf1__d" cx="0" cy="0" r="1" gradientUnits="userSpaceOnUse" gradientTransform="translate(16.1245 11.0318) rotate(85.9657) scale(33.4867 72.3101)"><stop offset="0.226887" stop-color="#0669B6" stop-opacity="0"/><stop offset="0.662942" stop-color="#0669B6"/></radialGradient><linearGradient id="icon-be54ae797c510846__icon-b8be8fc7c8cbeaea__e" x1="20.4204" y1="28.7363" x2="-26.6585" y2="-4.78018" gradientUnits="userSpaceOnUse"><stop stop-color="#60E9D0" stop-opacity="0"/><stop offset="1" stop-color="#60E9D0"/></linearGradient><radialGradient id="icon-90e365ddc3bafb85__icon-96373ea4a771ca16__f" cx="0" cy="0" r="1" gradientUnits="userSpaceOnUse" gradientTransform="translate(19.7724 15.4268) rotate(73.9528) scale(52.8724 133.059)"><stop offset="0.178148" stop-color="#BDF5FF"/><stop offset="0.472239" stop-color="#40D9FA"/></radialGradient></defs></svg>