<svg xmlns="http://www.w3.org/2000/svg" width="28" height="28" fill="currentColor"><path d="m17.28 10.57 2.08 2.64c.38.49.84.91 1.34 1.26-.34-.67-.67-1.48-.96-2.47L18.7 8.31C18.06 5.83 15.61 2 10.07 2c-.55 0-.63.37-.63.51v3.71c3.27.65 6.27 2.26 7.85 4.36l-.01-.01ZM26 18.53a.99.99 0 0 0-.96-1.01h-1.63c-.12 0-.24 0-.36-.01-.17 0-.35-.01-.53-.03a2.55 2.55 0 0 1-.26-.018l-.13-.012a9.489 9.489 0 0 0-.188-.018c-.12-.011-.244-.022-.362-.042-.07-.01-.14-.018-.21-.025-.07-.008-.14-.015-.21-.025l-.123-.02c-.155-.023-.32-.049-.477-.08-.083-.017-.164-.03-.246-.044l-.204-.036-.122-.028c-.183-.04-.37-.083-.558-.132a7.24 7.24 0 0 0-.164-.041 18.452 18.452 0 0 1-1.116-.329c-.07-.025-.14-.045-.21-.065-.07-.02-.14-.04-.21-.065-.44-.15-.89-.31-1.38-.51-.49-.2-.99-.36-1.47-.5a5.104 5.104 0 0 0-.347-.085l-.153-.035c-.32-.08-.64-.16-.95-.22-.117-.025-.233-.038-.352-.051-.075-.009-.15-.018-.228-.03-.28-.04-.56-.08-.83-.11a5.975 5.975 0 0 0-.393-.021 20.024 20.024 0 0 1-.445-.02c-.171-.009-.344-.018-.512-.018h-.13c-.183 0-.35.008-.53.017l-.05.003c-.17 0-.34 0-.5.02a200.968 200.968 0 0 0-.71.06c-.14.019-.28.028-.412.038l-.028.002c-.25.03-.49.07-.73.11a3.47 3.47 0 0 1-.17.025 3.47 3.47 0 0 0-.17.025c-.34.06-.66.13-.97.21-1.29.31-2.36.71-3.13 1.04a27.19 27.19 0 0 1-.372.153c-.21.084-.386.156-.528.227-.26.13-.3.54-.17.77.963 1.685 1.891 3.313 2.602 4.559l1.028 1.8c.15.27.49.37.78.25.42-.18 1.04-.41 1.78-.59 1.52-.37 3.27-.46 4.93.21 5.432 2.183 9.181 2.18 11.447 2.172L25.02 26c.52 0 .98-.44.98-.99v-6.48Z"/><path d="M10.55 13.39c-1.53 0-3.08.19-4.63.57l-.02-.01c-.02 0-.07.02-.07.02V7.89c0-.27.23-.5.5-.5 4.05 0 8.01 1.79 9.76 4.1l2.08 2.64c.4.51.88.96 1.38 1.35-.79-.21-1.65-.48-2.64-.88-2-.8-4.14-1.21-6.36-1.21Z"/></svg>