<svg xmlns="http://www.w3.org/2000/svg" width="24" height="24" fill="currentColor"><path fill-rule="evenodd" d="m15.338 10.76-.883-3.13c-.375-1.464-1.716-3.675-4.764-4.069v3.644c1.745.617 3.214 1.588 4.06 2.708l1.73 2.2c.189.24.395.466.615.675a14.303 14.303 0 0 1-.758-2.028Zm5.859 4.18c.39 0 .803.322.803.839l.002 5.406a.82.82 0 0 1-.814.818l-.306.001h-.001c-1.888.006-5.01.012-9.548-1.809-1.38-.554-2.843-.48-4.11-.173a9.438 9.438 0 0 0-1.482.493.51.51 0 0 1-.647-.205c-.503-.881-1.73-3.03-3.03-5.303-.11-.193-.073-.532.14-.64a5.7 5.7 0 0 1 .412-.179c.103-.041.216-.087.341-.14.563-.243 1.33-.533 2.248-.777V6.916c0-.22.192-.416.417-.416.87 0 1.737.1 2.569.28V2.42c0-.114.06-.42.522-.42 4.624 0 6.665 3.191 7.195 5.258l.868 3.075c1.097 3.69 2.647 4.441 4.283 4.6l.138.007Zm-5.79-.754c-.4-.34-.772-.722-1.106-1.146l-1.747-2.223c-.967-1.28-3.247-2.488-5.849-2.76v4.89c2.013-.334 4.589-.355 7.254.714.546.22.971.375 1.448.525Zm5.095 6.319L20.5 16.44c-1.788-.004-3.876-.094-7.1-1.388-2.813-1.129-5.543-.886-7.484-.415-.775.188-1.446.417-1.976.626l2.033 3.56c.27-.09.571-.18.897-.26 1.45-.351 3.255-.47 5.022.239 3.985 1.599 6.774 1.701 8.61 1.702Z"/></svg>