<svg xmlns="http://www.w3.org/2000/svg" width="48" height="48" fill="currentColor"><path fill-rule="evenodd" d="M31.148 21.378c.591 1.99 1.266 3.666 2.038 5.064a13.243 13.243 0 0 1-2.232-2.216l-3.46-4.4c-1.77-2.346-4.912-4.366-8.621-5.587V6.564c6.747.609 9.703 5.415 10.513 8.572l1.762 6.242Zm10.965 8.489c-3.27-.318-6.376-1.823-8.569-9.202l-1.736-6.15C30.748 10.383 26.666 4 17.418 4c-.923 0-1.045.613-1.045.842v8.717A24.31 24.31 0 0 0 11.236 13c-.45 0-.833.391-.833.832v12.71a32.948 32.948 0 0 0-4.496 1.552c-.25.107-.477.2-.683.283-.32.13-.592.24-.823.357-.427.215-.5.894-.28 1.28 2.6 4.545 5.053 8.843 6.058 10.606.257.45.82.615 1.295.41.7-.3 1.73-.686 2.966-.985 2.533-.614 5.457-.763 8.219.345 9.074 3.641 15.322 3.623 19.096 3.61h.615c.87 0 1.629-.71 1.629-1.63l-.002-10.812a1.642 1.642 0 0 0-1.607-1.678 3.55 3.55 0 0 1-.277-.013ZM32.11 28.765a15.932 15.932 0 0 1-3.122-2.994L25.5 21.332c-2.107-2.79-7.064-5.329-12.597-5.766V25.98c4.095-.748 9.454-.886 15.006 1.342a40.783 40.783 0 0 0 4.201 1.443ZM7.154 30.28l4.555 7.974a21.517 21.517 0 0 1 2.142-.64c2.838-.688 6.333-.912 9.739.455 8.428 3.382 14.222 3.45 17.908 3.439l-.001-9.128c-3.668.005-7.856-.065-14.519-2.739-5.755-2.31-11.329-1.81-15.272-.853a30.56 30.56 0 0 0-4.552 1.492Z"/></svg>