<svg width="48" height="48" fill="none" xmlns="http://www.w3.org/2000/svg"><path d="M10.71 16.174H23.966C27.693 16.174 30.807 18.773 31.603 22.253H43.92C43.033 12.026 34.441 4 23.967 4H19.42C18.94 4 18.506 4.193 18.191 4.506L9.47602 13.207C9.16202 13.522 8.96802 13.956 8.96802 14.435C8.96802 15.395 9.74802 16.174 10.71 16.174Z" fill="#73262F"/><path d="M10.71 16.174H23.966C27.693 16.174 30.807 18.773 31.603 22.253H43.92C43.033 12.026 34.441 4 23.967 4H19.42C18.94 4 18.506 4.193 18.191 4.506L9.47602 13.207C9.16202 13.522 8.96802 13.956 8.96802 14.435C8.96802 15.395 9.74802 16.174 10.71 16.174Z" fill="url(#icon-bfc9fcf804ae4b9d__icon-a04e062d6d7eea72__a)"/><path d="M36.573 8.46594C36.656 8.53494 36.738 8.60694 36.816 8.68494C38.177 10.0429 38.177 12.2459 36.816 13.6039L30.592 19.8169C31.36 21.0269 31.806 22.4609 31.806 23.9999C31.806 28.3219 28.296 31.8259 23.967 31.8259C22.173 31.8259 20.525 31.2179 19.204 30.2059L10.599 38.8929C14.145 42.0669 18.829 43.9999 23.966 43.9999C35.031 43.9999 44 35.0459 44 23.9999C44 17.7259 41.101 12.1329 36.573 8.46594Z" fill="url(#icon-edca6ac22cc2f899__icon-70281e9b46d3e3df__b)"/><path d="M28.513 30.35C25.921 32.21 22.448 32.301 19.772 30.618L14.071 36.309C12.71 37.667 12.71 39.87 14.071 41.228C14.342 41.498 14.646 41.715 14.971 41.878C19.189 43.988 23.998 44.518 28.513 43.467V30.35Z" fill="url(#icon-fedac1a2b5f652e4__icon-44f812f139b5138d__c)"/><path d="M14.971 41.8791C13.098 40.9421 11.342 39.6941 9.78003 38.1341C6.36803 34.7271 4.44303 30.3981 4.00703 25.9501C3.94703 24.9891 4.28503 24.0071 5.02103 23.2721C5.70303 22.5911 6.59703 22.2521 7.49103 22.2531H23.957C24.399 22.2551 24.841 22.4251 25.178 22.7621C25.858 23.4411 25.858 24.5421 25.178 25.2221L14.071 36.3101C12.71 37.6681 12.71 39.8711 14.071 41.2291C14.342 41.4991 14.646 41.7161 14.971 41.8791Z" fill="url(#icon-6d0e41ad61a3a700__icon-37d69c000e24dc10__d)"/><path d="M36.816 8.685L36.809 8.679C33.331 5.768 28.861 4 23.966 4H23.041V16.174H23.966C26.755 16.174 29.199 17.63 30.587 19.821L30.592 19.817L36.816 13.604C38.177 12.246 38.177 10.043 36.816 8.685Z" fill="url(#icon-6bbdb5816a1a7d87__icon-43f72acd3c97d42e__e)"/><defs><linearGradient id="icon-bfc9fcf804ae4b9d__icon-a04e062d6d7eea72__a" x1="13.355" y1="6.369" x2="43.156" y2="23.575" gradientUnits="userSpaceOnUse"><stop offset="0.12" stop-color="#F0364C" stop-opacity="0.5"/><stop offset="0.261" stop-color="#F0364C" stop-opacity="0.454"/><stop offset="0.507" stop-color="#F0364C" stop-opacity="0.333"/><stop offset="0.65" stop-color="#F0364C" stop-opacity="0.25"/><stop offset="1" stop-color="#F0364C" stop-opacity="0"/></linearGradient><linearGradient id="icon-edca6ac22cc2f899__icon-70281e9b46d3e3df__b" x1="9.038" y1="34.6069" x2="44.454" y2="21.7169" gradientUnits="userSpaceOnUse"><stop offset="0.166" stop-color="#920B18"/><stop offset="0.55" stop-color="#F0364C"/><stop offset="0.8" stop-color="#FF5C39"/></linearGradient><linearGradient id="icon-fedac1a2b5f652e4__icon-44f812f139b5138d__c" x1="14.241" y1="32.621" x2="29.037" y2="39.52" gradientUnits="userSpaceOnUse"><stop offset="0.114" stop-color="#6E0811" stop-opacity="0.75"/><stop offset="0.699" stop-color="#6E0811" stop-opacity="0"/></linearGradient><linearGradient id="icon-6d0e41ad61a3a700__icon-37d69c000e24dc10__d" x1="4.30003" y1="35.7951" x2="23.156" y2="24.9091" gradientUnits="userSpaceOnUse"><stop stop-color="#920B18"/><stop offset="0.026" stop-color="#A41322"/><stop offset="0.074" stop-color="#BF1F31"/><stop offset="0.126" stop-color="#D5293D"/><stop offset="0.183" stop-color="#E43045"/><stop offset="0.25" stop-color="#ED344A"/><stop offset="0.35" stop-color="#F0364C"/><stop offset="0.75" stop-color="#FF5C39"/></linearGradient><linearGradient id="icon-6bbdb5816a1a7d87__icon-43f72acd3c97d42e__e" x1="21.736" y1="5.555" x2="34.559" y2="16.315" gradientUnits="userSpaceOnUse"><stop offset="0.5" stop-color="#6E0811" stop-opacity="0"/><stop offset="0.581" stop-color="#6E0811" stop-opacity="0.093"/><stop offset="0.72" stop-color="#6E0811" stop-opacity="0.342"/><stop offset="0.899" stop-color="#6E0811" stop-opacity="0.744"/><stop offset="1" stop-color="#6E0811"/></linearGradient></defs></svg>