<svg width="48" height="48" fill="none" xmlns="http://www.w3.org/2000/svg"><path d="M10.732 16.174H23.966C25.971 16.174 27.639 16.881 28.919 17.959L34.106 12.772C34.903 11.974 35.343 10.915 35.343 9.78698C35.343 8.65898 34.904 7.59898 34.106 6.80098C34.034 6.72898 33.951 6.66898 33.872 6.60698C30.931 4.94798 27.546 4.00098 23.966 4.00098H19.427C18.948 4.00098 18.515 4.19398 18.2 4.50698L9.50104 13.207C9.18704 13.522 8.99304 13.956 8.99304 14.435C8.99304 15.395 9.77204 16.174 10.732 16.174Z" fill="black"/><path d="M37.83 9.52795C37.833 9.61495 37.843 9.69995 37.843 9.78695C37.843 11.582 37.144 13.27 35.874 14.54L30.562 19.852C31.363 21.137 31.793 22.606 31.793 24C31.793 28.322 28.289 31.826 23.967 31.826C22.433 31.826 21.008 31.377 19.801 30.613L14.554 35.86C12.98 37.435 12.979 39.998 14.554 41.573C14.609 41.628 14.668 41.677 14.726 41.728C17.42 43.15 20.529 44 23.967 44C35.013 44 43.967 35.046 43.967 24C43.967 18.179 41.589 13.11 37.83 9.52795Z" fill="black"/><path d="M21.558 25.32L21.617 25.26C21.946 24.942 22.152 24.498 22.152 24.004C22.152 23.038 21.369 22.254 20.403 22.254C20.403 22.254 7.66096 22.254 7.51996 22.254C6.51396 22.254 5.73496 22.592 5.05396 23.273C4.31896 24.008 3.98196 24.989 4.04196 25.951C4.47196 30.768 6.94796 35.613 10.891 39.074C10.794 37.283 11.421 35.46 12.786 34.094L21.559 25.321L21.558 25.32Z" fill="black"/></svg>