<svg width="32" height="32" fill="none" xmlns="http://www.w3.org/2000/svg"><path d="M26.666 6.97006C26.373 6.62506 26.059 6.29806 25.734 5.98206C25.718 7.26106 25.218 8.46206 24.311 9.36806L20.611 13.0681L20.614 13.0721C21.152 13.9191 21.463 14.9231 21.463 16.0001C21.463 19.0261 19.006 21.4781 15.975 21.4781C14.899 21.4781 13.909 21.1521 13.062 20.6171L9.27397 24.4051C8.21597 25.4631 8.21597 27.1841 9.27397 28.2421C9.32397 28.2921 9.37997 28.3341 9.43597 28.3741C11.39 29.4061 13.611 30.0001 15.975 30.0001C23.72 30.0001 29.999 23.7321 29.999 16.0001C29.999 12.5521 28.737 9.40906 26.666 6.97006Z" fill="black"/><path d="M6.69705 10.522H15.9761C17.2081 10.522 18.3411 10.921 19.2531 11.6L22.897 7.95595C23.44 7.41295 23.7401 6.68995 23.7401 5.92195C23.7401 5.15395 23.441 4.43095 22.897 3.88795C22.862 3.85295 22.8221 3.82495 22.7821 3.79595C20.7651 2.66595 18.4521 2.00195 15.9761 2.00195H12.7931C12.4571 2.00195 12.153 2.13695 11.9331 2.35695L5.83305 8.44695C5.61305 8.66695 5.47705 8.97095 5.47705 9.30695C5.47705 9.97895 6.02305 10.524 6.69605 10.524L6.69705 10.522Z" fill="black"/><path d="M13.059 14.777C9.64401 14.777 4.43901 14.777 4.43901 14.777C3.81501 14.777 3.19101 15.015 2.71401 15.49C2.19901 16.004 1.96201 16.691 2.00401 17.364C2.31001 20.477 3.65701 23.508 6.04501 25.893C6.21501 26.063 6.33601 26.174 6.48301 26.305C6.48801 25.104 6.94501 23.905 7.86001 22.991L13.93 16.921C14.162 16.694 14.308 16.377 14.308 16.027C14.308 15.337 13.748 14.777 13.058 14.777H13.059Z" fill="black"/></svg>