<svg width="16" height="16" fill="none" xmlns="http://www.w3.org/2000/svg"><path d="M13.333 3.485C12.048 1.971 10.132 1 7.98801 1H6.39701C6.22901 1 6.07701 1.068 5.96701 1.177L2.91701 4.222C2.80701 4.332 2.73901 4.484 2.73901 4.652C2.73901 4.988 3.01201 5.261 3.34901 5.261H7.98801C8.96801 5.261 9.82201 5.764 10.307 6.536C10.576 6.959 10.732 7.461 10.732 8C10.732 9.513 9.50401 10.739 7.98801 10.739C7.44901 10.739 6.95301 10.575 6.52901 10.307L8.41201 8.427C8.65001 8.189 8.65001 7.804 8.41201 7.566C8.29401 7.448 8.13901 7.389 7.98501 7.388H2.21901C1.90701 7.388 1.59501 7.507 1.35701 7.745C1.09901 8.002 0.981013 8.346 1.00201 8.682C1.15501 10.239 1.82801 11.754 3.02301 12.946C3.16401 13.087 3.28501 13.188 3.43401 13.314C4.66001 14.362 6.24801 14.999 7.98801 14.999C11.861 14.999 15 11.865 15 7.999C15 6.275 14.368 4.705 13.333 3.485ZM4.29401 4.261L6.55801 2H7.98801C9.01601 2 10.01 2.272 10.891 2.762C10.907 2.774 10.925 2.785 10.938 2.798C11.398 3.258 11.398 4.008 10.938 4.468L10.324 5.082C9.67201 4.56 8.85801 4.261 7.98801 4.261H4.29401ZM2.00101 8.62C1.99901 8.584 2.00401 8.513 2.06401 8.453C2.11701 8.4 2.17801 8.389 2.22401 8.389C2.27101 8.389 5.38001 8.389 7.01001 8.389L4.52101 10.878C4.10701 11.292 3.89801 11.833 3.88701 12.376C3.74301 12.241 3.58901 12.095 3.50201 11.998C2.65301 11.051 2.12301 9.854 2.00101 8.62ZM7.98901 14C7.09501 14 6.23101 13.78 5.43701 13.406C5.36501 13.36 5.29001 13.317 5.22801 13.255C4.76801 12.795 4.76801 12.045 5.22801 11.585L5.79401 11.019C6.43801 11.487 7.19201 11.74 7.98801 11.74C10.052 11.74 11.732 10.063 11.732 8.001C11.732 7.291 11.531 6.599 11.154 6.005C11.111 5.936 11.06 5.874 11.012 5.808L11.645 5.175C12.025 4.795 12.225 4.308 12.266 3.811C12.369 3.916 12.474 4.019 12.571 4.133C13.493 5.218 14 6.592 14 8C14 11.308 11.304 14 7.98901 14Z" fill="black"/></svg>