<svg width="24" height="24" fill="none" xmlns="http://www.w3.org/2000/svg"><path d="M5.35501 8.08698H11.983C12.842 8.08698 13.633 8.35998 14.276 8.82398L16.154 6.94598C16.685 6.41498 16.978 5.70898 16.978 4.95798C16.978 4.20698 16.685 3.50098 16.154 2.96998C16.104 2.91898 16.043 2.88598 15.982 2.85098C14.756 2.31198 13.407 2.00098 11.982 2.00098H9.70901C9.46901 2.00098 9.25201 2.09798 9.09501 2.25398L4.73801 6.60298C4.58101 6.75998 4.48401 6.97698 4.48401 7.21698C4.48401 7.69698 4.87401 8.08698 5.35501 8.08698Z" fill="black"/><path d="M19.618 5.55C19.256 5.123 18.849 4.737 18.421 4.375C18.447 4.567 18.478 4.759 18.478 4.956C18.478 6.108 18.029 7.19 17.214 8.005L15.301 9.918C15.681 10.521 15.902 11.234 15.902 11.999C15.902 14.16 14.147 15.912 11.982 15.912C11.219 15.912 10.516 15.681 9.91498 15.304L7.29798 17.921C6.52698 18.692 6.52698 19.949 7.29798 20.721C7.43998 20.862 7.59998 20.973 7.77498 21.065C9.05498 21.66 10.478 21.999 11.983 21.999C17.515 21.999 22 17.522 22 11.999C22 9.536 21.098 7.291 19.618 5.549V5.55Z" fill="black"/><path d="M10.161 11.127C7.74003 11.127 3.74303 11.127 3.74203 11.127C3.29603 11.127 2.85003 11.297 2.51003 11.636C2.14203 12.003 1.97303 12.494 2.00303 12.975C2.22103 15.199 3.18303 17.364 4.89003 19.067C5.00103 19.177 5.11403 19.275 5.22703 19.374C5.21303 18.465 5.54703 17.552 6.23803 16.861L10.69 12.409C10.825 12.273 10.911 12.083 10.911 11.876C10.911 11.462 10.575 11.127 10.161 11.127Z" fill="black"/></svg>