<svg width="28" height="28" fill="none" xmlns="http://www.w3.org/2000/svg"><path d="M6.02596 9.304H13.98C16.216 9.304 18.084 10.864 18.562 12.952H25.952C25.42 6.816 20.265 2 13.98 2H11.252C10.964 2 10.704 2.116 10.515 2.304L5.28596 7.524C5.09796 7.713 4.98096 7.973 4.98096 8.261C4.98096 8.837 5.44896 9.304 6.02596 9.304Z" fill="#73262F"/><path d="M6.02596 9.304H13.98C16.216 9.304 18.084 10.864 18.562 12.952H25.952C25.42 6.816 20.265 2 13.98 2H11.252C10.964 2 10.704 2.116 10.515 2.304L5.28596 7.524C5.09796 7.713 4.98096 7.973 4.98096 8.261C4.98096 8.837 5.44896 9.304 6.02596 9.304Z" fill="url(#icon-04c17cc15fdbdd04__icon-1fb10f211a30a6e5__a)"/><path d="M21.544 4.67902C21.594 4.72002 21.643 4.76402 21.69 4.81102C22.506 5.62602 22.506 6.94702 21.69 7.76202L17.956 11.49C18.417 12.216 18.684 13.076 18.684 14C18.684 16.593 16.578 18.696 13.98 18.696C12.904 18.696 11.915 18.331 11.122 17.724L5.95898 22.936C8.08698 24.84 10.897 26 13.979 26C20.618 26 26 20.627 26 14C26 10.236 24.261 6.88002 21.544 4.67902Z" fill="url(#icon-6d977d2f5880d3fc__icon-e04eefec1c8a4a71__b)"/><path d="M16.708 17.81C15.153 18.926 13.069 18.981 11.464 17.971L8.04303 21.386C7.22703 22.201 7.22703 23.522 8.04303 24.337C8.20603 24.499 8.38803 24.629 8.58303 24.727C11.114 25.993 13.999 26.311 16.708 25.68V17.81Z" fill="url(#icon-798bdd758481e857__icon-abc6cd85e774ae56__c)"/><path d="M8.58295 24.727C7.45895 24.165 6.40595 23.416 5.46795 22.48C3.42095 20.436 2.26595 17.838 2.00395 15.17C1.96795 14.593 2.17095 14.004 2.61195 13.563C3.02095 13.154 3.55795 12.951 4.09395 12.952H13.9739C14.2389 12.953 14.5039 13.055 14.7069 13.257C15.1149 13.665 15.1149 14.325 14.7069 14.733L8.04295 21.386C7.22695 22.201 7.22695 23.522 8.04295 24.337C8.20595 24.499 8.38795 24.629 8.58295 24.727Z" fill="url(#icon-af487e741cf31984__icon-c668441749b8c14f__d)"/><path d="M21.6889 4.811L21.6849 4.807C19.5979 3.061 16.916 2 13.979 2H13.424V9.304H13.979C15.653 9.304 17.119 10.178 17.952 11.492L17.955 11.49L21.6889 7.762C22.5049 6.947 22.5049 5.626 21.6889 4.811Z" fill="url(#icon-ba2800b2d5d595bb__icon-1375712b2898336f__e)"/><defs><linearGradient id="icon-04c17cc15fdbdd04__icon-1fb10f211a30a6e5__a" x1="7.61296" y1="3.422" x2="25.494" y2="13.745" gradientUnits="userSpaceOnUse"><stop offset="0.12" stop-color="#F0364C" stop-opacity="0.5"/><stop offset="0.261" stop-color="#F0364C" stop-opacity="0.454"/><stop offset="0.507" stop-color="#F0364C" stop-opacity="0.333"/><stop offset="0.65" stop-color="#F0364C" stop-opacity="0.25"/><stop offset="1" stop-color="#F0364C" stop-opacity="0"/></linearGradient><linearGradient id="icon-6d977d2f5880d3fc__icon-e04eefec1c8a4a71__b" x1="5.02298" y1="20.364" x2="26.272" y2="12.63" gradientUnits="userSpaceOnUse"><stop offset="0.166" stop-color="#920B18"/><stop offset="0.55" stop-color="#F0364C"/><stop offset="0.8" stop-color="#FF5C39"/></linearGradient><linearGradient id="icon-798bdd758481e857__icon-abc6cd85e774ae56__c" x1="8.14403" y1="19.172" x2="17.022" y2="23.312" gradientUnits="userSpaceOnUse"><stop offset="0.114" stop-color="#6E0811" stop-opacity="0.75"/><stop offset="0.699" stop-color="#6E0811" stop-opacity="0"/></linearGradient><linearGradient id="icon-af487e741cf31984__icon-c668441749b8c14f__d" x1="2.17995" y1="21.077" x2="13.4939" y2="14.545" gradientUnits="userSpaceOnUse"><stop stop-color="#920B18"/><stop offset="0.026" stop-color="#A41322"/><stop offset="0.074" stop-color="#BF1F31"/><stop offset="0.126" stop-color="#D5293D"/><stop offset="0.183" stop-color="#E43045"/><stop offset="0.25" stop-color="#ED344A"/><stop offset="0.35" stop-color="#F0364C"/><stop offset="0.75" stop-color="#FF5C39"/></linearGradient><linearGradient id="icon-ba2800b2d5d595bb__icon-1375712b2898336f__e" x1="12.641" y1="2.933" x2="20.3349" y2="9.389" gradientUnits="userSpaceOnUse"><stop offset="0.5" stop-color="#6E0811" stop-opacity="0"/><stop offset="0.581" stop-color="#6E0811" stop-opacity="0.093"/><stop offset="0.72" stop-color="#6E0811" stop-opacity="0.342"/><stop offset="0.899" stop-color="#6E0811" stop-opacity="0.744"/><stop offset="1" stop-color="#6E0811"/></linearGradient></defs></svg>