<svg xmlns="http://www.w3.org/2000/svg" width="16" height="16" fill="currentColor"><path d="M13.333 3.485a7.072 7.072 0 0 0-1.089-1.036 3.21 3.21 0 0 1-.847 3.013l-1.084 1.084a2.741 2.741 0 0 1-2.325 4.193 2.715 2.715 0 0 1-1.445-.424l-1.597 1.597a1.611 1.611 0 0 0 0 2.277c.117.117.252.21.397.286A6.944 6.944 0 0 0 7.988 15C11.861 15 15 11.866 15 8a6.953 6.953 0 0 0-1.667-4.515Z"/><path d="M3.348 5.261h4.64c.62 0 1.177.218 1.634.561l1.067-1.067a2.227 2.227 0 0 0 0-3.142 1.166 1.166 0 0 0-.14-.116A6.923 6.923 0 0 0 7.988 1H6.397a.61.61 0 0 0-.43.177l-3.05 3.045a.609.609 0 0 0 .431 1.039ZM6.849 7.389h-4.63c-.312 0-.624.119-.862.357a1.212 1.212 0 0 0-.355.937 6.964 6.964 0 0 0 2.021 4.264c.141.14.262.242.411.368.023.02.049.037.073.057a2.6 2.6 0 0 1 .732-2.167l2.96-2.96a.5.5 0 0 0-.35-.856Z"/></svg>