<svg width="20" height="20" fill="none" xmlns="http://www.w3.org/2000/svg"><path d="M4.68406 6.86998H9.98606C11.4771 6.86998 12.7221 7.90998 13.0411 9.30198H17.9681C17.6131 5.21098 14.1761 2.00098 9.98706 2.00098H8.16806C7.97606 2.00098 7.80206 2.07798 7.67606 2.20398L4.19006 5.68398C4.06406 5.80998 3.98706 5.98298 3.98706 6.17498C3.98706 6.55898 4.29906 6.86998 4.68406 6.86998Z" fill="#73262F"/><path d="M4.68406 6.86998H9.98606C11.4771 6.86998 12.7221 7.90998 13.0411 9.30198H17.9681C17.6131 5.21098 14.1761 2.00098 9.98706 2.00098H8.16806C7.97606 2.00098 7.80206 2.07798 7.67606 2.20398L4.19006 5.68398C4.06406 5.80998 3.98706 5.98298 3.98706 6.17498C3.98706 6.55898 4.29906 6.86998 4.68406 6.86998Z" fill="url(#icon-04bfd495536fe8fc__icon-38a1cfba543388f3__a)"/><path d="M15.0289 3.78601C15.0619 3.81401 15.0949 3.84301 15.1259 3.87401C15.6699 4.41701 15.6699 5.29801 15.1259 5.84201L12.6359 8.32701C12.9429 8.81101 13.1209 9.38501 13.1209 10C13.1209 11.729 11.7169 13.13 9.98494 13.13C9.26794 13.13 8.60794 12.887 8.07994 12.482L4.63794 15.957C6.05594 17.227 7.92994 18 9.98494 18C14.4109 18 17.9989 14.418 17.9989 10C17.9989 7.49001 16.8389 5.25301 15.0279 3.78601H15.0289Z" fill="url(#icon-0513a84ff2e36989__icon-f18e3df1336a082d__b)"/><path d="M11.805 12.54C10.768 13.284 9.37897 13.321 8.30897 12.647L6.02897 14.924C5.48497 15.467 5.48497 16.348 6.02897 16.892C6.13697 17 6.25897 17.087 6.38897 17.152C8.07597 17.996 9.99997 18.208 11.806 17.788V12.541L11.805 12.54Z" fill="url(#icon-1dd1ddec8f74a974__icon-6c51d5296786cb97__c)"/><path d="M6.38796 17.151C5.63896 16.776 4.93696 16.277 4.31196 15.653C2.94696 14.29 2.17696 12.558 2.00296 10.779C1.97896 10.394 2.11396 10.002 2.40796 9.70805C2.68096 9.43605 3.03896 9.30005 3.39596 9.30005H9.98296C10.16 9.30005 10.336 9.36905 10.471 9.50305C10.743 9.77505 10.743 10.215 10.471 10.487L6.02796 14.922C5.48396 15.465 5.48396 16.346 6.02796 16.89C6.13596 16.998 6.25796 17.086 6.38796 17.151Z" fill="url(#icon-055186044e7ba2a3__icon-76e55dac04fe4f6a__d)"/><path d="M15.126 3.874L15.123 3.871C13.732 2.707 11.944 2 9.98597 2H9.61597V6.87H9.98597C11.102 6.87 12.079 7.453 12.635 8.329L12.637 8.327L15.127 5.842C15.671 5.299 15.67 4.418 15.126 3.874Z" fill="url(#icon-d95a250d54a400ba__icon-8452cdc19af516eb__e)"/><defs><linearGradient id="icon-04bfd495536fe8fc__icon-38a1cfba543388f3__a" x1="5.74206" y1="2.94798" x2="17.6621" y2="9.82998" gradientUnits="userSpaceOnUse"><stop offset="0.12" stop-color="#F0364C" stop-opacity="0.5"/><stop offset="0.261" stop-color="#F0364C" stop-opacity="0.454"/><stop offset="0.507" stop-color="#F0364C" stop-opacity="0.333"/><stop offset="0.65" stop-color="#F0364C" stop-opacity="0.25"/><stop offset="1" stop-color="#F0364C" stop-opacity="0"/></linearGradient><linearGradient id="icon-0513a84ff2e36989__icon-f18e3df1336a082d__b" x1="4.01494" y1="14.243" x2="18.1819" y2="9.08701" gradientUnits="userSpaceOnUse"><stop offset="0.166" stop-color="#920B18"/><stop offset="0.55" stop-color="#F0364C"/><stop offset="0.8" stop-color="#FF5C39"/></linearGradient><linearGradient id="icon-1dd1ddec8f74a974__icon-6c51d5296786cb97__c" x1="6.09597" y1="13.448" x2="12.015" y2="16.208" gradientUnits="userSpaceOnUse"><stop offset="0.114" stop-color="#6E0811" stop-opacity="0.75"/><stop offset="0.699" stop-color="#6E0811" stop-opacity="0"/></linearGradient><linearGradient id="icon-055186044e7ba2a3__icon-76e55dac04fe4f6a__d" x1="2.11996" y1="14.718" x2="9.66196" y2="10.364" gradientUnits="userSpaceOnUse"><stop stop-color="#920B18"/><stop offset="0.026" stop-color="#A41322"/><stop offset="0.074" stop-color="#BF1F31"/><stop offset="0.126" stop-color="#D5293D"/><stop offset="0.183" stop-color="#E43045"/><stop offset="0.25" stop-color="#ED344A"/><stop offset="0.35" stop-color="#F0364C"/><stop offset="0.75" stop-color="#FF5C39"/></linearGradient><linearGradient id="icon-d95a250d54a400ba__icon-8452cdc19af516eb__e" x1="9.09397" y1="2.622" x2="14.224" y2="6.926" gradientUnits="userSpaceOnUse"><stop offset="0.5" stop-color="#6E0811" stop-opacity="0"/><stop offset="0.581" stop-color="#6E0811" stop-opacity="0.093"/><stop offset="0.72" stop-color="#6E0811" stop-opacity="0.342"/><stop offset="0.899" stop-color="#6E0811" stop-opacity="0.744"/><stop offset="1" stop-color="#6E0811"/></linearGradient></defs></svg>