<svg width="16" height="16" fill="none" xmlns="http://www.w3.org/2000/svg"><path d="M3.34801 5.261H7.98801C9.29301 5.261 10.382 6.171 10.661 7.389H14.972C14.662 3.81 11.654 1 7.98801 1H6.39701C6.22901 1 6.07701 1.068 5.96701 1.177L2.91701 4.222C2.80701 4.332 2.73901 4.484 2.73901 4.652C2.73901 4.988 3.01101 5.261 3.34801 5.261Z" fill="#73262F"/><path d="M3.34801 5.261H7.98801C9.29301 5.261 10.382 6.171 10.661 7.389H14.972C14.662 3.81 11.654 1 7.98801 1H6.39701C6.22901 1 6.07701 1.068 5.96701 1.177L2.91701 4.222C2.80701 4.332 2.73901 4.484 2.73901 4.652C2.73901 4.988 3.01101 5.261 3.34801 5.261Z" fill="url(#icon-2e8b0721a3e12dfb__icon-298fc0bdb0b8695e__a)"/><path d="M12.4011 2.56299C12.4301 2.58699 12.4591 2.61199 12.4861 2.63999C12.9621 3.11499 12.9621 3.88599 12.4861 4.36199L10.3081 6.53699C10.5771 6.95999 10.7331 7.46199 10.7331 8.00099C10.7331 9.51399 9.50506 10.74 7.98906 10.74C7.36106 10.74 6.78406 10.527 6.32206 10.173L3.31006 13.214C4.55106 14.325 6.19006 15.001 7.98906 15.001C11.8621 15.001 15.0011 11.867 15.0011 8.00099C15.0011 5.80499 13.9861 3.84699 12.4021 2.56399L12.4011 2.56299Z" fill="url(#icon-6e831c2175fd8608__icon-6aa12dd0e35d81b5__b)"/><path d="M9.57995 10.223C8.67295 10.874 7.45695 10.906 6.52095 10.317L4.52595 12.309C4.04995 12.784 4.04995 13.555 4.52595 14.031C4.62095 14.126 4.72695 14.201 4.84095 14.258C6.31695 14.997 7.99995 15.182 9.58095 14.814V10.223H9.57995Z" fill="url(#icon-7711fd62aa424ed5__icon-07071e0522d56a86__c)"/><path d="M4.84001 14.258C4.18501 13.93 3.57001 13.493 3.02301 12.947C1.82901 11.755 1.15501 10.239 1.00201 8.68304C0.981013 8.34704 1.09901 8.00304 1.35701 7.74604C1.59601 7.50804 1.90901 7.38904 2.22201 7.38904H7.98501C8.14001 7.38904 8.29401 7.44904 8.41201 7.56704C8.65001 7.80504 8.65001 8.19004 8.41201 8.42804L4.52401 12.309C4.04801 12.784 4.04801 13.555 4.52401 14.031C4.61901 14.126 4.72601 14.201 4.84001 14.258Z" fill="url(#icon-277be34563ba7bc3__icon-524e673f5be0858c__d)"/><path d="M12.4851 2.64L12.4831 2.638C11.2661 1.619 9.70106 1 7.98806 1H7.66406V5.261H7.98806C8.96406 5.261 9.82006 5.771 10.3051 6.538H10.3071L12.4851 4.362C12.9611 3.887 12.9611 3.116 12.4851 2.64Z" fill="url(#icon-18433fb551a82c31__icon-4e0a81cc4c7b1fc6__e)"/><defs><linearGradient id="icon-2e8b0721a3e12dfb__icon-298fc0bdb0b8695e__a" x1="4.27401" y1="1.829" x2="14.705" y2="7.851" gradientUnits="userSpaceOnUse"><stop offset="0.12" stop-color="#F0364C" stop-opacity="0.5"/><stop offset="0.261" stop-color="#F0364C" stop-opacity="0.454"/><stop offset="0.507" stop-color="#F0364C" stop-opacity="0.333"/><stop offset="0.65" stop-color="#F0364C" stop-opacity="0.25"/><stop offset="1" stop-color="#F0364C" stop-opacity="0"/></linearGradient><linearGradient id="icon-6e831c2175fd8608__icon-6aa12dd0e35d81b5__b" x1="2.76306" y1="11.713" x2="15.1591" y2="7.20099" gradientUnits="userSpaceOnUse"><stop offset="0.166" stop-color="#920B18"/><stop offset="0.55" stop-color="#F0364C"/><stop offset="0.8" stop-color="#FF5C39"/></linearGradient><linearGradient id="icon-7711fd62aa424ed5__icon-07071e0522d56a86__c" x1="4.58395" y1="11.017" x2="9.76295" y2="13.432" gradientUnits="userSpaceOnUse"><stop offset="0.114" stop-color="#6E0811" stop-opacity="0.75"/><stop offset="0.699" stop-color="#6E0811" stop-opacity="0"/></linearGradient><linearGradient id="icon-277be34563ba7bc3__icon-524e673f5be0858c__d" x1="1.10501" y1="12.128" x2="7.70501" y2="8.31804" gradientUnits="userSpaceOnUse"><stop stop-color="#920B18"/><stop offset="0.026" stop-color="#A41322"/><stop offset="0.074" stop-color="#BF1F31"/><stop offset="0.126" stop-color="#D5293D"/><stop offset="0.183" stop-color="#E43045"/><stop offset="0.25" stop-color="#ED344A"/><stop offset="0.35" stop-color="#F0364C"/><stop offset="0.75" stop-color="#FF5C39"/></linearGradient><linearGradient id="icon-18433fb551a82c31__icon-4e0a81cc4c7b1fc6__e" x1="7.20806" y1="1.544" x2="11.6961" y2="5.31" gradientUnits="userSpaceOnUse"><stop offset="0.5" stop-color="#6E0811" stop-opacity="0"/><stop offset="0.581" stop-color="#6E0811" stop-opacity="0.093"/><stop offset="0.72" stop-color="#6E0811" stop-opacity="0.342"/><stop offset="0.899" stop-color="#6E0811" stop-opacity="0.744"/><stop offset="1" stop-color="#6E0811"/></linearGradient></defs></svg>