<svg width="28" height="28" fill="none" xmlns="http://www.w3.org/2000/svg"><path d="M23.1421 6.26C20.9381 3.665 17.6551 2 13.9801 2H11.2521C10.9641 2 10.7041 2.116 10.5151 2.304L5.28606 7.524C5.09706 7.713 4.98106 7.973 4.98106 8.261C4.98106 8.837 5.44906 9.304 6.02606 9.304H13.9801C15.6601 9.304 17.1251 10.167 17.9561 11.49C18.4171 12.216 18.6841 13.076 18.6841 14C18.6841 16.593 16.5781 18.696 13.9801 18.696C13.0561 18.696 12.2061 18.415 11.4801 17.956L14.7081 14.734C15.1161 14.327 15.1161 13.666 14.7081 13.258C14.5061 13.056 14.2411 12.954 13.9751 12.953H4.09106C3.55606 12.953 3.02106 13.157 2.61306 13.564C2.17106 14.005 1.96906 14.594 2.00506 15.171C2.26706 17.84 3.42206 20.437 5.46906 22.481C5.63406 22.645 5.78806 22.784 5.96006 22.937C8.08806 24.841 10.8981 26.001 13.9801 26.001C20.6191 26.001 26.0011 20.628 26.0011 14.001C26.0011 11.046 24.9181 8.352 23.1431 6.261L23.1421 6.26ZM13.9801 7.804H7.12806L11.4391 3.5H13.9791C16.0181 3.5 17.9801 4.106 19.6621 5.194C19.6771 5.206 19.6931 5.217 19.7071 5.231C20.0251 5.549 20.2011 5.972 20.2011 6.422C20.2011 6.872 20.0251 7.295 19.7071 7.613L18.0181 9.302C16.9131 8.35 15.4971 7.804 13.9801 7.804ZM3.50006 15.057C3.49706 14.954 3.51906 14.778 3.67206 14.625C3.82306 14.475 3.99906 14.452 4.09706 14.452C4.18006 14.452 10.2591 14.452 12.8371 14.452L7.69706 19.592C7.14006 20.149 6.82706 20.879 6.78206 21.659C6.58806 21.464 6.37806 21.253 6.32906 21.214C4.73506 19.533 3.73406 17.359 3.50006 15.056V15.057ZM13.9791 24.5C12.2761 24.5 10.6221 24.081 9.13706 23.311C8.99906 23.235 8.86906 23.148 8.75706 23.036C8.43906 22.718 8.26406 22.295 8.26406 21.845C8.26406 21.395 8.43906 20.972 8.75706 20.654L10.3831 19.028C11.4421 19.786 12.6761 20.197 13.9791 20.197C17.4001 20.197 20.1831 17.418 20.1831 14.001C20.1831 12.824 19.8501 11.678 19.2251 10.694C19.1641 10.597 19.0911 10.51 19.0251 10.417L20.7671 8.675C21.2611 8.181 21.5611 7.551 21.6571 6.871C21.7701 6.992 21.8911 7.105 21.9991 7.232C23.6121 9.131 24.5001 11.535 24.5001 14.001C24.5001 19.791 19.7811 24.5 13.9791 24.5Z" fill="black"/></svg>