<svg width="20" height="20" fill="none" xmlns="http://www.w3.org/2000/svg"><path d="M4.68396 6.86995H9.98596C10.749 6.86995 11.434 7.15195 11.976 7.60195L13.216 6.36195C14.21 5.36795 14.21 3.75195 13.216 2.75795C13.168 2.70995 13.118 2.66795 13.061 2.62995C12.113 2.23195 11.078 2.00195 9.98596 2.00195H8.16696C7.97496 2.00195 7.80096 2.07895 7.67496 2.20495L4.18896 5.68495C4.06296 5.81095 3.98596 5.98395 3.98596 6.17595C3.98596 6.55995 4.29796 6.87195 4.68296 6.87195L4.68396 6.86995Z" fill="black"/><path d="M16.095 4.83994C15.717 4.39494 15.29 3.99294 14.824 3.63794C15.142 4.82394 14.852 6.13894 13.923 7.06794L12.647 8.34394C12.948 8.82394 13.123 9.39094 13.123 9.99894C13.123 11.7279 11.719 13.1289 9.98704 13.1289C9.38004 13.1289 8.82204 12.9459 8.34304 12.6479L6.61104 14.3799C6.24604 14.7449 6.04504 15.2309 6.04504 15.7459C6.04504 16.2609 6.24604 16.7469 6.61104 17.1119C6.75604 17.2579 6.92804 17.3729 7.11104 17.4659C8.00404 17.8089 8.97304 17.9989 9.98704 17.9989C14.413 17.9989 18.001 14.4169 18.001 9.99894C18.001 8.02894 17.279 6.23294 16.096 4.83894L16.095 4.83994Z" fill="black"/><path d="M8.99601 10.581C9.13001 10.445 9.21601 10.257 9.21601 10.051C9.21601 9.63703 8.88001 9.30103 8.46601 9.30103C6.52301 9.30103 3.39501 9.30103 3.39401 9.30103C3.03701 9.30103 2.68101 9.43703 2.40901 9.70803C2.11501 10.002 1.97901 10.395 2.00401 10.779C2.17901 12.558 2.94801 14.29 4.31301 15.653C4.43001 15.769 4.51901 15.849 4.64001 15.957C4.78901 16.091 4.94601 16.216 5.10501 16.338C5.06601 16.145 5.04401 15.948 5.04401 15.747C5.04401 14.964 5.35001 14.227 5.90301 13.674L8.99601 10.581Z" fill="black"/></svg>