<svg width="24" height="24" fill="none" xmlns="http://www.w3.org/2000/svg"><path d="M5.35501 8.087H11.983C13.847 8.087 15.403 9.387 15.801 11.127H21.959C21.515 6.013 17.22 2 11.982 2H9.70901C9.46901 2 9.25201 2.097 9.09501 2.253L4.73801 6.603C4.58101 6.76 4.48401 6.977 4.48401 7.217C4.48401 7.697 4.87401 8.087 5.35501 8.087Z" fill="#73262F"/><path d="M5.35501 8.087H11.983C13.847 8.087 15.403 9.387 15.801 11.127H21.959C21.515 6.013 17.22 2 11.982 2H9.70901C9.46901 2 9.25201 2.097 9.09501 2.253L4.73801 6.603C4.58101 6.76 4.48401 6.977 4.48401 7.217C4.48401 7.697 4.87401 8.087 5.35501 8.087Z" fill="url(#icon-5b7dcef21b5e7fa8__icon-7bbab515d59fb758__a)"/><path d="M18.287 4.23297C18.329 4.26697 18.3691 4.30397 18.408 4.34297C19.088 5.02197 19.088 6.12297 18.408 6.80297L15.296 9.90997C15.68 10.515 15.903 11.232 15.903 12.001C15.903 14.162 14.148 15.914 11.983 15.914C11.086 15.914 10.262 15.61 9.60205 15.104L5.30005 19.448C7.07305 21.035 9.41505 22.001 11.984 22.001C17.516 22.001 22.001 17.524 22.001 12.001C22.001 8.86397 20.552 6.06697 18.288 4.23397L18.287 4.23297Z" fill="url(#icon-9a09ffd76cd32bbf__icon-4903005d359e7323__b)"/><path d="M14.257 15.175C12.961 16.105 11.225 16.151 9.887 15.309L7.036 18.155C6.356 18.834 6.356 19.935 7.036 20.615C7.171 20.75 7.324 20.859 7.486 20.94C9.595 21.995 12 22.26 14.257 21.735V15.175Z" fill="url(#icon-d1e592abf1ae2d48__icon-9943088d81112181__c)"/><path d="M7.48603 20.939C6.55003 20.471 5.67203 19.847 4.89003 19.067C3.18403 17.364 2.22203 15.199 2.00303 12.975C1.97303 12.494 2.14203 12.003 2.51003 11.636C2.85103 11.296 3.29803 11.126 3.74503 11.127H11.979C12.2 11.127 12.421 11.213 12.59 11.381C12.93 11.721 12.93 12.271 12.59 12.611L7.03603 18.155C6.35603 18.834 6.35603 19.935 7.03603 20.615C7.17103 20.75 7.32403 20.859 7.48603 20.94V20.939Z" fill="url(#icon-8c144efaea585484__icon-4cb7b39c52327b4b__d)"/><path d="M18.408 4.34298L18.404 4.33998C16.665 2.88498 14.43 2.00098 11.983 2.00098H11.52V8.08798H11.983C13.378 8.08798 14.6 8.81598 15.294 9.91198L15.296 9.90998L18.408 6.80298C19.088 6.12398 19.088 5.02298 18.408 4.34298Z" fill="url(#icon-ea33ae54a5c97cb1__icon-bbf7530503c4aeb5__e)"/><defs><linearGradient id="icon-5b7dcef21b5e7fa8__icon-7bbab515d59fb758__a" x1="6.67801" y1="3.185" x2="21.578" y2="11.788" gradientUnits="userSpaceOnUse"><stop offset="0.12" stop-color="#F0364C" stop-opacity="0.5"/><stop offset="0.261" stop-color="#F0364C" stop-opacity="0.454"/><stop offset="0.507" stop-color="#F0364C" stop-opacity="0.333"/><stop offset="0.65" stop-color="#F0364C" stop-opacity="0.25"/><stop offset="1" stop-color="#F0364C" stop-opacity="0"/></linearGradient><linearGradient id="icon-9a09ffd76cd32bbf__icon-4903005d359e7323__b" x1="4.51905" y1="17.304" x2="22.227" y2="10.858" gradientUnits="userSpaceOnUse"><stop offset="0.166" stop-color="#920B18"/><stop offset="0.55" stop-color="#F0364C"/><stop offset="0.8" stop-color="#FF5C39"/></linearGradient><linearGradient id="icon-d1e592abf1ae2d48__icon-9943088d81112181__c" x1="7.12" y1="16.31" x2="14.518" y2="19.76" gradientUnits="userSpaceOnUse"><stop offset="0.114" stop-color="#6E0811" stop-opacity="0.75"/><stop offset="0.699" stop-color="#6E0811" stop-opacity="0"/></linearGradient><linearGradient id="icon-8c144efaea585484__icon-4cb7b39c52327b4b__d" x1="2.15003" y1="17.898" x2="11.578" y2="12.454" gradientUnits="userSpaceOnUse"><stop stop-color="#920B18"/><stop offset="0.026" stop-color="#A41322"/><stop offset="0.074" stop-color="#BF1F31"/><stop offset="0.126" stop-color="#D5293D"/><stop offset="0.183" stop-color="#E43045"/><stop offset="0.25" stop-color="#ED344A"/><stop offset="0.35" stop-color="#F0364C"/><stop offset="0.75" stop-color="#FF5C39"/></linearGradient><linearGradient id="icon-ea33ae54a5c97cb1__icon-bbf7530503c4aeb5__e" x1="10.868" y1="2.77798" x2="17.279" y2="8.15698" gradientUnits="userSpaceOnUse"><stop offset="0.5" stop-color="#6E0811" stop-opacity="0"/><stop offset="0.581" stop-color="#6E0811" stop-opacity="0.093"/><stop offset="0.72" stop-color="#6E0811" stop-opacity="0.342"/><stop offset="0.899" stop-color="#6E0811" stop-opacity="0.744"/><stop offset="1" stop-color="#6E0811"/></linearGradient></defs></svg>