<svg width="48" height="48" fill="none" xmlns="http://www.w3.org/2000/svg"><path d="M23.966 4H19.427C18.948 4 18.515 4.193 18.2 4.506L9.50098 13.207C9.18698 13.522 8.99298 13.956 8.99298 14.435C8.99298 15.395 9.77198 16.174 10.732 16.174H23.966C28.86 16.174 31.792 20.351 31.792 24C31.792 28.322 28.288 31.826 23.966 31.826C22.428 31.826 20.999 31.375 19.79 30.607L25.176 25.221C25.855 24.542 25.855 23.441 25.176 22.762C24.839 22.425 24.399 22.255 23.957 22.253C23.957 22.253 7.72198 22.253 7.51898 22.253C6.51298 22.253 5.73398 22.591 5.05298 23.272C4.31798 24.007 3.98098 24.988 4.04098 25.95C4.83998 34.903 12.657 44 23.966 44C35.012 44 43.966 35.046 43.966 24C43.966 12.565 34.821 4 23.966 4ZM23.966 13.674H12.569L19.742 6.5H23.966C27.507 6.5 31.158 7.697 34.209 9.874C34.599 10.191 34.906 10.674 34.906 11.233C34.906 11.717 34.702 12.162 34.384 12.479L30.693 16.17C28.973 14.659 26.694 13.674 23.966 13.674ZM6.53498 25.762C6.52998 25.59 6.56598 25.295 6.82098 25.04C7.04598 24.815 7.19598 24.754 7.51898 24.754H22.109L12.527 34.345C12.317 34.557 12.163 34.758 12.032 34.953C12.016 34.977 12.003 35.002 11.988 35.026C11.872 35.208 11.778 35.383 11.704 35.553C11.666 35.635 11.629 35.717 11.596 35.802C11.54 35.95 11.493 36.095 11.444 36.236C8.87298 33.749 6.92298 29.599 6.53498 25.763V25.762ZM23.966 41.5C20.588 41.5 17.322 40.514 14.518 38.71C14.09 38.391 13.803 37.895 13.803 37.322C13.803 36.838 14.006 36.391 14.324 36.074L17.994 32.404C19.752 33.658 21.806 34.326 23.966 34.326C29.66 34.326 34.292 29.694 34.292 24C34.292 21.943 33.605 19.823 32.358 18.04L36.183 14.215C36.674 13.718 37.004 13.167 37.207 12.565C39.784 15.484 41.466 19.359 41.466 24C41.466 33.65 33.616 41.5 23.966 41.5Z" fill="black"/></svg>