<svg width="24" height="24" fill="none" xmlns="http://www.w3.org/2000/svg"><path d="M19.618 5.55C17.782 3.387 15.046 2 11.983 2H9.71003C9.47003 2 9.25303 2.097 9.09603 2.253L4.73803 6.603C4.58103 6.76 4.48403 6.977 4.48403 7.217C4.48403 7.697 4.87403 8.087 5.35503 8.087H11.983C13.383 8.087 14.604 8.806 15.296 9.909C15.68 10.514 15.903 11.231 15.903 12C15.903 14.161 14.148 15.913 11.983 15.913C11.213 15.913 10.504 15.679 9.89903 15.296L12.589 12.611C12.929 12.271 12.929 11.721 12.589 11.381C12.42 11.213 12.2 11.128 11.978 11.127H3.74203C3.29603 11.127 2.85003 11.297 2.51003 11.637C2.14203 12.004 1.97303 12.495 2.00303 12.976C2.22103 15.2 3.18303 17.365 4.89003 19.068C5.04603 19.224 5.20203 19.359 5.36503 19.502C7.13003 21.055 9.44403 22.001 11.982 22.001C17.514 22.001 21.999 17.524 21.999 12.001C21.999 9.538 21.097 7.293 19.617 5.551L19.618 5.55ZM6.87703 6.587L9.96903 3.5H11.983C13.415 3.5 14.8 3.873 16.032 4.546C16.053 4.565 16.075 4.583 16.095 4.603C16.413 4.921 16.589 5.344 16.589 5.794C16.589 6.244 16.413 6.667 16.095 6.985L15.332 7.748C14.394 7.009 13.227 6.587 11.983 6.587H6.87703ZM3.49903 12.866C3.49903 12.818 3.51203 12.755 3.56903 12.698C3.62803 12.639 3.69503 12.627 3.74703 12.627C3.81403 12.627 8.04303 12.627 10.412 12.627L7.02903 16.01C6.45603 16.583 6.13703 17.339 6.10803 18.144L6.08903 18.126C5.86903 17.907 5.64203 17.68 5.56403 17.593C4.40603 16.272 3.67903 14.614 3.50003 12.865L3.49903 12.866ZM11.982 20.5C10.771 20.5 9.58903 20.238 8.50403 19.753C8.35303 19.674 8.21003 19.576 8.08903 19.454C7.77103 19.136 7.59603 18.713 7.59603 18.263C7.59603 17.813 7.77103 17.39 8.08903 17.072L8.79603 16.365C9.73003 17.047 10.826 17.415 11.982 17.415C14.97 17.415 17.402 14.987 17.402 12.002C17.402 10.974 17.111 9.973 16.566 9.113C16.505 9.016 16.433 8.928 16.367 8.836L17.156 8.047C17.688 7.515 17.994 6.825 18.061 6.085C18.201 6.229 18.344 6.368 18.475 6.523C19.781 8.06 20.5 10.006 20.5 12.002C20.5 16.689 16.679 20.502 11.983 20.502L11.982 20.5Z" fill="black"/></svg>