<svg width="20" height="20" fill="none" xmlns="http://www.w3.org/2000/svg"><path d="M16.095 4.84C14.626 3.11 12.437 2 9.98701 2H8.16801C7.97601 2 7.80201 2.077 7.67601 2.203L4.19001 5.683C4.06401 5.809 3.98701 5.982 3.98701 6.174C3.98701 6.558 4.29901 6.87 4.68401 6.87H9.98601C11.106 6.87 12.082 7.445 12.636 8.327C12.943 8.811 13.121 9.385 13.121 10C13.121 11.729 11.717 13.13 9.98501 13.13C9.36901 13.13 8.80201 12.943 8.31801 12.636L10.47 10.488C10.742 10.216 10.742 9.776 10.47 9.504C10.335 9.369 10.158 9.301 9.98201 9.3H3.39401C3.03701 9.3 2.68101 9.436 2.40901 9.708C2.11501 10.002 1.97901 10.395 2.00401 10.779C2.17901 12.558 2.94801 14.29 4.31301 15.653C4.43001 15.769 4.51901 15.849 4.64001 15.957C6.05801 17.227 7.93201 18 9.98701 18C14.413 18 18.001 14.418 18.001 10C18.001 8.03 17.279 6.234 16.096 4.84H16.095ZM9.98701 5.869H5.41901L8.29301 2.999H9.98701C11.012 2.999 12.01 3.225 12.92 3.647C12.963 3.682 13.005 3.719 13.048 3.763C13.802 4.518 13.802 5.744 13.048 6.499L12.679 6.868C11.942 6.233 10.998 5.868 9.98601 5.868L9.98701 5.869ZM4.88601 14.81C3.81801 13.684 3.15001 12.227 3.00101 10.718C2.99701 10.652 3.00601 10.526 3.11501 10.417C3.21501 10.317 3.33301 10.302 3.39801 10.302C3.45501 10.302 7.50501 10.302 9.22401 10.302L6.65701 12.868C5.90301 13.622 5.65701 14.686 5.89701 15.653C5.73301 15.535 5.55901 15.433 5.40401 15.299C5.40401 15.299 5.05101 14.993 4.88601 14.81ZM9.98601 17C9.23901 17 8.51001 16.863 7.81201 16.635C7.64901 16.546 7.49601 16.442 7.36401 16.31C6.61001 15.556 6.61001 14.329 7.36401 13.574L7.58801 13.35C8.29401 13.855 9.11701 14.13 9.98601 14.13C12.266 14.13 14.122 12.277 14.122 10C14.122 9.215 13.9 8.451 13.484 7.795C13.443 7.73 13.395 7.673 13.351 7.611L13.755 7.207C14.429 6.533 14.695 5.612 14.576 4.734C14.843 4.967 15.1 5.213 15.333 5.487C16.408 6.753 17.001 8.356 17.001 9.999C17.001 13.859 13.855 16.999 9.98701 16.999L9.98601 17Z" fill="black"/></svg>