<svg width="32" height="32" fill="none" xmlns="http://www.w3.org/2000/svg"><path d="M26.666 6.97C24.095 3.942 20.265 2 15.976 2H12.793C12.457 2 12.153 2.135 11.933 2.355L5.83303 8.445C5.61303 8.665 5.47703 8.969 5.47703 9.305C5.47703 9.977 6.02303 10.522 6.69603 10.522H15.976C17.936 10.522 19.645 11.528 20.614 13.072C21.152 13.919 21.463 14.923 21.463 16C21.463 19.026 19.006 21.478 15.975 21.478C14.898 21.478 13.905 21.151 13.058 20.614L16.824 16.855C17.3 16.38 17.3 15.609 16.824 15.133C16.588 14.897 16.279 14.778 15.969 14.777C16.061 14.777 4.43903 14.777 4.43803 14.777C3.81403 14.777 3.19003 15.015 2.71303 15.49C2.19803 16.004 1.96103 16.691 2.00303 17.364C2.30903 20.477 3.65603 23.508 6.04403 25.893C6.26503 26.114 6.38503 26.222 6.61703 26.425C9.09903 28.647 12.378 30 15.974 30C23.719 30 29.998 23.732 29.998 16C29.998 12.552 28.735 9.409 26.664 6.97H26.666ZM15.976 8.521H8.58703L13.116 3.999H15.976C18.401 3.999 20.731 4.751 22.703 6.094L22.71 6.101C22.981 6.372 23.13 6.732 23.13 7.116C23.13 7.5 22.981 7.859 22.71 8.131L20.664 10.177C19.358 9.124 17.722 8.522 15.976 8.522V8.521ZM4.00003 17.218C4.00003 17.141 4.01803 17.015 4.12703 16.906C4.23303 16.8 4.35503 16.777 4.44303 16.777H6.31403C8.44303 16.777 11.903 16.777 14.051 16.777L8.15603 22.672C7.70003 23.128 7.41203 23.685 7.26603 24.27C7.15203 24.152 7.05403 24.052 7.00203 23.997C5.31503 22.115 4.25803 19.734 4.00003 17.218ZM15.976 28C13.833 28 11.752 27.43 9.92803 26.369C9.79803 26.302 9.67603 26.22 9.57203 26.115C9.01203 25.555 9.01203 24.645 9.57203 24.086L11.599 22.059L11.606 22.065L11.617 22.054C12.899 22.977 14.397 23.477 15.977 23.477C20.106 23.477 23.465 20.122 23.465 15.999C23.465 14.578 23.064 13.195 22.309 12.008C22.226 11.876 22.128 11.757 22.038 11.631L24.126 9.543C24.537 9.132 24.815 8.629 24.975 8.087C25.029 8.148 25.089 8.201 25.142 8.263C26.986 10.433 28.001 13.18 28.001 15.998C28.001 22.615 22.607 27.998 15.977 27.998L15.976 28Z" fill="black"/></svg>