<svg width="28" height="28" fill="none" xmlns="http://www.w3.org/2000/svg"><path d="M6.02596 9.30402H13.98C15.123 9.30402 16.16 9.71002 16.972 10.381L19.506 7.84702C20.725 6.62802 20.725 4.64502 19.506 3.42502C19.446 3.36502 19.381 3.31802 19.316 3.26602C17.708 2.46202 15.9 1.99902 13.98 1.99902H11.252C10.964 1.99902 10.704 2.11502 10.515 2.30302L5.28596 7.52402C5.09696 7.71302 4.98096 7.97302 4.98096 8.26102C4.98096 8.83702 5.44896 9.30402 6.02596 9.30402Z" fill="black"/><path d="M23.1419 6.26C22.7499 5.798 22.3119 5.378 21.8549 4.979C22.0539 6.373 21.6349 7.838 20.5649 8.908L17.9639 11.509C18.4179 12.231 18.6819 13.085 18.6819 14C18.6819 16.593 16.5759 18.696 13.9779 18.696C13.0649 18.696 12.2239 18.42 11.5029 17.969L8.54293 20.929C8.04693 21.425 7.77393 22.084 7.77393 22.784C7.77393 23.484 8.04693 24.143 8.54293 24.639C8.59893 24.696 8.65693 24.739 8.71393 24.785C10.3039 25.561 12.0889 26 13.9779 26C20.6169 26 25.9989 20.627 25.9989 14C25.9989 11.045 24.9169 8.351 23.1419 6.26Z" fill="black"/><path d="M11.986 12.952C9.10396 12.952 4.09396 12.952 4.09396 12.952H4.08996C3.55496 12.952 3.01996 13.156 2.61196 13.563C2.16996 14.004 1.96796 14.593 2.00396 15.17C2.26596 17.839 3.42096 20.436 5.46796 22.48C5.63296 22.644 5.78696 22.783 5.95896 22.936C6.07496 23.04 6.19996 23.132 6.31996 23.231C6.30396 23.082 6.27596 22.936 6.27596 22.784C6.27596 21.683 6.70496 20.647 7.48396 19.868L12.703 14.649C12.877 14.469 12.986 14.222 12.986 13.952C12.986 13.4 12.538 12.952 11.986 12.952Z" fill="black"/></svg>