<svg xmlns="http://www.w3.org/2000/svg" width="48" height="48" fill="none"><path fill="url(#icon-9edea35b3c147f8f__icon-f58f208493724d85__a)" d="M22.369 43.577 6.917 34.74a1.665 1.665 0 0 1 .023-2.901l10.303-5.894 2.13-.752L29.3 30.87l-1.967 9.8a3.332 3.332 0 0 1-4.964 2.908h-.001Z"/><path fill="url(#icon-afb9f5b89b8c3d89__icon-d8e3ba88fc1fc073__b)" d="m25.631 4.427 15.452 8.838a1.665 1.665 0 0 1-.023 2.902L30.757 22.06l-2.13.752-9.928-5.678 1.967-9.8a3.332 3.332 0 0 1 4.964-2.908l.001.001Z"/><path fill="url(#icon-45293c7e8226baa7__icon-5e908fb0e9cac13a__c)" d="M22.355 4.435 7.753 12.786a3.33 3.33 0 0 0-1.671 2.89v6.759c0 .627.346 1.173.857 1.457l11.24 6.43a1.667 1.667 0 0 0 2.486-1.452V7.333c0-1.243.68-2.327 1.689-2.9v.001Z"/><path fill="url(#icon-8ccb66f6068c678d__icon-f3bdecc544e01ec9__d)" d="m25.645 43.57 14.602-8.353a3.33 3.33 0 0 0 1.67-2.89v-6.759c0-.627-.345-1.173-.856-1.457l-11.24-6.43a1.667 1.667 0 0 0-2.486 1.452V40.67c0 1.243-.68 2.327-1.689 2.9h-.001Z"/><defs><linearGradient id="icon-9edea35b3c147f8f__icon-f58f208493724d85__a" x1="11.817" x2="27.69" y1="41.209" y2="28.808" gradientUnits="userSpaceOnUse"><stop offset=".061" stop-color="#249BE2"/><stop offset=".35" stop-color="#1B75B4"/><stop offset=".634" stop-color="#13568E"/><stop offset=".783" stop-color="#114A80"/></linearGradient><linearGradient id="icon-afb9f5b89b8c3d89__icon-d8e3ba88fc1fc073__b" x1="38.754" x2="18.612" y1="7.554" y2="16.946" gradientUnits="userSpaceOnUse"><stop offset=".117" stop-color="#249BE2"/><stop offset=".295" stop-color="#218ED2"/><stop offset=".638" stop-color="#196DAB"/><stop offset=".963" stop-color="#114A80"/></linearGradient><linearGradient id="icon-45293c7e8226baa7__icon-5e908fb0e9cac13a__c" x1="21.74" x2="11.076" y1="4.147" y2="27.015" gradientUnits="userSpaceOnUse"><stop offset=".338" stop-color="#7CEAFF"/><stop offset=".67" stop-color="#4EC9F2"/><stop offset=".973" stop-color="#28ADE8"/></linearGradient><linearGradient id="icon-8ccb66f6068c678d__icon-f3bdecc544e01ec9__d" x1="24.148" x2="41.63" y1="36.553" y2="19.071" gradientUnits="userSpaceOnUse"><stop offset=".027" stop-color="#28ADE8"/><stop offset=".301" stop-color="#4EC9F2"/><stop offset=".662" stop-color="#7CEAFF"/></linearGradient></defs></svg>