<svg xmlns="http://www.w3.org/2000/svg" width="48" height="48" fill="currentColor"><path d="m6.942 25.946 8.764 5.012a1.661 1.661 0 0 0 2.473-1.326V7.126c0-.241.02-.477.05-.71L7.755 12.407a3.33 3.33 0 0 0-1.671 2.889l.013 9.201c0 .622.34 1.162.845 1.449ZM20.678 7.126v10.76l6.644 3.8v-3.413l.007-.095c.164-2.16 1.986-3.851 4.147-3.851.718 0 1.427.186 2.06.545l4.562 2.61 2.961-1.694a1.668 1.668 0 0 0 .023-2.901L26.908 4.78l-.004.006A5.785 5.785 0 0 0 24 4.002c-1.918 0-3.322 1.4-3.322 3.126v-.002Z"/><path d="M27.322 40.874v-10.76l-6.644-3.8v3.413l-.007.095c-.164 2.16-1.986 3.851-4.147 3.851a4.173 4.173 0 0 1-2.06-.545l-4.563-2.61-2.961 1.694a1.668 1.668 0 0 0-.023 2.901l14.174 8.107.004-.006a5.785 5.785 0 0 0 2.904.784h.004c1.916-.002 3.319-1.4 3.319-3.124ZM41.058 22.054l-8.763-5.012a1.661 1.661 0 0 0-2.473 1.326v22.507c0 .241-.02.477-.05.71l10.474-5.991a3.33 3.33 0 0 0 1.671-2.889l-.013-9.201c0-.622-.342-1.164-.846-1.45Z"/></svg>