<svg xmlns="http://www.w3.org/2000/svg" width="16" height="16" fill="none"><path fill="url(#icon-2471d7b06fb1b51d__icon-a28841f61626fc9f__a)" d="m7.43 14.851-5.408-3.093a.583.583 0 0 1 .008-1.015L5.635 8.68l.746-.263 3.475 1.987-.689 3.43A1.166 1.166 0 0 1 7.43 14.85Z"/><path fill="url(#icon-821a678ab0001d99__icon-3e098bbb6f116f59__b)" d="m8.57 1.15 5.409 3.093a.583.583 0 0 1-.009 1.015l-3.605 2.063-.746.263-3.474-1.988.688-3.43A1.166 1.166 0 0 1 8.571 1.15Z"/><path fill="url(#icon-39ccf4afa0039cd7__icon-2e4449958ea57489__c)" d="m7.424 1.152-5.11 2.923c-.35.2-.585.579-.585 1.01v2.366c0 .22.121.411.3.51l3.934 2.25a.584.584 0 0 0 .87-.508V2.166c0-.435.239-.814.591-1.014Z"/><path fill="url(#icon-795edcb2dc4daad4__icon-47afcf04c44517f1__d)" d="m8.576 14.848 5.11-2.923c.35-.201.585-.579.585-1.011V8.548c0-.22-.121-.41-.3-.51l-3.934-2.25a.584.584 0 0 0-.87.508v7.538c0 .435-.239.814-.591 1.014Z"/><defs><linearGradient id="icon-2471d7b06fb1b51d__icon-a28841f61626fc9f__a" x1="3.737" x2="9.292" y1="14.022" y2="9.682" gradientUnits="userSpaceOnUse"><stop offset=".061" stop-color="#249BE2"/><stop offset=".35" stop-color="#1B75B4"/><stop offset=".634" stop-color="#13568E"/><stop offset=".783" stop-color="#114A80"/></linearGradient><linearGradient id="icon-821a678ab0001d99__icon-3e098bbb6f116f59__b" x1="13.163" x2="6.114" y1="2.244" y2="5.531" gradientUnits="userSpaceOnUse"><stop offset=".117" stop-color="#249BE2"/><stop offset=".295" stop-color="#218ED2"/><stop offset=".638" stop-color="#196DAB"/><stop offset=".963" stop-color="#114A80"/></linearGradient><linearGradient id="icon-39ccf4afa0039cd7__icon-2e4449958ea57489__c" x1="7.209" x2="3.477" y1="1.051" y2="9.054" gradientUnits="userSpaceOnUse"><stop offset=".338" stop-color="#7CEAFF"/><stop offset=".67" stop-color="#4EC9F2"/><stop offset=".973" stop-color="#28ADE8"/></linearGradient><linearGradient id="icon-795edcb2dc4daad4__icon-47afcf04c44517f1__d" x1="8.052" x2="14.17" y1="12.393" y2="6.274" gradientUnits="userSpaceOnUse"><stop offset=".027" stop-color="#28ADE8"/><stop offset=".301" stop-color="#4EC9F2"/><stop offset=".662" stop-color="#7CEAFF"/></linearGradient></defs></svg>