<svg xmlns="http://www.w3.org/2000/svg" width="16" height="16" fill="currentColor"><path d="m2.029 8.04 2.933 1.678a.583.583 0 0 0 .87-.508V2.168c0-.091.016-.177.027-.264L2.314 3.923a1.167 1.167 0 0 0-.585 1.011V7.53c0 .219.121.41.3.51Z"/><path d="M9.167 10.162 6.834 8.827l-.001.382a1.585 1.585 0 0 1-2.366 1.376l-.949-.543-1.487.851a.584.584 0 0 0-.008 1.016l4.886 2.776c.323.191.691.315 1.093.315h.001a1.17 1.17 0 0 0 1.167-1.168v-3.67h-.003ZM13.971 7.96l-2.933-1.678a.583.583 0 0 0-.87.508v7.042c0 .091-.016.177-.027.264l3.545-2.019c.35-.201.585-.579.585-1.011V8.47a.584.584 0 0 0-.3-.51Z"/><path d="m11.534 5.414.95.543 1.486-.851a.584.584 0 0 0 .008-1.016L9.092 1.314A2.138 2.138 0 0 0 8 .999a1.17 1.17 0 0 0-1.168 1.168v3.669l2.336 1.336v-.383a1.585 1.585 0 0 1 2.366-1.376l.001.001Z"/></svg>