<svg xmlns="http://www.w3.org/2000/svg" width="32" height="32" fill="currentColor"><path d="m4.058 17.615 5.901 3.374c.162.085.344.136.539.136.644 0 1.167-.522 1.167-1.167V4.336c0-.174.01-.345.03-.514L4.628 7.846a2.332 2.332 0 0 0-1.169 2.022v6.726c0 .439.242.821.6 1.02l-.001.001ZM27.942 14.385l-5.9-3.374a1.155 1.155 0 0 0-.54-.136c-.644 0-1.167.522-1.167 1.167v15.623c0 .174-.01.345-.03.514l7.067-4.024a2.332 2.332 0 0 0 1.17-2.022v-6.726c0-.439-.243-.821-.6-1.02v-.002Z"/><path d="M13.667 17.654h-.002v2.305a3.171 3.171 0 0 1-3.167 3.167 3.172 3.172 0 0 1-1.468-.365l-.032-.017-.031-.018-3.278-1.872-1.631.933a1.165 1.165 0 0 0-.016 2.031l9.812 5.612.003-.005A4.276 4.276 0 0 0 16 30h.002a2.338 2.338 0 0 0 2.334-2.336v-7.34l-4.669-2.67ZM27.958 8.182 18.146 2.57l-.003.005A4.276 4.276 0 0 0 16 2a2.339 2.339 0 0 0-2.336 2.336v7.34l4.671 2.671v-2.306a3.171 3.171 0 0 1 3.167-3.167c.505 0 1.013.126 1.468.365l.032.017.031.018 3.278 1.872 1.631-.933a1.165 1.165 0 0 0 .016-2.031Z"/></svg>