<svg xmlns="http://www.w3.org/2000/svg" width="24" height="24" fill="currentColor"><path d="m3.47 12.05 4.119 2.356a.833.833 0 0 0 1.242-.726V3.667c0-.122.024-.238.037-.357L3.876 6.166a1.666 1.666 0 0 0-.835 1.444v3.711c0 .313.174.586.429.729ZM20.53 11.951l-4.12-2.356a.835.835 0 0 0-1.242.726v10.013c0 .122-.023.238-.037.357l4.992-2.856c.499-.288.835-.827.835-1.444V12.68a.836.836 0 0 0-.428-.729Z"/><path d="m13.667 15.098-3.333-1.907-.001.488a2.336 2.336 0 0 1-3.487 2.028L5.54 14.96l-2.068 1.183a.832.832 0 0 0-.012 1.451l6.981 3.993h.001l.006.004c.459.258.989.407 1.553.407.134 0 .255-.033.384-.049a1.667 1.667 0 0 0 1.283-1.618v-5.234l-.001.001ZM20.541 6.405 13.56 2.412h-.001l-.006-.004A3.162 3.162 0 0 0 12 2.001c-.134 0-.255.033-.383.049a1.668 1.668 0 0 0-1.284 1.618v5.234l3.242 1.855.092.053h.001v-.488a2.336 2.336 0 0 1 3.487-2.028l1.306.747 2.069-1.183a.832.832 0 0 0 .012-1.451l-.001-.002Z"/></svg>