<svg xmlns="http://www.w3.org/2000/svg" width="24" height="24" fill="none"><path fill="url(#icon-a9d54d2a12097189__icon-fefe7267526674d9__a)" d="M11.184 21.786 3.46 17.368a.832.832 0 0 1 .012-1.45l5.15-2.947 1.066-.376 4.963 2.839-.983 4.899a1.666 1.666 0 0 1-2.482 1.453Z"/><path fill="url(#icon-6345a7dae16abe61__icon-a104254dc261f151__b)" d="m12.815 2.213 7.726 4.42a.833.833 0 0 1-.012 1.45l-5.15 2.946-1.066.376L9.35 8.566l.983-4.9a1.666 1.666 0 0 1 2.482-1.453Z"/><path fill="url(#icon-cddf079d2a3504bd__icon-6af0f0951917a64a__c)" d="m11.178 2.217-7.3 4.175c-.5.288-.836.827-.836 1.445v3.38a.83.83 0 0 0 .428.727l5.62 3.215a.834.834 0 0 0 1.243-.726V3.667c0-.622.34-1.163.845-1.45Z"/><path fill="url(#icon-694800a982108785__icon-c8a7c5a72ede7985__d)" d="m12.822 21.782 7.3-4.175c.5-.288.836-.827.836-1.445v-3.38a.833.833 0 0 0-.429-.728L14.91 8.84a.834.834 0 0 0-1.243.726v10.767c0 .621-.34 1.163-.844 1.45Z"/><defs><linearGradient id="icon-a9d54d2a12097189__icon-fefe7267526674d9__a" x1="5.909" x2="13.845" y1="20.602" y2="14.403" gradientUnits="userSpaceOnUse"><stop offset=".061" stop-color="#249BE2"/><stop offset=".35" stop-color="#1B75B4"/><stop offset=".634" stop-color="#13568E"/><stop offset=".783" stop-color="#114A80"/></linearGradient><linearGradient id="icon-6345a7dae16abe61__icon-a104254dc261f151__b" x1="19.376" x2="9.306" y1="3.777" y2="8.472" gradientUnits="userSpaceOnUse"><stop offset=".117" stop-color="#249BE2"/><stop offset=".295" stop-color="#218ED2"/><stop offset=".638" stop-color="#196DAB"/><stop offset=".963" stop-color="#114A80"/></linearGradient><linearGradient id="icon-cddf079d2a3504bd__icon-6af0f0951917a64a__c" x1="10.87" x2="5.539" y1="2.073" y2="13.506" gradientUnits="userSpaceOnUse"><stop offset=".338" stop-color="#7CEAFF"/><stop offset=".67" stop-color="#4EC9F2"/><stop offset=".973" stop-color="#28ADE8"/></linearGradient><linearGradient id="icon-694800a982108785__icon-c8a7c5a72ede7985__d" x1="12.074" x2="20.814" y1="18.274" y2="9.535" gradientUnits="userSpaceOnUse"><stop offset=".027" stop-color="#28ADE8"/><stop offset=".301" stop-color="#4EC9F2"/><stop offset=".662" stop-color="#7CEAFF"/></linearGradient></defs></svg>