<svg xmlns="http://www.w3.org/2000/svg" width="32" height="32" fill="currentColor"><path d="m27.942 14.385-3.647-2.086 3.647-2.086a1.165 1.165 0 0 0 .016-2.031L18.146 2.57l-.003.005A4.276 4.276 0 0 0 16 2a4.298 4.298 0 0 0-2.136.587L4.628 7.846a2.332 2.332 0 0 0-1.169 2.022v6.726c0 .439.242.821.6 1.02L7.706 19.7l-3.647 2.086a1.165 1.165 0 0 0-.016 2.031l9.812 5.612.003-.005a4.276 4.276 0 0 0 2.143.575 4.298 4.298 0 0 0 2.136-.587l9.237-5.259a2.332 2.332 0 0 0 1.169-2.022v-6.726c0-.439-.242-.821-.6-1.02h-.001Zm-14.277-8.05A2.338 2.338 0 0 1 16 4c.422 0 .818.112 1.159.309l8.538 4.884-3.417 1.954-2.207-1.262a1.167 1.167 0 0 0-1.74 1.017v1.141l-3.674-2.101-.995-.569V6.336l.001-.001Zm4.668 8.011v5.977l-4.667-2.669v-5.977l4.667 2.669ZM5.458 9.868c0-.179.129-.267.162-.286l6.067-3.47c-.004.075-.023.146-.023.223v13.327l-6.207-3.55V9.869l.001-.001Zm12.877 15.796A2.338 2.338 0 0 1 16 27.999a2.31 2.31 0 0 1-1.159-.309l-8.538-4.884 3.417-1.954 2.207 1.262a1.167 1.167 0 0 0 1.74-1.017v-1.141l3.674 2.101.995.569v3.037l-.001.001Zm8.207-3.534a.332.332 0 0 1-.162.286l-6.067 3.47c.004-.075.023-.146.023-.223V12.336l6.207 3.55v6.243l-.001.001Z"/></svg>