<svg xmlns="http://www.w3.org/2000/svg" width="28" height="28" fill="none"><path fill="url(#icon-67663dbf094efb9b__icon-b6f69016f20beaf9__a)" d="m13.232 25.743-9.27-5.302a.999.999 0 0 1 .014-1.74l6.18-3.536 1.278-.451 5.956 3.406-1.18 5.879a2 2 0 0 1-2.978 1.744Z"/><path fill="url(#icon-ff7dcce1448ca2e8__icon-0dbc342ea4cce986__b)" d="m15.188 2.256 9.27 5.303a.999.999 0 0 1-.014 1.74l-6.18 3.536-1.278.45-5.957-3.406L12.21 4a2 2 0 0 1 2.98-1.744Z"/><path fill="url(#icon-69a5da9f364a2b89__icon-dbae8f012b38529a__c)" d="m13.223 2.26-8.76 5.01c-.6.346-1.002.993-1.002 1.734v4.055a1 1 0 0 0 .514.874l6.743 3.857a1 1 0 0 0 1.491-.871V3.999c0-.745.41-1.395 1.014-1.739Z"/><path fill="url(#icon-7aa528c89dad875a__icon-b5d2fec38d7db488__d)" d="m15.197 25.738 8.76-5.01a1.998 1.998 0 0 0 1.002-1.734V14.94a.999.999 0 0 0-.514-.874l-6.743-3.857a1 1 0 0 0-1.491.871V24c0 .746-.41 1.395-1.014 1.74Z"/><defs><linearGradient id="icon-67663dbf094efb9b__icon-b6f69016f20beaf9__a" x1="6.902" x2="16.424" y1="24.322" y2="16.883" gradientUnits="userSpaceOnUse"><stop offset=".061" stop-color="#249BE2"/><stop offset=".35" stop-color="#1B75B4"/><stop offset=".634" stop-color="#13568E"/><stop offset=".783" stop-color="#114A80"/></linearGradient><linearGradient id="icon-ff7dcce1448ca2e8__icon-0dbc342ea4cce986__b" x1="23.061" x2="10.977" y1="4.132" y2="9.766" gradientUnits="userSpaceOnUse"><stop offset=".117" stop-color="#249BE2"/><stop offset=".295" stop-color="#218ED2"/><stop offset=".638" stop-color="#196DAB"/><stop offset=".963" stop-color="#114A80"/></linearGradient><linearGradient id="icon-69a5da9f364a2b89__icon-dbae8f012b38529a__c" x1="12.854" x2="6.457" y1="2.088" y2="15.807" gradientUnits="userSpaceOnUse"><stop offset=".338" stop-color="#7CEAFF"/><stop offset=".67" stop-color="#4EC9F2"/><stop offset=".973" stop-color="#28ADE8"/></linearGradient><linearGradient id="icon-7aa528c89dad875a__icon-b5d2fec38d7db488__d" x1="14.299" x2="24.786" y1="21.529" y2="11.041" gradientUnits="userSpaceOnUse"><stop offset=".027" stop-color="#28ADE8"/><stop offset=".301" stop-color="#4EC9F2"/><stop offset=".662" stop-color="#7CEAFF"/></linearGradient></defs></svg>