<svg xmlns="http://www.w3.org/2000/svg" width="48" height="48" fill="currentColor"><path d="m41.047 22.046-5.464-3.125 5.477-3.133a1.668 1.668 0 0 0 .023-2.901L26.909 4.78l-.004.006a5.785 5.785 0 0 0-5.81-.002l-.003-.005-13.338 7.629a3.33 3.33 0 0 0-1.671 2.889l.013 9.201c0 .627.346 1.173.857 1.457l5.464 3.125-5.477 3.133a1.668 1.668 0 0 0-.023 2.901l14.174 8.107.004-.006a5.785 5.785 0 0 0 5.81.002l.003.005 13.338-7.629a3.33 3.33 0 0 0 1.671-2.889l-.013-9.201c0-.627-.346-1.173-.857-1.457Zm-20.381-4.167 6.659 3.809.008 8.434-6.659-3.809-.008-8.434ZM8.583 15.296c0-.302.156-.572.412-.719l9.197-5.26a5.906 5.906 0 0 0-.026.517l.014 19.661-9.583-5.481-.014-8.718ZM24 41.5a3.316 3.316 0 0 1-1.621-.421L9.445 33.68s3.92-2.262 5.49-3.16l3.258 1.864a1.667 1.667 0 0 0 2.486-1.452l-.002-1.738 5.415 3.097 1.241.71v5.165A3.337 3.337 0 0 1 24 41.5Zm4.988-26.098c-.92 0-1.667.746-1.667 1.667l.002 1.738-5.415-3.097-1.241-.71V9.835a3.338 3.338 0 0 1 3.334-3.334c.588 0 1.141.153 1.621.421l12.934 7.399s-3.917 2.26-5.49 3.16l-3.258-1.864a1.66 1.66 0 0 0-.82-.215Zm10.018 18.021-9.197 5.26c.015-.171.026-.343.026-.517l-.013-19.661 9.583 5.481.013 8.718a.821.821 0 0 1-.412.719Z"/></svg>