<svg xmlns="http://www.w3.org/2000/svg" width="16" height="16" fill="currentColor"><path d="m13.971 7.123-1.763-1.009 1.763-1.009a.584.584 0 0 0 .008-1.016L9.093 1.313A2.138 2.138 0 0 0 8 .998c-.402 0-.774.117-1.097.309L2.314 3.923a1.167 1.167 0 0 0-.585 1.011v3.433c0 .219.121.41.3.51l1.763 1.009-1.763 1.009a.584.584 0 0 0-.008 1.016l4.886 2.776c.323.191.691.315 1.093.315s.774-.117 1.097-.309l4.589-2.614c.349-.201.585-.579.585-1.011V7.636a.584.584 0 0 0-.3-.51v-.003ZM2.729 4.934c0-.089.064-.133.081-.143l3.033-1.735c-.002.038-.011.074-.011.112V9.9L2.729 8.125V4.934Zm6.439 7.898a1.17 1.17 0 0 1-1.752 1.011l-4.264-2.439 1.648-.943 1.164.666a.582.582 0 0 0 .87-.508v-.64l2.335 1.335v1.517l-.001.001ZM6.833 8.827V5.838l2.333 1.335v2.989L6.833 8.827ZM9.75 4.798a.583.583 0 0 0-.583.583v.639L6.832 4.685V3.168a1.17 1.17 0 0 1 1.752-1.011l4.264 2.439-1.648.943-1.164-.666a.582.582 0 0 0-.287-.075h.001Zm3.521 6.268a.166.166 0 0 1-.081.143l-3.033 1.735c.002-.038.011-.074.011-.112V6.1l3.103 1.775v3.191Z"/></svg>