<svg xmlns="http://www.w3.org/2000/svg" width="28" height="28" fill="currentColor"><path d="m3.764 15.174 5.244 3a.998.998 0 0 0 1.491-.866V3.943c0-.166.026-.326.049-.486L4.252 7.043A1.998 1.998 0 0 0 3.25 8.776v5.523c0 .376.208.704.514.875ZM24.236 12.826l-5.244-3a.998.998 0 0 0-1.491.866v13.363c0 .166-.026.326-.049.486l6.296-3.586a1.998 1.998 0 0 0 1.002-1.733v-5.523a1 1 0 0 0-.514-.874v.001Z"/><path d="m24.249 7.33-8.553-4.892v.002A3.49 3.49 0 0 0 14 2l-.034.002c-1.112.018-1.967.88-1.967 1.941v6.382H12l3.016 1.725.985.564v-1.928A2.505 2.505 0 0 1 18.5 8.197c.431 0 .856.112 1.236.327l2.728 1.56 1.772-1.014a.999.999 0 0 0 .013-1.74ZM14.967 17.083 12 15.386v-.009 1.937a2.505 2.505 0 0 1-2.499 2.489c-.431 0-.856-.112-1.236-.327l-2.728-1.56-1.772 1.014a.999.999 0 0 0-.013 1.741l8.553 4.892v-.002a3.49 3.49 0 0 0 1.696.44l.034-.002c1.112-.018 1.967-.88 1.967-1.941v-6.379l-1.034-.594-.001-.002Z"/></svg>