<svg xmlns="http://www.w3.org/2000/svg" width="20" height="20" fill="currentColor"><path d="m11.333 12.448-2.667-1.525v.866a1.67 1.67 0 0 1-2.49 1.441l-1.452-.831-1.547.885a.666.666 0 0 0-.009 1.161l5.664 3.227c.345.202.741.328 1.169.328.735 0 1.333-.599 1.333-1.334l-.001-4.218Z"/><path d="m3.176 10.362 2.44 1.396 1.056.604a.667.667 0 0 0 .994-.578v-8.45c0-.125.018-.246.037-.365L3.502 5.364c-.399.23-.668.661-.668 1.156v3.26c0 .251.138.469.343.583l-.001-.001ZM16.824 9.638l-.181-.104-3.315-1.896a.667.667 0 0 0-.994.578v8.45c0 .125-.018.246-.037.365l4.2-2.395c.4-.23.669-.661.669-1.156v-3.26a.666.666 0 0 0-.343-.583v.001Z"/><path d="m13.824 6.77 1.452.831 1.547-.885a.666.666 0 0 0 .009-1.161l-5.664-3.227A2.305 2.305 0 0 0 9.999 2c-.735 0-1.334.599-1.334 1.334v4.218l.366.21 2.301 1.316v-.867a1.67 1.67 0 0 1 2.49-1.441h.002Z"/></svg>