<svg xmlns="http://www.w3.org/2000/svg" width="32" height="32" fill="none"><path fill="url(#icon-1ec5ef1abc6717d8__icon-742ed01a583a7c3c__a)" d="M14.859 29.697 4.045 23.51a1.165 1.165 0 0 1 .016-2.03l7.21-4.124 1.49-.526 6.949 3.973-1.377 6.858a2.332 2.332 0 0 1-3.474 2.035Z"/><path fill="url(#icon-65f9f125748c6f35__icon-17fbc712c99a1c2b__b)" d="m17.141 2.299 10.814 6.185a1.165 1.165 0 0 1-.016 2.03l-7.21 4.125-1.49.526-6.949-3.974 1.377-6.858A2.332 2.332 0 0 1 17.14 2.3Z"/><path fill="url(#icon-08d14cb7c3162747__icon-984544419725c76e__c)" d="M14.849 2.304 4.63 8.15a2.33 2.33 0 0 0-1.17 2.022v4.73c0 .439.243.82.6 1.02l7.867 4.499a1.167 1.167 0 0 0 1.74-1.016V4.334c0-.87.476-1.629 1.182-2.03Z"/><path fill="url(#icon-d69e10b027002f73__icon-5dca1841587d838d__d)" d="m17.151 29.691 10.219-5.845a2.33 2.33 0 0 0 1.17-2.022v-4.73c0-.439-.243-.821-.6-1.02l-7.867-4.5a1.167 1.167 0 0 0-1.74 1.016v15.072c0 .87-.476 1.628-1.182 2.03Z"/><defs><linearGradient id="icon-1ec5ef1abc6717d8__icon-742ed01a583a7c3c__a" x1="7.474" x2="18.582" y1="28.04" y2="19.361" gradientUnits="userSpaceOnUse"><stop offset=".061" stop-color="#249BE2"/><stop offset=".35" stop-color="#1B75B4"/><stop offset=".634" stop-color="#13568E"/><stop offset=".783" stop-color="#114A80"/></linearGradient><linearGradient id="icon-65f9f125748c6f35__icon-17fbc712c99a1c2b__b" x1="26.325" x2="12.229" y1="4.487" y2="11.06" gradientUnits="userSpaceOnUse"><stop offset=".117" stop-color="#249BE2"/><stop offset=".295" stop-color="#218ED2"/><stop offset=".638" stop-color="#196DAB"/><stop offset=".963" stop-color="#114A80"/></linearGradient><linearGradient id="icon-08d14cb7c3162747__icon-984544419725c76e__c" x1="14.418" x2="6.956" y1="2.103" y2="18.106" gradientUnits="userSpaceOnUse"><stop offset=".338" stop-color="#7CEAFF"/><stop offset=".67" stop-color="#4EC9F2"/><stop offset=".973" stop-color="#28ADE8"/></linearGradient><linearGradient id="icon-d69e10b027002f73__icon-5dca1841587d838d__d" x1="16.103" x2="28.338" y1="24.781" y2="12.547" gradientUnits="userSpaceOnUse"><stop offset=".027" stop-color="#28ADE8"/><stop offset=".301" stop-color="#4EC9F2"/><stop offset=".662" stop-color="#7CEAFF"/></linearGradient></defs></svg>