<svg xmlns="http://www.w3.org/2000/svg" width="24" height="24" fill="currentColor"><path d="m20.53 10.639-2.433-1.391 2.433-1.391a.832.832 0 0 0 .012-1.451l-6.981-3.993-.007-.004a3.162 3.162 0 0 0-1.553-.407 3.09 3.09 0 0 0-1.541.401l-.012.006-6.57 3.758a1.666 1.666 0 0 0-.835 1.444v5.023c0 .313.173.586.428.729l2.433 1.391-2.432 1.391a.832.832 0 0 0-.012 1.451l6.981 3.993h.001l.006.004c.459.258.989.407 1.553.407a3.09 3.09 0 0 0 1.541-.401l.012-.006 6.57-3.758c.499-.288.835-.827.835-1.444v-5.022a.836.836 0 0 0-.428-.729l-.001-.001ZM4.542 7.61c0-.089.064-.133.08-.142l4.222-2.415c-.001.039-.012.076-.012.115V14.7l-4.29-2.454V7.61Zm9.126 11.222a1.67 1.67 0 0 1-2.499 1.446l-.384-.22-5.555-3.177 2.188-1.261 1.671.956a.835.835 0 0 0 1.243-.726v-.93l3.335 1.907v2.005h.001Zm-3.335-5.64v-4.29l3.333 1.907v4.29l-3.333-1.907ZM14.5 7.317a.833.833 0 0 0-.833.833v.93l-3.335-1.907V5.168a1.67 1.67 0 0 1 2.499-1.446l.384.22 5.555 3.177-2.188 1.261-1.671-.956a.835.835 0 0 0-.41-.107H14.5Zm4.958 9.073a.165.165 0 0 1-.08.142l-4.222 2.415c.001-.039.012-.076.012-.115V9.3l4.29 2.454v4.636Z"/></svg>