<svg xmlns="http://www.w3.org/2000/svg" width="20" height="20" fill="currentColor"><path d="m16.824 9.047-2.038-1.166 2.038-1.166a.666.666 0 0 0 .009-1.161l-5.664-3.227A2.305 2.305 0 0 0 10 1.999c-.428 0-.825.124-1.171.327L3.501 5.362c-.399.23-.668.661-.668 1.156v3.851c0 .251.138.469.343.583l2.038 1.166-2.038 1.166a.666.666 0 0 0-.009 1.161l5.664 3.227c.345.202.741.328 1.169.328.428 0 .825-.124 1.171-.327l5.328-3.036c.399-.23.668-.661.668-1.156V9.63a.666.666 0 0 0-.343-.583ZM3.833 6.519a.33.33 0 0 1 .165-.288l3.69-2.11c-.007.071-.022.14-.022.213v8.035l-3.833-2.192V6.519Zm7.501 9.147a1.336 1.336 0 0 1-2.016 1.146l-5.147-2.944 2.051-1.173 1.451.83a.667.667 0 0 0 .995-.581v-.869l2.667 1.526v2.066l-.001-.001Zm-2.667-4.743v-3.37l2.667 1.525v3.37l-2.667-1.525Zm2.667-3.866v.869L8.667 6.4V4.334a1.336 1.336 0 0 1 2.016-1.146l5.147 2.944-2.051 1.173-1.451-.83a.667.667 0 0 0-.995.581l.001.001Zm4.833 6.425a.33.33 0 0 1-.165.288l-3.69 2.11c.007-.071.022-.14.022-.213V7.631l3.833 2.192v3.659Z"/></svg>