<svg xmlns="http://www.w3.org/2000/svg" width="28" height="28" fill="currentColor"><path d="m24.293 12.826-3.282-1.878 3.282-1.878a.999.999 0 0 0 .013-1.741l-8.553-4.891v.002A3.49 3.49 0 0 0 14.057 2c-.615 0-1.185.173-1.688.453l-8.06 4.59a1.998 1.998 0 0 0-1.002 1.733v5.523a1 1 0 0 0 .514.874l3.283 1.878-3.282 1.878a.999.999 0 0 0-.013 1.741l8.553 4.892v-.002a3.49 3.49 0 0 0 1.696.44c.615 0 1.185-.173 1.688-.453l8.059-4.59a1.998 1.998 0 0 0 1.002-1.733v-5.523c0-.376-.208-.704-.514-.875ZM12.056 5.501a2.002 2.002 0 0 1 3.013-1.726l7.72 4.416s-1.945 1.121-3.29 1.893l-1.95-1.115a1 1 0 0 0-1.492.871v1.046l-3.255-1.862-.746-.427V5.501Zm4 7.113v5.059l-4-2.288v-5.059l4 2.288ZM4.807 8.776c0-.181.095-.343.248-.431l5.534-3.166c-.01.107-.032.211-.032.321v11.797l-5.75-3.288V8.776Zm11.252 13.723a2.002 2.002 0 0 1-3.013 1.726l-7.721-4.416s2.037-1.174 3.29-1.894l1.952 1.116a1 1 0 0 0 1.492-.871v-1.046l3.255 1.862.746.427V22.5l-.001-.001Zm7.249-3.275a.493.493 0 0 1-.247.431l-5.534 3.166c.01-.107.032-.211.032-.321V10.703l5.749 3.288v5.233Z"/></svg>