<svg id="uuid-13cc8fd5-c6d0-4916-a4e6-c8d153fb7667" xmlns="http://www.w3.org/2000/svg" width="18" height="18" viewBox="0 0 18 18">
  <g>
    <path d="m10.775,15.071c-.81.308-1.687.479-2.603.479-2.353,0-4.45-1.115-5.795-2.845l.026-.099c.192-.733.396-1.507.672-2.288.28.103.58.161.895.161.472,0,.914-.128,1.297-.348.616.526,1.27,1.005,2.088,1.482-.113.255-.176.536-.176.832,0,1.139.925,2.065,2.062,2.065.436,0,.84-.137,1.174-.369-.068-.271-.108-.55-.108-.836v-.233c-.215.366-.612.612-1.066.612-.682,0-1.237-.556-1.237-1.239s.555-1.239,1.237-1.239c.454,0,.85.247,1.066.612v-1.138c-.311-.189-.675-.3-1.066-.3-.541,0-1.033.212-1.401.554-.739-.432-1.373-.884-1.917-1.34.408-.462.659-1.067.659-1.731,0-.709-.284-1.352-.744-1.824.613-.55,1.317-1.036,2.11-1.463.968,1.058,2.027,2.031,3.164,2.905-.14.278-.22.591-.22.924,0,.548.215,1.045.564,1.415.461-.059.736-.17.959-.302-.413-.201-.698-.624-.698-1.113,0-.683.555-1.239,1.237-1.239s1.237.556,1.237,1.239c0,.149-.028.292-.076.424.071-.004.144-.006.222-.006.243,0,.447.019.624.051.035-.151.056-.308.056-.47,0-1.139-.925-2.065-2.062-2.065-.508,0-.972.185-1.332.491-1.039-.797-2.01-1.68-2.904-2.637,1.281-.586,2.774-1.036,4.493-1.357,1.42,1.343,2.309,3.244,2.309,5.351,0,.285-.018.565-.049.842.201.09.359.2.515.309.082.057.164.114.252.167.07-.429.107-.869.107-1.318C16.345,3.673,12.679,0,8.172,0S0,3.673,0,8.188s3.666,8.188,8.172,8.188c1.077,0,2.106-.212,3.049-.593-.165-.226-.316-.464-.446-.712ZM8.172.826c1.565,0,3.016.494,4.209,1.333-1.677.358-3.076.831-4.246,1.387-.097-.112-.195-.223-.29-.336-.566-.672-1.077-1.391-1.528-2.146.593-.155,1.214-.238,1.855-.238Zm-2.657.5c.496.852,1.065,1.663,1.699,2.416.054.065.111.128.166.192-.881.487-1.616,1.026-2.233,1.598-.354-.18-.753-.284-1.177-.284-.366,0-.714.076-1.03.213-.338-.965-.389-1.71-.395-1.999.789-.942,1.809-1.682,2.971-2.136Zm-2.941,5.422c.179-.224.411-.404.677-.522.22-.097.462-.152.718-.152.193,0,.379.032.553.089.277.091.525.247.724.451.315.323.51.763.51,1.249,0,.452-.17.864-.447,1.179-.188.214-.427.383-.697.488-.2.078-.417.122-.644.122-.21,0-.41-.038-.597-.105-.271-.097-.512-.256-.705-.462-.3-.32-.486-.749-.486-1.222,0-.422.147-.809.392-1.116Zm-.808,5.038c-.598-1.065-.941-2.292-.941-3.599,0-1.347.364-2.609.997-3.696.073.406.194.894.397,1.436-.528.479-.862,1.168-.862,1.936,0,.827.386,1.563.986,2.043-.232.642-.414,1.275-.577,1.88Z"/>
    <path d="m14.337,10.018c.536,0,.68.101.967.301.361.252.835.583,1.871.698v2.288c0,1.673-2.027,3.209-2.84,3.758-.377-.252-.981-.693-1.54-1.262-.592-.603-1.297-1.525-1.297-2.495v-2.288c1.035-.115,1.51-.446,1.871-.698.287-.2.431-.301.968-.301m0-.826c-1.696,0-1.175.978-3.438,1.037-.124.002-.223.102-.225.226v2.85c0,2.368,2.91,4.278,3.543,4.662.037.022.079.034.121.034s.084-.011.121-.034c.633-.387,3.543-2.294,3.543-4.662v-2.85c-.002-.124-.101-.224-.225-.226-2.264-.06-1.742-1.037-3.438-1.037h0Z"/>
  </g>
  <path d="m16.727,13.453c-.016-.526-.41-.963-.932-1.032-.032-.74-.653-1.318-1.394-1.295-.59-.011-1.122.352-1.327.905-.629.076-1.109.601-1.127,1.235.028.716.63,1.274,1.346,1.249.04,0,.081-.002.118-.005h2.18c.019,0,.039-.003.057-.009.582-.004,1.057-.466,1.078-1.048Z"/>
</svg>