<svg width="48" height="48" viewBox="0 0 48 48" fill="none" xmlns="http://www.w3.org/2000/svg">
<path fill-rule="evenodd" clip-rule="evenodd" d="M29.059 4.29089C30.39 4.29089 31.6269 4.9771 32.3315 6.10633L34.939 10.2857H39C42.077 10.2857 44.5714 12.7801 44.5714 15.8571V37.2857C44.5714 40.3627 42.077 42.8571 39 42.8571H9C5.92299 42.8571 3.42857 40.3627 3.42857 37.2857V15.8571C3.42857 12.7801 5.92299 10.2857 9 10.2857H13.4032L15.7733 6.20928C16.4638 5.02162 17.734 4.29089 19.1078 4.29089H29.059ZM14.5714 25.7188C14.5714 20.5116 18.7927 16.2903 24 16.2903C29.2073 16.2903 33.4286 20.5116 33.4286 25.7188C33.4286 30.9261 29.2073 35.1474 24 35.1474C18.7927 35.1474 14.5714 30.9261 14.5714 25.7188ZM24 18.8617C27.7871 18.8617 30.8571 21.9317 30.8571 25.7188C30.8571 29.5059 27.7871 32.576 24 32.576C20.2129 32.576 17.1429 29.5059 17.1429 25.7188C17.1429 21.9317 20.2129 18.8617 24 18.8617Z" fill="#5B5FC7"/>
</svg>
