<svg width="48" height="48" viewBox="0 0 48 48" fill="none" xmlns="http://www.w3.org/2000/svg">
<path d="M27.4254 9.42852C27.4254 5.16804 30.8793 1.71423 35.1397 1.71423C39.4002 1.71423 42.854 5.16804 42.854 9.42852V13.7142L45.6298 16.9296C46.0013 17.3598 46.1871 17.575 46.2401 17.7456C46.3698 18.163 46.1646 18.6111 45.7639 18.7857C45.6002 18.8571 45.3159 18.8571 44.7474 18.8571H25.5314C24.9629 18.8571 24.6787 18.8571 24.5149 18.7857C24.1142 18.6111 23.9091 18.163 24.0388 17.7456C24.0918 17.575 24.2775 17.3599 24.649 16.9296L27.4251 13.7142L27.4254 9.42852Z" fill="#AAB1FA"/>
<path d="M22.8745 16.3874C22.7556 16.5415 22.5316 16.8414 22.4087 17.2369C22.0196 18.4891 22.635 19.8335 23.8371 20.3573C24.2168 20.5228 24.5902 20.5492 24.7845 20.5599C24.995 20.5714 25.2496 20.5714 25.5016 20.5714L30.0039 20.5714C30.0039 20.7592 30.0139 20.9448 30.0336 21.1274L24.0003 24.2651L5.14288 14.4582V14.1428C5.14288 11.1719 7.4685 8.7441 10.3984 8.5802L10.7146 8.57138H25.7566C25.7312 8.85369 25.7182 9.13959 25.7182 9.42852L25.7178 13.0765L23.3345 15.8371C23.1697 16.0278 23.0033 16.2205 22.8745 16.3874Z" fill="#5B5FC7"/>
<path d="M30.9524 23.5481C31.8845 24.859 33.4157 25.7142 35.1467 25.7142C37.9871 25.7142 40.2896 23.4117 40.2896 20.5714L42.8574 20.5714V33.8571C42.8574 36.828 40.5321 39.2558 37.6022 39.4197L37.286 39.4285H10.7146C7.74367 39.4285 5.31587 37.1032 5.15197 34.1732L5.14288 33.8571V17.3554L23.4071 26.8549C23.7789 27.0483 24.2216 27.0483 24.5935 26.8549L30.9524 23.5481Z" fill="#5B5FC7"/>
<path d="M35.1397 23.9999C37.0333 23.9999 38.5683 22.4649 38.5683 20.5714H31.7112C31.7112 22.4649 33.2462 23.9999 35.1397 23.9999Z" fill="#AAB1FA"/>
</svg>
