<svg width="48" height="48" viewBox="0 0 48 48" fill="none" xmlns="http://www.w3.org/2000/svg">
<path d="M12.0016 31.2002C8.02424 31.2002 4.79999 27.976 4.79999 23.9986C4.79999 20.0213 8.02424 16.7971 12.0016 16.7971C15.57 16.7971 18.5322 19.3924 19.1036 22.7985H22.8V15.5984C22.8 13.6102 24.4118 11.9984 26.4 11.9984H28.8993C29.4699 8.59154 32.4325 5.9953 36.0016 5.9953C39.9789 5.9953 43.2031 9.21955 43.2031 13.1969C43.2031 17.1742 39.9789 20.3984 36.0016 20.3984C32.4336 20.3984 29.4717 17.8038 28.8998 14.3984H26.4C25.7372 14.3984 25.2 14.9357 25.2 15.5984V32.3984C25.2 33.0612 25.7372 33.5984 26.4 33.5984H28.8993C29.4699 30.1915 32.4325 27.5953 36.0016 27.5953C39.9789 27.5953 43.2031 30.8196 43.2031 34.7969C43.2031 38.7742 39.9789 41.9984 36.0016 41.9984C32.4336 41.9984 29.4717 39.4038 28.8998 35.9984H26.4C24.4118 35.9984 22.8 34.3867 22.8 32.3984V25.1985H19.1036C18.5324 28.6047 15.5701 31.2002 12.0016 31.2002Z" fill="#5B5FC7"/>
</svg>
