<svg width="48" height="48" viewBox="0 0 48 48" fill="none" xmlns="http://www.w3.org/2000/svg">
<path d="M9.92854 6.89534C9.71762 7.35317 9.59998 7.86284 9.59998 8.39999V33.9067C9.59998 36.3873 11.1264 38.6121 13.4407 39.5047L23.9044 43.5407C24.7556 43.869 25.63 43.8522 26.4 43.5777V15.7635C26.4 14.2789 25.4885 12.9464 24.1048 12.4083L9.92854 6.89534ZM11.8427 5.06463L24.9747 10.1715C27.2809 11.0684 28.8 13.2891 28.8 15.7635V38.4H32.4C34.3882 38.4 36 36.7882 36 34.8V27.7477L38.2925 18.5777C38.3639 18.2921 38.4 17.9989 38.4 17.7045V8.39999C38.4 6.41176 36.7882 4.79999 34.8 4.79999H13.2C12.7198 4.79999 12.2616 4.894 11.8427 5.06463Z" fill="#B1B3B3"/>
</svg>
