<svg width="48" height="48" viewBox="0 0 48 48" fill="none" xmlns="http://www.w3.org/2000/svg">
<path d="M42.8453 17.9551L34.9843 25.8294C32.862 27.9516 29.4184 27.9544 27.2951 25.8312C27.2091 25.7453 27.1266 25.6571 27.0476 25.567L24.5872 26.8464C24.2155 27.0396 23.7729 27.0396 23.4012 26.8464L5.14282 17.3503V33.846L5.1519 34.162C5.31575 37.0908 7.74277 39.4153 10.7127 39.4153H37.2757L37.5917 39.4065C40.5207 39.2427 42.8453 36.8158 42.8453 33.846V17.9551Z" fill="#B1B3B3"/>
<path d="M30.0352 8.56953H10.7127L10.3967 8.57835C7.46769 8.74219 5.14282 11.1691 5.14282 14.1389V14.4542L23.9942 24.2575L25.8598 23.2873C25.4907 21.7817 25.7733 20.1489 26.7077 18.8379C26.0378 18.7743 25.3853 18.486 24.8723 17.973C23.7011 16.8019 23.7012 14.9031 24.8724 13.732L30.0352 8.56953Z" fill="#B1B3B3"/>
<path d="M37.6358 7.02888C39.0266 5.63814 41.2816 5.63813 42.6724 7.02887C44.0632 8.4196 44.0632 10.6744 42.6724 12.0652L31.9537 22.8019C31.5041 23.2514 30.775 23.2515 30.3254 22.8019C29.8758 22.3524 29.8757 21.6237 30.325 21.174L39.0405 12.4783C39.543 11.9769 39.5439 11.1631 39.0425 10.6607C38.5411 10.1582 37.7273 10.1573 37.2248 10.6586L28.5087 19.355C27.0551 20.8085 27.0541 23.166 28.5077 24.6195C29.9612 26.073 32.3179 26.073 33.7714 24.6195L44.4901 13.8828C46.884 11.4881 46.8845 7.60556 44.4901 5.21126C42.0954 2.8167 38.2128 2.81669 35.8181 5.21126L26.0849 14.9437C25.583 15.4456 25.5829 16.2594 26.0849 16.7613C26.5868 17.2633 27.4006 17.2633 27.9026 16.7614L37.6358 7.02888Z" fill="#0078D4"/>
</svg>
