<svg width="48" height="48" viewBox="0 0 48 48" fill="none" xmlns="http://www.w3.org/2000/svg">
<path fill-rule="evenodd" clip-rule="evenodd" d="M35.1525 19.7903C34.5947 14.2159 30.7599 9.59998 24 9.59998C17.24 9.59998 13.4085 14.1792 12.8475 19.7903L12.677 19.7903C8.32661 19.7903 4.79999 23.419 4.79999 27.8952C4.79999 32.3713 8.32661 36 12.6769 36H21.6V28.8C21.6 26.149 23.749 24 26.4 24H42.2323C40.8934 21.491 38.3013 19.7903 35.3231 19.7903L35.1525 19.7903Z" fill="#3D3E78"/>
<path d="M24 28.8C24 27.4745 25.0745 26.4 26.4 26.4H43.2C44.5255 26.4 45.6 27.4745 45.6 28.8V38.4C45.6 39.7255 44.5255 40.8 43.2 40.8H38.4V43.2H39.6C40.2627 43.2 40.8 43.7372 40.8 44.4C40.8 45.0627 40.2627 45.6 39.6 45.6H30C29.3372 45.6 28.8 45.0627 28.8 44.4C28.8 43.7372 29.3372 43.2 30 43.2H31.2V40.8H26.4C25.0745 40.8 24 39.7255 24 38.4V28.8Z" fill="#5B5FC7"/>
</svg>
