<svg width="48" height="48" viewBox="0 0 48 48" fill="none" xmlns="http://www.w3.org/2000/svg">
<path fill-rule="evenodd" clip-rule="evenodd" d="M24 7.19995C30.7599 7.19995 34.5947 11.8158 35.1525 17.3903L35.3231 17.3903C39.0056 17.3903 42.098 19.9905 42.9605 23.5039C42.5526 23.2525 42.1216 23.0355 41.6851 22.8484C39.8007 22.0408 37.3648 21.6 34.8 21.6C32.2352 21.6 29.7992 22.0408 27.9149 22.8484C26.977 23.2504 26.0646 23.7906 25.3519 24.5128C24.629 25.2453 24 26.2913 24 27.6V33.6H12.6769C8.32661 33.6 4.79999 29.9713 4.79999 25.4951C4.79999 21.019 8.32661 17.3903 12.677 17.3903L12.8475 17.3903C13.4085 11.7792 17.24 7.19995 24 7.19995Z" fill="#3D3E78"/>
<path d="M34.8 24C30.1608 24 26.4 26.149 26.4 28.8C26.4 31.4509 30.1608 33.6 34.8 33.6C39.4392 33.6 43.2 31.4509 43.2 28.8C43.2 26.149 39.4392 24 34.8 24Z" fill="#5B5FC7"/>
<path d="M41.9304 34.2778C39.9859 35.389 37.4599 36 34.8 36C32.1401 36 29.614 35.389 27.6696 34.2778C27.2348 34.0294 26.8045 33.7394 26.4 33.4086V40.8C26.4 43.4509 30.1608 45.6 34.8 45.6C39.4392 45.6 43.2 43.4509 43.2 40.8V33.4086C42.7955 33.7394 42.3652 34.0294 41.9304 34.2778Z" fill="#5B5FC7"/>
</svg>
