<svg width="48" height="48" viewBox="0 0 48 48" fill="none" xmlns="http://www.w3.org/2000/svg">
<path d="M9.92854 6.8954C9.71762 7.35323 9.59998 7.8629 9.59998 8.40005V33.9068C9.59998 36.3873 11.1264 38.6121 13.4407 39.5048L23.9044 43.5408C24.7556 43.8691 25.63 43.8522 26.4 43.5778V15.7636C26.4 14.2789 25.4885 12.9465 24.1048 12.4084L9.92854 6.8954ZM11.8427 5.06469L24.9747 10.1716C27.2809 11.0684 28.8 13.2891 28.8 15.7636V38.4001H32.4C34.3882 38.4001 36 36.7883 36 34.8001V27.7478L38.2925 18.5777C38.3639 18.2922 38.4 17.9989 38.4 17.7046V8.40005C38.4 6.41182 36.7882 4.80005 34.8 4.80005H13.2C12.7198 4.80005 12.2616 4.89406 11.8427 5.06469Z" fill="#3D3E78"/>
</svg>
