<svg width="48" height="48" viewBox="0 0 48 48" fill="none" xmlns="http://www.w3.org/2000/svg">
<path d="M42.6724 7.02881C41.2816 5.63808 39.0266 5.63808 37.6358 7.02883L27.9026 16.7613C27.4006 17.2632 26.5868 17.2632 26.0849 16.7613C25.5829 16.2594 25.583 15.4456 26.0849 14.9437L35.8181 5.21121C38.2128 2.81664 42.0954 2.81664 44.4901 5.21121C46.8845 7.60551 46.884 11.4881 44.4901 13.8827L33.7714 24.6195C32.3179 26.0729 29.9612 26.0729 28.5077 24.6195C27.0541 23.166 27.0551 20.8084 28.5087 19.355L37.2248 10.6586C37.7273 10.1572 38.5411 10.1581 39.0425 10.6606C39.5439 11.1631 39.543 11.9769 39.0405 12.4782L30.325 21.174C29.8757 21.6237 29.8758 22.3524 30.3254 22.8019C30.775 23.2515 31.5041 23.2514 31.9537 22.8019L42.6724 12.0651C44.0632 10.6744 44.0632 8.41954 42.6724 7.02881Z" fill="#5B5FC7"/>
<path d="M10.7127 8.56948H30.0352L24.8724 13.7319C23.7012 14.903 23.7011 16.8018 24.8723 17.973C25.3853 18.4859 26.0378 18.7742 26.7077 18.8379C25.7733 20.1489 25.4907 21.7816 25.8598 23.2872L23.9942 24.2574L5.14282 14.4542V14.1389C5.14282 11.169 7.46769 8.74214 10.3967 8.5783L10.7127 8.56948Z" fill="#3D3E78"/>
<path d="M34.9843 25.8293L42.8453 17.955V33.8459C42.8453 36.8157 40.5207 39.2426 37.5917 39.4065L37.2757 39.4153H10.7127C7.74277 39.4153 5.31575 37.0908 5.1519 34.1619L5.14282 33.8459V17.3503L23.4012 26.8463C23.7729 27.0396 24.2155 27.0396 24.5872 26.8463L27.0476 25.5669C27.1266 25.657 27.2091 25.7452 27.2951 25.8312C29.4184 27.9544 32.862 27.9516 34.9843 25.8293Z" fill="#3D3E78"/>
</svg>
