<svg width="48" height="48" viewBox="0 0 48 48" fill="none" xmlns="http://www.w3.org/2000/svg">
<path fill-rule="evenodd" clip-rule="evenodd" d="M39.0466 15.9133C41.9156 13.0442 41.9155 8.39259 39.0465 5.52352C36.1773 2.65453 31.5258 2.65461 28.6569 5.52368L6.89801 27.2836C6.38688 27.7948 6.02967 28.4393 5.86713 29.1437L3.46152 39.568C3.24787 40.4938 4.07761 41.3235 5.00341 41.1099L15.4276 38.7043C16.1321 38.5417 16.7766 38.1845 17.2878 37.6733L35.4496 19.5118C36.4457 20.7942 36.3497 21.8296 35.5181 22.6636L30.377 27.8046C29.8747 28.3065 29.8743 29.1206 30.3762 29.6229C30.878 30.1253 31.6921 30.1257 32.1944 29.6238L37.3391 24.4792C39.1751 22.6377 39.2462 20.0913 37.2714 17.6887L39.0466 15.9133Z" fill="#3D3E78"/>
<path d="M28.2513 36.0033L28.7143 35.9999C30.8061 35.9999 31.905 36.867 33.2607 38.9214L33.9357 39.9641C34.462 40.7433 34.7905 41.0696 35.2042 41.2402C35.946 41.5459 36.5608 41.3956 38.8184 40.3085L39.5097 39.972C40.9217 39.2788 41.8852 38.8819 42.9739 38.6098C43.6628 38.4375 44.3608 38.8564 44.5331 39.5452C44.7053 40.2341 44.2864 40.9322 43.5976 41.1044C42.9209 41.2736 42.2725 41.5163 41.4243 41.9072L39.438 42.8627C36.7502 44.132 35.8387 44.2829 34.2244 43.6176C33.1528 43.1759 32.5435 42.537 31.6518 41.1737L31.3181 40.6527C30.2863 39.0268 29.767 38.5714 28.7143 38.5714L28.4422 38.5778C27.6997 38.6228 27.219 38.963 24.0159 41.34C21.0292 43.5564 18.7515 44.6151 15.8548 44.6151C12.3236 44.6151 8.99614 43.9663 5.88252 42.6694L10.8236 41.5271C12.4418 41.8715 14.1183 42.0437 15.8548 42.0437C18.0674 42.0437 19.9014 41.1913 22.4835 39.275L24.4722 37.8077C26.6517 36.2236 27.1365 36.0274 28.2513 36.0033Z" fill="#5B5FC7"/>
</svg>
