<svg width="48" height="48" viewBox="0 0 48 48" fill="none" xmlns="http://www.w3.org/2000/svg">
<path d="M13.7151 10.71V13.707H7.2828C5.15256 13.707 3.42566 15.4339 3.42566 17.5642V24.0001H12.8647V21.8572C12.8647 21.1471 13.4403 20.5715 14.1504 20.5715C14.8605 20.5715 15.4361 21.1471 15.4361 21.8572V24.0001H32.579V21.8572C32.579 21.1471 33.1546 20.5715 33.8647 20.5715C34.5748 20.5715 35.1504 21.1471 35.1504 21.8572V24.0001H44.5745V17.5642C44.5745 15.4339 42.8476 13.707 40.7174 13.707H34.2889V10.71C34.2889 8.57981 32.562 6.85291 30.4317 6.85291H17.5723C15.442 6.85291 13.7151 8.5798 13.7151 10.71ZM17.5723 9.42433H30.4317C31.1418 9.42433 31.7175 9.99997 31.7175 10.71V13.707H16.2866V10.71C16.2866 9.99997 16.8622 9.42433 17.5723 9.42433ZM44.5745 26.5715H35.1504V28.7143C35.1504 29.4244 34.5748 30.0001 33.8647 30.0001C33.1546 30.0001 32.579 29.4244 32.579 28.7143V26.5715H15.4361V28.7143C15.4361 29.4244 14.8605 30.0001 14.1504 30.0001C13.4403 30.0001 12.8647 29.4244 12.8647 28.7143V26.5715H3.42566V37.2784C3.42566 39.4087 5.15257 41.1356 7.2828 41.1356H40.7174C42.8476 41.1356 44.5745 39.4087 44.5745 37.2784V26.5715Z" fill="#3D3E78"/>
</svg>
