<svg width="48" height="48" viewBox="0 0 48 48" fill="none" xmlns="http://www.w3.org/2000/svg">
<path d="M4.79999 9.60005C4.79999 6.94908 6.94902 4.80005 9.59999 4.80005H12C14.651 4.80005 16.8 6.94908 16.8 9.60005V18.6H13.8C11.4804 18.6 9.59999 20.4805 9.59999 22.8C9.59999 25.1196 11.4804 27 13.8 27H16.8V36.0001C16.8 38.651 14.651 40.8001 12 40.8001H9.59999C6.94902 40.8001 4.79999 38.651 4.79999 36.0001V9.60005ZM36 4.80005C33.349 4.80005 31.2 6.94908 31.2 9.60005V36.0001C31.2 38.651 33.349 40.8001 36 40.8001H38.4C41.051 40.8001 43.2 38.651 43.2 36.0001V9.60005C43.2 6.94908 41.051 4.80005 38.4 4.80005H36ZM21.5272 16.7273C22.2301 16.0243 23.3698 16.0243 24.0728 16.7273L28.8728 21.5273C29.5757 22.2302 29.5757 23.3699 28.8728 24.0728L24.0728 28.8728C23.3698 29.5758 22.2301 29.5758 21.5272 28.8728C20.8243 28.1699 20.8243 27.0302 21.5272 26.3273L23.2544 24.6H13.2C12.2059 24.6 11.4 23.7942 11.4 22.8C11.4 21.8059 12.2059 21 13.2 21L23.2544 21.0001L21.5272 19.2728C20.8243 18.5699 20.8243 17.4302 21.5272 16.7273Z" fill="#B1B3B3"/>
</svg>
