<svg width="48" height="48" viewBox="0 0 48 48" fill="none" xmlns="http://www.w3.org/2000/svg">
<path fill-rule="evenodd" clip-rule="evenodd" d="M24 15.6V4.80005H13.2C11.2118 4.80005 9.59998 6.41182 9.59998 8.40005V39.6001C9.59998 41.5883 11.2118 43.2001 13.2 43.2001H21.6V40.8C21.6 39.8151 21.9884 38.93 22.6592 38.2592L28.8504 32.068C28.8172 31.7268 28.8 31.3873 28.8 31.0501C28.8 29.7469 29.0612 28.4932 29.5974 27.317C30.1063 26.2008 30.8012 25.2071 31.6754 24.3494C32.5622 23.4793 33.5893 22.8061 34.7413 22.3387C35.8839 21.875 37.0889 21.6329 38.3385 21.6008L38.3692 21.6H38.4V19.2H27.6C25.6117 19.2 24 17.5883 24 15.6ZM26.4 15.6V5.40005L37.8 16.8H27.6C26.9372 16.8 26.4 16.2628 26.4 15.6Z" fill="#B1B3B3"/>
<path fill-rule="evenodd" clip-rule="evenodd" d="M24.3562 45.2438C24.5937 45.4813 24.875 45.6001 25.2 45.6001H30C30.275 45.5876 30.4937 45.5313 30.6562 45.4313C30.8187 45.3313 30.9375 45.1938 31.0125 45.0188C31.0875 44.8438 31.1375 44.6563 31.1625 44.4563C31.1875 44.2563 31.2 44.05 31.2 43.8376V43.2001C31.775 43.1875 32.225 43.1688 32.55 43.1438C32.875 43.1188 33.1187 43.025 33.2812 42.8625C33.4437 42.7001 33.5375 42.4626 33.5625 42.1501C33.5875 41.8376 33.6 41.3876 33.6 40.8H34.8C35.0625 40.8 35.275 40.7438 35.4375 40.6313C35.6 40.5188 35.725 40.3813 35.8125 40.2188C35.9 40.0563 35.9562 39.8688 35.9812 39.6563C36.0062 39.4438 36.0187 39.225 36.0187 39C36.0062 38.8125 36 38.6313 36 38.4563V37.9875C36.4125 38.1376 36.8312 38.2438 37.2562 38.3063C37.6812 38.3688 38.1125 38.4001 38.55 38.4001C39.55 38.3876 40.4687 38.1938 41.3062 37.8188C42.1437 37.4438 42.8875 36.9188 43.5375 36.2438C44.1875 35.5688 44.6937 34.8 45.0562 33.9375C45.4187 33.0751 45.6 32.1626 45.6 31.2001C45.6 30.2001 45.4125 29.2626 45.0375 28.3876C44.6625 27.5126 44.15 26.75 43.5 26.1C42.85 25.4501 42.0875 24.9375 41.2125 24.5625C40.3375 24.1875 39.4 24 38.4 24C37.425 24.0251 36.5062 24.2126 35.6437 24.5625C34.7812 24.9125 34.0187 25.4125 33.3562 26.0625C32.6937 26.7125 32.1687 27.4625 31.7812 28.3125C31.3937 29.1625 31.2 30.0751 31.2 31.0501C31.2 31.6376 31.2687 32.2563 31.4062 32.9063L24.3562 39.9563C24.1187 40.1938 24 40.475 24 40.8V44.4001C24 44.725 24.1187 45.0063 24.3562 45.2438ZM42 29.4C42 28.9 41.825 28.475 41.475 28.125C41.125 27.7751 40.7 27.6 40.2 27.6C39.7 27.6 39.275 27.7751 38.925 28.125C38.575 28.475 38.4 28.9 38.4 29.4C38.4 29.9 38.575 30.3251 38.925 30.6751C39.275 31.025 39.7 31.2001 40.2 31.2001C40.7 31.2001 41.125 31.025 41.475 30.6751C41.825 30.3251 42 29.9 42 29.4Z" fill="#5B5FC7"/>
</svg>
