<svg width="48" height="48" viewBox="0 0 48 48" fill="none" xmlns="http://www.w3.org/2000/svg">
<path d="M12.0016 31.2003C8.02424 31.2003 4.79999 27.976 4.79999 23.9987C4.79999 20.0214 8.02424 16.7971 12.0016 16.7971C15.57 16.7971 18.5322 19.3925 19.1036 22.7985H22.8V15.5985C22.8 13.6103 24.4118 11.9985 26.4 11.9985H28.8993C29.4699 8.59161 32.4325 5.99536 36.0016 5.99536C39.9789 5.99536 43.2031 9.21961 43.2031 13.1969C43.2031 17.1743 39.9789 20.3985 36.0016 20.3985C32.4336 20.3985 29.4717 17.8039 28.8998 14.3985H26.4C25.7372 14.3985 25.2 14.9358 25.2 15.5985V32.3985C25.2 33.0612 25.7372 33.5985 26.4 33.5985H28.8993C29.4699 30.1916 32.4325 27.5954 36.0016 27.5954C39.9789 27.5954 43.2031 30.8196 43.2031 34.7969C43.2031 38.7743 39.9789 41.9985 36.0016 41.9985C32.4336 41.9985 29.4717 39.4039 28.8998 35.9985H26.4C24.4118 35.9985 22.8 34.3867 22.8 32.3985V25.1985H19.1036C18.5324 28.6047 15.5701 31.2003 12.0016 31.2003Z" fill="#B1B3B3"/>
</svg>
