<svg width="48" height="48" viewBox="0 0 48 48" fill="none" xmlns="http://www.w3.org/2000/svg">
<path fill-rule="evenodd" clip-rule="evenodd" d="M24 4.80005C18.698 4.80005 14.4 9.09812 14.4 14.4C14.4 19.702 18.698 24 24 24C26.2923 24 28.3969 23.1966 30.0477 21.856C30.1354 21.7797 30.224 21.705 30.3135 21.6321C32.3276 19.8723 33.5999 17.2847 33.5999 14.4C33.5999 9.09812 29.3019 4.80005 24 4.80005ZM12.0209 26.4L26.9427 26.4001C26.2831 28.2545 26.1441 30.2518 26.5242 32.1648L20.9626 37.7263C19.5737 39.1152 19.0056 41.014 19.2583 42.8201C16.6475 42.3803 14.2712 41.5535 12.3239 40.3119C9.19869 38.3192 7.19995 35.2589 7.19995 31.2001C7.19995 28.5285 9.36751 26.4 12.0209 26.4Z" fill="#B1B3B3"/>
<path d="M38.1397 21.657C39.0197 21.7595 39.2715 22.8116 38.645 23.4381L36.3047 25.7784C34.8917 27.1914 34.8917 29.4823 36.3047 30.8953C37.7177 32.3083 40.0086 32.3083 41.4216 30.8953L43.7619 28.555C44.3884 27.9285 45.4405 28.1803 45.543 29.0603C45.8312 31.5353 45.0259 34.1134 43.1272 36.0121C40.7458 38.3935 37.2957 39.0549 34.3208 37.9961L27.7766 44.5403C26.3636 45.9533 24.0727 45.9533 22.6597 44.5403C21.2467 43.1273 21.2467 40.8364 22.6597 39.4234L29.2039 32.8792C28.1451 29.9043 28.8065 26.4542 31.1879 24.0728C33.0866 22.1741 35.6647 21.3688 38.1397 21.657Z" fill="#5B5FC7"/>
</svg>
