<svg width="48" height="48" viewBox="0 0 48 48" fill="none" xmlns="http://www.w3.org/2000/svg">
<path d="M12.0002 5.49991C12.0002 4.79145 11.5045 4.1796 10.8115 4.03257C10.1202 3.8859 9.4206 4.24163 9.13159 4.88597L9.12851 4.89265C9.12451 4.90125 9.11684 4.91753 9.1055 4.94074C9.0828 4.98722 9.04563 5.06101 8.99409 5.15606C8.89054 5.34703 8.73168 5.61881 8.5188 5.92486C8.08352 6.55064 7.47076 7.24968 6.70549 7.72773C6.00289 8.16663 5.78912 9.09201 6.22802 9.79461C6.66693 10.4972 7.59231 10.711 8.29491 10.2721C8.54409 10.1164 8.77912 9.94938 9.0002 9.7752V14.4999C9.0002 15.3283 9.67177 15.9999 10.5002 15.9999C11.3286 15.9999 12.0002 15.3283 12.0002 14.4999V5.49991ZM38.999 35.9999H21.999L21.7658 36.0134C20.7711 36.1289 19.999 36.9742 19.999 37.9999C19.999 39.1045 20.8945 39.9999 21.999 39.9999H38.999L39.2323 39.9865C40.2269 39.8709 40.999 39.0256 40.999 37.9999C40.999 36.8953 40.1036 35.9999 38.999 35.9999ZM38.999 22.9999H21.999L21.7658 23.0134C20.7711 23.1289 19.999 23.9742 19.999 24.9999C19.999 26.1045 20.8945 26.9999 21.999 26.9999H38.999L39.2323 26.9865C40.2269 26.8709 40.999 26.0256 40.999 24.9999C40.999 23.8953 40.1036 22.9999 38.999 22.9999ZM38.999 9.99991H21.999L21.7658 10.0134C20.7711 10.1289 19.999 10.9742 19.999 11.9999C19.999 13.1045 20.8945 13.9999 21.999 13.9999H38.999L39.2323 13.9865C40.2269 13.8709 40.999 13.0256 40.999 11.9999C40.999 10.8953 40.1036 9.99991 38.999 9.99991ZM10.3019 21.0397C9.69913 20.9333 8.94887 21.1725 8.56062 21.5607C7.97482 22.1465 7.02507 22.1464 6.4393 21.5606C5.85354 20.9748 5.85357 20.0251 6.43938 19.4393C7.55113 18.3276 9.30087 17.8167 10.8231 18.0853C11.618 18.2256 12.4346 18.5941 13.0544 19.2966C13.6852 20.0115 14 20.9453 14 22C14 23.2388 13.4579 24.16 12.7881 24.8409C12.2326 25.4057 11.5263 25.862 10.9765 26.2171L10.8175 26.3201C10.427 26.5739 10.1086 26.794 9.85372 26.9999H12.5C13.3284 26.9999 14 27.6715 14 28.4999C14 29.3284 13.3284 29.9999 12.5 29.9999H7.5C6.67157 29.9999 6 29.3284 6 28.4999C6 25.8728 7.9677 24.5941 9.1501 23.8258L9.27044 23.7476C9.90518 23.3353 10.3369 23.0548 10.6494 22.7371C10.9171 22.465 11 22.2611 11 22C11 21.5547 10.8773 21.3635 10.8049 21.2815C10.7217 21.1871 10.5695 21.0869 10.3019 21.0397ZM5.93934 42.5606C5.93934 42.5606 6.12503 42.728 5.94852 42.5696L5.95924 42.5801L5.98581 42.6054C6.00575 42.6241 6.03018 42.6464 6.05912 42.6717C6.11696 42.7224 6.19305 42.7853 6.2875 42.8562C6.47619 42.9977 6.73992 43.1719 7.07918 43.3415C7.76261 43.6833 8.74085 43.9999 10 43.9999C11.2784 43.9999 12.3919 43.6372 13.2026 42.9209C14.0184 42.2 14.4233 41.2062 14.3911 40.2019C14.3644 39.3691 14.0581 38.6105 13.5397 37.9999C14.0581 37.3893 14.3644 36.6307 14.3911 35.798C14.4233 34.7936 14.0184 33.7998 13.2026 33.079C12.3919 32.3626 11.2784 31.9999 10 31.9999C8.74085 31.9999 7.76261 32.3166 7.07918 32.6583C6.73992 32.8279 6.47619 33.0021 6.2875 33.1437C6.19305 33.2145 6.11696 33.2775 6.05912 33.3281C6.03018 33.3534 6.00575 33.3757 5.98581 33.3944L5.95924 33.4197L5.94846 33.4302L5.94379 33.4349L5.94181 33.4368L5.93934 33.4392C5.35355 34.025 5.35355 34.9748 5.93934 35.5606C6.5172 36.1384 7.44924 36.1462 8.03669 35.584C8.04341 35.5782 8.06037 35.564 8.0875 35.5437C8.14881 35.4977 8.26008 35.4219 8.42082 35.3415C8.73739 35.1833 9.25915 34.9999 10 34.9999C10.7216 34.9999 11.072 35.1997 11.2162 35.3271C11.3554 35.45 11.3965 35.5812 11.3926 35.7019C11.3885 35.831 11.3281 36.0053 11.1456 36.1636C10.969 36.3167 10.6192 36.4999 10 36.4999C9.17157 36.4999 8.5 37.1715 8.5 37.9999C8.5 38.8283 9.17157 39.4999 10 39.4999C10.6192 39.4999 10.969 39.6831 11.1456 39.8363C11.3281 39.9945 11.3885 40.1689 11.3926 40.298C11.3965 40.4186 11.3554 40.5498 11.2162 40.6727C11.072 40.8001 10.7216 40.9999 10 40.9999C9.25915 40.9999 8.73739 40.8166 8.42082 40.6583C8.26008 40.5779 8.14881 40.5021 8.0875 40.4562C8.06037 40.4358 8.04341 40.4216 8.03669 40.4158C7.44924 39.8536 6.5172 39.8614 5.93934 40.4392C5.35355 41.025 5.35355 41.9748 5.93934 42.5606ZM5.94379 33.4349L5.94181 33.4368C5.9552 33.4257 6.34364 33.1029 5.94379 33.4349Z" fill="#B1B3B3"/>
</svg>
