<svg width="48" height="48" viewBox="0 0 48 48" fill="none" xmlns="http://www.w3.org/2000/svg">
<path fill-rule="evenodd" clip-rule="evenodd" d="M14.4 7.19995C10.4235 7.19995 7.19995 10.4235 7.19995 14.4V33.6C7.19995 37.5764 10.4235 40.8 14.4 40.8H22.1291L22.6359 38.7728C22.6672 38.6475 22.7016 38.5232 22.7391 38.4H14.4C11.749 38.4 9.59995 36.2509 9.59995 33.6V16.8H38.4V22.1559C39.1665 21.8274 39.9805 21.6445 40.8 21.6071V14.4C40.8 10.4235 37.5764 7.19995 33.6 7.19995H14.4Z" fill="#B1B3B3"/>
<path d="M26.3514 36.9052L37.942 25.3146C39.6948 23.5617 42.5367 23.5617 44.2896 25.3146C46.0424 27.0674 46.0424 29.9093 44.2896 31.6622L32.6989 43.2528C32.0231 43.9286 31.1764 44.408 30.2492 44.6398L26.6543 45.5385C25.0909 45.9293 23.6748 44.5132 24.0656 42.9499L24.9644 39.3549C25.1962 38.4277 25.6756 37.581 26.3514 36.9052Z" fill="#5B5FC7"/>
</svg>
