<svg width="48" height="48" viewBox="0 0 48 48" fill="none" xmlns="http://www.w3.org/2000/svg">
<path d="M33.5 4.00293C27.7011 4.00293 23 8.70394 23 14.5029C23 15.6086 23.1715 16.6765 23.4898 17.6801L5.35492 36.4403C3.4352 38.4262 3.64008 41.6331 5.79692 43.3586C7.68578 44.8697 10.4143 44.6953 12.0955 42.9562L30.0211 24.4124C31.1112 24.7951 32.2826 25.0029 33.5 25.0029C39.299 25.0029 44 20.3019 44 14.5029C44 13.4976 43.8583 12.5228 43.5929 11.5988C43.4462 11.0883 43.0406 10.6935 42.5264 10.5607C42.0122 10.4278 41.466 10.5768 41.0905 10.9523L34.7224 17.3204L30.6011 13.1991L36.9233 6.87689C37.3016 6.49855 37.4498 5.94732 37.3121 5.43028C37.1745 4.91324 36.7718 4.50868 36.2554 4.36857C35.3757 4.12986 34.4515 4.00293 33.5 4.00293Z" fill="#B1B3B3"/>
</svg>
